<svg xmlns="http://www.w3.org/2000/svg" width="25" height="16" viewBox="0 0 25 16">
    <g fill="none" fill-rule="evenodd">
        <g fill="#000" fill-rule="nonzero">
            <g>
                <g>
                    <path d="M18.927.182c-.117-.208-.373-.238-.537-.09l-3.78 3.825-4.876-2.58c-.116-.059-.256-.029-.35.06L4.158 6.14c-.163.149-.21.445-.093.652.07.149.186.208.303.208.07 0 .14-.03.21-.089l5.063-4.595 4.9 2.58c.116.058.28.029.373-.06L18.857.863c.163-.148.187-.474.07-.681z" transform="translate(-606 -3628) translate(597 3611) translate(9 17)"/>
                    <path d="M24.644 15.123h-1.745V2.438c0-.246-.165-.438-.377-.438h-3.467c-.212 0-.377.192-.377.438v12.685h-1.274V6.822c0-.247-.165-.438-.377-.438h-3.49c-.213 0-.378.191-.378.438v8.301h-1.273V6.164c0-.246-.165-.438-.378-.438H8.042c-.213 0-.378.192-.378.438v8.96H6.391V8.74c0-.247-.165-.439-.377-.439h-3.49c-.213 0-.378.192-.378.439v6.383H.377c-.212 0-.377.192-.377.439 0 .246.165.438.377.438H24.62c.213 0 .378-.192.378-.438.023-.247-.142-.439-.354-.439zm-19.031 0H2.9V9.178h2.712v5.945zm5.518 0H8.42v-8.52h2.712v8.52zm5.495 0h-2.712V7.26h2.712v7.863zm5.518 0h-2.712V2.877h2.712v12.246z" transform="translate(-606 -3628) translate(597 3611) translate(9 17)"/>
                </g>
            </g>
        </g>
    </g>
</svg>
