<svg xmlns="http://www.w3.org/2000/svg" width="18" height="18" viewBox="0 0 18 18">
    <g fill="none" fill-rule="evenodd">
        <g fill="#242424" fill-rule="nonzero">
            <g>
                <g>
                    <g>
                        <path d="M9.994 9l7.8-7.8c.275-.274.275-.72 0-.994-.275-.275-.72-.275-.994 0L9 8.006 1.2.206C.926-.069.48-.069.206.206c-.275.275-.275.72 0 .994l7.8 7.8-7.8 7.8c-.275.274-.275.72 0 .994.137.137.317.206.497.206s.36-.069.497-.206l7.8-7.8 7.8 7.8c.137.137.317.206.497.206s.36-.069.497-.206c.275-.275.275-.72 0-.994L9.994 9z" transform="translate(-984 -124) translate(399 84) translate(585 40)"/>
                    </g>
                </g>
            </g>
        </g>
    </g>
</svg>
