<svg xmlns="http://www.w3.org/2000/svg" width="24" height="18" viewBox="0 0 24 18">
    <g fill="none" fill-rule="evenodd">
        <g fill="#000" fill-rule="nonzero">
            <g>
                <g>
                    <path d="M10.833 0H2.167C.972 0 0 .878 0 1.957v14.086C0 17.123.972 18 2.167 18h7.8v-.783h-7.8c-.717 0-1.3-.526-1.3-1.174V1.957c0-.648.583-1.174 1.3-1.174h8.666c.717 0 1.3.526 1.3 1.174v11.347H13V1.957C13 .877 12.028 0 10.833 0z" transform="translate(-539 -3824) translate(529 3807) matrix(0 1 1 0 10 17)"/>
                    <path d="M16.968 10.837L12.763 6l-.67.493 4.205 4.837c.545.627.845 1.415.845 2.219v9.662h-6.27c-2.214 0-4.016-1.658-4.016-3.697v-1.432H6v1.432C6 21.987 8.186 24 10.873 24h6.698c.237 0 .429-.176.429-.395V13.55c0-.981-.366-1.945-1.032-2.712z" transform="translate(-539 -3824) translate(529 3807) matrix(0 1 1 0 10 17)"/>
                    <path d="M6.976 9.78c.294.008.569.122.77.32l5.642 5.566.612-.534-5.643-5.566C8.001 9.216 7.518 9.015 7 9c-.525-.016-1.013.161-1.386.488l-.042.038c-.718.668-.766 1.717-.111 2.44l3.615 3.964v1.206c0 2.154 1.459 4.108 3.631 4.863l.295-.73c-1.846-.642-3.086-2.303-3.086-4.133V15.79c0-.092-.035-.182-.1-.252l-3.713-4.072c-.372-.41-.345-1.008.083-1.405.215-.188.494-.281.79-.28z" transform="translate(-539 -3824) translate(529 3807) matrix(0 1 1 0 10 17)"/>
                    <path d="M9 1H10V11H9zM7 13H8V18H7zM7 0H8V9H7zM2 2H3V7H2zM4 2H5V5H4zM5.5 13h-3c-.276 0-.5.168-.5.375v2.25c0 .207.224.375.5.375h3c.276 0 .5-.168.5-.375v-2.25c0-.207-.224-.375-.5-.375zM5 15.25H3v-1.5h2v1.5z" transform="translate(-539 -3824) translate(529 3807) matrix(0 1 1 0 10 17)"/>
                </g>
            </g>
        </g>
    </g>
</svg>
