<svg xmlns="http://www.w3.org/2000/svg" width="141" height="57" viewBox="0 0 141 57">
    <g fill="none" fill-rule="evenodd">
        <g fill-rule="nonzero">
            <g>
                <path fill="#1B325E" d="M22.422 35.907h-3.746l-5.54-16.354c.32-.127 1.057-.254 1.826-.254 1.248 0 1.953.636 2.305 1.813l3.362 11.104 3.458-11.199c.384-1.145.992-1.75 2.273-1.75.512 0 .992.064 1.665.255l-5.603 16.385zM37.752 35.907l-1.376-4.048H30.84l-1.314 4.048h-3.253l5.568-16.287c.375-.16 1.126-.353 1.908-.353.688 0 1.814.16 2.252 1.542l5.16 15.098h-3.409zM33.655 22.35l-2.19 7.035h4.285l-2.095-7.035zM42.913 19.396l.463-.065c.264-.032.528-.064.76-.064.925 0 2.28.257 2.28 1.927v11.95h4.957c1.653 0 2.05.868 2.05 1.767 0 .321-.034.996-.067.996H42.913V19.396zM58.64 29.238c0 2.297.495 3.806 3.102 3.806 2.31 0 3.103-1.32 3.103-3.617V19.393l.462-.063c.264-.031.528-.063.76-.063.923 0 2.244.283 2.244 1.887v7.864c0 .66-.033 1.29-.1 1.95-.264 2.737-2.178 4.939-6.535 4.939s-6.007-1.825-6.403-5.033c-.066-.566-.1-1.195-.1-1.856v-9.625l.43-.063c.264-.031.528-.063.76-.063.99 0 2.277.283 2.277 1.887v8.084zM79.433 33.392c1.542 0 2.014.828 2.014 1.687 0 .368-.031.552-.063.828H70.938V20.143h10.069c.063.368.063.521.063.859 0 1.104-.472 1.656-2.046 1.656h-4.75v3.895h5.128v2.515h-5.129v4.355h5.16v-.031z" transform="translate(-153 -22) translate(153 22)"/>
                <path fill="#416BB3" d="M88.479 35.907h-5.28V19.556c2.093-.257 3.574-.289 4.636-.289 6.568 0 8.5 3.72 8.5 8.112.032 4.648-2.415 8.528-7.856 8.528zm-.354-14.01c-.483 0-.966.031-1.481.063v11.35h1.352c3.896 0 4.926-2.405 4.926-5.9 0-3.045-1.062-5.514-4.797-5.514zM106.327 35.907c-5.315 0-7.364-3.904-7.364-8.398 0-4.462 2.337-8.242 7.556-8.242 5.187 0 7.332 3.626 7.332 8.242 0 4.556-2.113 8.398-7.524 8.398zm.192-14.037c-3.01 0-4.066 2.603-4.066 5.64 0 3.036 1.024 5.794 3.97 5.794 2.945 0 3.97-2.758 3.97-5.795 0-3.036-.993-5.64-3.874-5.64zM119.155 22.78h-5.239v-.03c-.065-.368-.065-.552-.065-.92 0-.86.59-1.687 2.128-1.687h11.819c.065.337.065.675.065 1.012 0 .828-.523 1.625-2.062 1.625h-3.176v13.127h-3.47V22.78z" transform="translate(-153 -22) translate(153 22)"/>
                <path fill="#416BB3" d="M141 0L141 38.529 137.251 38.529 137.251 3.72 3.749 3.72 3.749 51.454 124.066 51.454 124.066 55.174 0 55.174 0 0z" transform="translate(-153 -22) translate(153 22)"/>
                <path fill="#FFD24F" d="M127.863 42.913H141V56.05H127.863z" transform="translate(-153 -22) translate(153 22)"/>
            </g>
        </g>
    </g>
</svg>
