<svg xmlns="http://www.w3.org/2000/svg" width="43" height="34" viewBox="0 0 43 34">
    <g fill="none" fill-rule="evenodd" stroke-linecap="round">
        <g stroke="#111" stroke-width="2">
            <g>
                <g>
                    <path d="M10.853 5.03H3.619C1.206 5.494 0 6.945 0 9.38v18.412c.625 2.126 1.831 3.397 3.62 3.81.058.08 10.93.08 32.616 0 2.247-.575 3.502-1.845 3.764-3.81-.014.01-.014-6.128 0-18.412.01-2.562-.992-4.013-3.005-4.351-.027-.046-2.696-.046-8.009 0" transform="translate(-237 -3121) translate(154 2814) translate(84 308)"/>
                    <path d="M13.333 7.853L19.048 13.567 24.762 7.853M19.048.234L19.048 12.615M4.86 22.139L10.378 22.139M16.289 22.139L21.806 22.139M28.67 22.139L34.187 22.139" transform="translate(-237 -3121) translate(154 2814) translate(84 308)"/>
                </g>
            </g>
        </g>
    </g>
</svg>
