<svg xmlns="http://www.w3.org/2000/svg" width="897" height="535" viewBox="0 0 897 535">
    <g fill="none" fill-rule="evenodd">
        <g>
            <g transform="translate(-582 -235) translate(582 235)">
                <path fill="#FFF" d="M735 495H736V535H735z"/>
                <text fill="#FFF" font-family="Poppins-SemiBold, Poppins" font-size="14" font-weight="500" transform="rotate(-90 736 461)">
                    <tspan x="716" y="466">Scroll</tspan>
                </text>
                <path fill="#FFF" fill-rule="nonzero" d="M185 0H897V456H185z"/>
                <path fill="#FFF" fill-rule="nonzero" d="M249 62H505V327H249zM522 67H778V388H522z"/>
                <ellipse cx="774.5" cy="482.5" fill="#DEE4FA" rx="46.5" ry="6.5"/>
                <ellipse cx="394.5" cy="482.5" fill="#DEE4FA" rx="46.5" ry="6.5"/>
                <ellipse cx="106" cy="477" fill="#DEE4FA" rx="106" ry="5"/>
                <path fill="#1A325F" fill-rule="nonzero" d="M185 0H897V31H185z"/>
                <circle cx="207.5" cy="15.5" r="5.5" fill="#E6E6E6" fill-rule="nonzero"/>
                <circle cx="228.5" cy="15.5" r="5.5" fill="#E6E6E6" fill-rule="nonzero"/>
                <circle cx="250.5" cy="15.5" r="5.5" fill="#E6E6E6" fill-rule="nonzero"/>
                <path fill="#1B325E" fill-rule="nonzero" d="M722 153.251h-1.565v-42.597c0-6.539-2.614-12.81-7.266-17.433C708.516 88.597 702.206 86 695.626 86h-90.817c-6.58 0-12.89 2.597-17.542 7.221-4.653 4.624-7.267 10.894-7.267 17.433v233.692c0 6.539 2.614 12.81 7.267 17.433 4.652 4.624 10.963 7.221 17.542 7.221h90.817c6.58 0 12.89-2.597 17.543-7.221 4.652-4.624 7.266-10.894 7.266-17.433V183.573H722V153.25z"/>
                <path fill="#FFF" fill-rule="nonzero" d="M695.662 92h-11.734c1.096 2.705.782 5.783-.836 8.208-1.618 2.425-4.33 3.88-7.23 3.88h-51.498c-2.901 0-5.612-1.455-7.23-3.88-1.619-2.425-1.932-5.503-.836-8.208h-10.96c-4.863 0-9.528 1.946-12.967 5.41-3.439 3.462-5.371 8.16-5.371 13.058v234.064c0 4.898 1.932 9.595 5.371 13.059 3.44 3.463 8.104 5.409 12.967 5.409h90.324c4.863 0 9.528-1.946 12.967-5.41 3.439-3.463 5.371-8.16 5.371-13.058V110.468c0-10.2-8.21-18.468-18.338-18.468z"/>
                <path fill="#DEE4FA" d="M288 228H467V236H288z"/>
                <path fill="#416BB3" fill-rule="nonzero" d="M288 255H467V263H288z"/>
                <path fill="#DEE4FA" d="M288 280H467V288H288zM599 247H703V255H599zM599 272H703V280H599zM599 296H703V304H599z"/>
                <path fill="#416BB3" fill-rule="nonzero" d="M696 406L714 406 714 424 696 424z" transform="rotate(90 705 415)"/>
                <path fill="#1B325E" fill-rule="nonzero" d="M669 406H687V424H669z" transform="rotate(90 678 415)"/>
                <path fill="#416BB3" fill-rule="nonzero" d="M641 406H659V424H641z" transform="rotate(90 650 415)"/>
                <path fill="#416BB3" fill-rule="nonzero" d="M612 406H630V424H612z" transform="rotate(90 621 415)"/>
                <path fill="#416BB3" fill-rule="nonzero" d="M585 406H603V424H585z" transform="rotate(90 594 415)"/>
                <path fill="#416BB3" fill-rule="nonzero" d="M622 141H680V199H622z"/>
                <path fill="#A0616A" fill-rule="nonzero" d="M355.01 277.516l-.802 1.484-2.406-11.129S348.594 256 355.01 256s4.812 11.871 4.812 11.871v8.161l-4.812 1.484zM452.99 277.516l.802 1.484 2.406-11.129S459.406 256 452.99 256s-4.812 11.871-4.812 11.871v8.161l4.812 1.484z"/>
                <path fill="#1B325E" fill-rule="nonzero" d="M386.799 363L378 418.128 382.399 471.764 392.666 467.296 391.2 427.067 401.466 395.033 403.666 433.026 399.267 472.509 412.466 474 422 392.798 421.267 365.234z"/>
                <path fill="#2F2E41" fill-rule="nonzero" d="M387.182 465.752L382 474.024v18.484c0 1.1.786 2.037 1.854 2.212 2.54.424 6.963.725 8.51-1.895 2.221-3.76.74-12.033.74-12.033s2.962-6.016 1.481-10.528c-1.48-4.512-2.96-5.264-2.96-5.264l-4.443.752zM409.18 473.73l1.53 2.188s2.294 2.188.764 3.647c-1.123 1.134-2.146 2.354-3.06 3.647 0 0-8.414 2.189-8.414-.73V473l9.18.73z"/>
                <circle cx="407" cy="292" r="10" fill="#A0616A" fill-rule="nonzero"/>
                <path fill="#A0616A" fill-rule="nonzero" d="M399.722 296L399 310.25 412 311 411.278 296.75z"/>
                <path fill="#416BB3" fill-rule="nonzero" d="M414.43 311.793l-2.14-5.117s-9.92-3.738-12.936-.049l-1.508 4.428-12.061-2.952L379 322.861l6.03 42.061s15.832 19.924 36.94.738l6.03-39.847-4.523-15.496-9.046 1.476z"/>
                <path fill="#416BB3" fill-rule="nonzero" d="M422 311.381L423.512 308.359 438.632 299.294 447.86 272 455 275.058 446.948 307.604 425.023 328zM387 308.254L385.56 306.732 370.44 296.836 359.64 274 351 277.044 360.359 305.208 383.401 325z"/>
                <path fill="#2F2E41" fill-rule="nonzero" d="M414.299 276.99l1.665-.834-2.498-.834v-.834s-12.49-5.002-14.156 3.335c-4.413 5.938-4.413 14.07 0 20.009v2.5L412.634 302l1.665-5.002s8.327-15.007 0-20.009z"/>
                <path fill="#FFB8B8" fill-rule="nonzero" d="M115.643 365l-2.877 1.522s-11.51 5.581-8.152 8.626c3.356 3.044 12.468-3.045 12.468-3.045l1.918-2.537-3.357-4.566z"/>
                <path fill="#1B325E" fill-rule="nonzero" d="M201 363L192.103 422.453 178.669 464 171.474 460.657 178.19 403.828 159 387.591 160.44 363.713z"/>
                <path fill="#2F2E41" fill-rule="nonzero" d="M170.257 463.488s8.257-4.413 8.743 1.961l-.971 6.375s2.914 11.28-6.8 8.827c-9.715-2.452-2.915-9.807-2.915-9.807l1.943-7.356z"/>
                <path fill="#1B325E" fill-rule="nonzero" d="M165.352 384L159 389.35s0 33.078 4.398 37.942c4.397 4.865 32.25 29.673 33.227 30.645.977.973 5.375-9.728 5.375-9.728l-26.386-30.645 1.954-18.971L165.352 384z"/>
                <path fill="#2F2E41" fill-rule="nonzero" d="M198.242 445.179s7.542-1.434 7.542 3.823c.094 4.156.408 8.304.942 12.426 0 0 1.886 16.728-4.242 14.338-6.127-2.39-8.484-19.117-8.484-19.117.57-1.39 1.56-2.562 2.828-3.346 1.885-.955 1.414-8.124 1.414-8.124z"/>
                <path fill="#FFB8B8" fill-rule="nonzero" d="M173.593 292L175 309.412 171.25 316 160.938 306.118 160 292.941z"/>
                <circle cx="164.5" cy="286.5" r="11.5" fill="#FFB8B8" fill-rule="nonzero"/>
                <path fill="#D0CDE1" fill-rule="nonzero" d="M171.505 309.892L176.341 296 185.044 305.581 201 366.419 188.912 373.605 183.594 365.94 182.627 376 158.933 371.21 157 307.017 161.832 300.274z"/>
                <path fill="#416BB3" fill-rule="nonzero" d="M163 377L160.21 300 154.163 304.753 143 312.358 150.442 339.451 152.767 367.969z"/>
                <path fill="#416BB3" fill-rule="nonzero" d="M145.923 311.488L142.692 311 133.461 339.792 115 364.192 121.923 372 143.153 350.04 151 331.984z"/>
                <path fill="#FFB8B8" fill-rule="nonzero" d="M198.699 365l-.67 3.012s-3.062 11.761 1.376 10.948c4.438-.814 5.595-11.06 5.595-11.06l-.709-2.861L198.7 365z"/>
                <path fill="#416BB3" fill-rule="nonzero" d="M174.401 294L199.019 303.526 196.039 332.651 202 364.69 196.039 371 174 298.126z"/>
                <path fill="#2F2E41" fill-rule="nonzero" d="M165.672 266.705l3.302-1.705v1.705l2.202-1.137v2.841s8.257 6.25 6.606 13.636c-1.652 7.387-1.652 7.955-1.652 7.955s-2.087-14.047-10.344-11.774c-8.257 2.273-8.922 2.683-11.123 8.933l-.598 2.681s-9.31-22 11.607-23.135z"/>
                <path fill="#416BB3" fill-rule="nonzero" d="M195.862 304L199.724 304 206 338.198 206 368 198.276 366.534 192 321.587z"/>
                <path fill="#1B325E" fill-rule="nonzero" d="M2 376H144V475H2z"/>
                <path fill="#FFF" fill-rule="nonzero" d="M73.5 393C56.655 393 43 406.655 43 423.5S56.655 454 73.5 454s30.5-13.655 30.5-30.5c-.05-16.824-13.676-30.45-30.5-30.5zm0 9.15c5.053 0 9.15 4.097 9.15 9.15s-4.097 9.15-9.15 9.15-9.15-4.097-9.15-9.15c.017-5.046 4.104-9.133 9.15-9.15zm0 44.05c-7.338-.034-14.187-3.69-18.3-9.767.147-6.1 12.2-9.458 18.3-9.458 6.1 0 18.153 3.358 18.3 9.458-4.117 6.073-10.963 9.726-18.3 9.766z"/>
                <path fill="#DEE4FA" d="M288 93H466V194H288z"/>
                <path fill="#FFB8B8" fill-rule="nonzero" d="M739.484 294.097l.88-5.079s5.131-10.433 1.075-10.995c-4.056-.562-7.439 9.37-7.439 9.37L735.484 298l4-3.903z"/>
                <path fill="#575A89" fill-rule="nonzero" d="M777 325.022L742.262 318.265 738.226 293.764 728 293 728.5 324.677 758.682 340z"/>
                <path fill="#3A60A0" fill-rule="nonzero" d="M777 325.022L742.262 318.265 738.226 293.764 728 293 728.5 324.677 758.682 340z" opacity=".2"/>
                <path fill="#416BB3" fill-rule="nonzero" d="M685 280H789V288H685z" transform="rotate(-180 737 284)"/>
                <path fill="#FFB8B8" fill-rule="nonzero" d="M732.71 293.289l.007-5.5s3.375-11.784-.824-11.789c-4.199-.005-5.893 10.995-5.893 10.995L729.344 298l3.366-4.711z"/>
                <path fill="#2F2E41" fill-rule="nonzero" d="M775.372 308.64l4.648-1.151c3.591.004 6.995-1.631 9.27-4.455 2.277-2.824 3.184-6.538 2.473-10.117.005-4.216-1.638-8.262-4.567-11.247-2.93-2.985-6.905-4.665-11.053-4.67-4.148-.005-8.128 1.665-11.065 4.642-2.936 2.978-4.59 7.02-4.594 11.235-1.224 4.328-.089 8.99 2.98 12.239 3.067 3.248 7.604 4.59 11.908 3.524z"/>
                <path fill="#1B325E" fill-rule="nonzero" d="M748 385.172L751.76 426.964 758.567 467.986 770 468 768.526 427.759 762.489 379z"/>
                <path fill="#2F2E41" fill-rule="nonzero" d="M762.286 466l-7.824 4.569s-12.51 1.51-10.17 5.329c2.34 3.818 29.706 1.562 29.708.036.002-1.526-.77-9.92-2.333-9.923l-9.381-.011z"/>
                <path fill="#1B325E" fill-rule="nonzero" d="M782.888 382.895s-.22 5.913-5.698 15.096l.745 28.336L806 461.589 795.838 470l-34.308-38.333-8.53-45.96L763.945 375l18.943 7.895z"/>
                <path fill="#2F2E41" fill-rule="nonzero" d="M803.129 461s9.242 1.562 7.697 5.435c-1.546 3.872-5.42 21.692-15.432 19.354 0 0-4.623-.005-3.078-3.103.928-1.864 1.96-3.673 3.088-5.421l.013-10.075 7.712-6.19z"/>
                <circle cx="771.5" cy="298.5" r="11.5" fill="#FFB8B8" fill-rule="nonzero"/>
                <path fill="#FFB8B8" fill-rule="nonzero" d="M776 305.013L775.984 318 764 317.985 765.514 305z"/>
                <path fill="#416BB3" fill-rule="nonzero" d="M759.59 312.925l3.637-.925 11.363.944s5.993 6.218 5.241 7.77c-.752 1.551-4.548 39.585-4.548 39.585L782 387.48 757.998 389 746 387.432l2.31-48.904s-5.235-13.204 1.52-17.077c3.815-2.071 7.146-4.982 9.76-8.526z"/>
                <path fill="#416BB3" fill-rule="nonzero" d="M775 317.372L739.908 315.794 732.139 292 722 292.754 727.418 324.218 759.381 335z"/>
                <circle cx="793.5" cy="282.5" r="7.5" fill="#2F2E41" fill-rule="nonzero"/>
                <path fill="#2F2E41" fill-rule="nonzero" d="M786.772 277.602c.002-2.118 1.04-4.124 2.827-5.466 1.788-1.341 4.137-1.876 6.401-1.458-2.693-1.167-5.878-.807-8.18.926-2.303 1.732-3.312 4.526-2.59 7.177.721 2.65 3.043 4.682 5.963 5.219-2.7-1.167-4.423-3.66-4.421-6.398zM779.35 280.85L769.27 279l-7.754 4.844c-3.893 2.431-6.009 6.899-5.418 11.44l7.765-1.962 1.739-4.346 2.071 3.383L776.074 307l8.506-4.61 5.42-8.466-10.65-13.074z"/>
                <path fill="#FFF" fill-rule="nonzero" d="M375.81 40.443L377.834 40.443 377.835 245.891 375.811 245.891z" transform="rotate(-60.15 376.823 143.167)"/>
                <path fill="#FFF" fill-rule="nonzero" d="M274.099 142.154L479.547 142.155 479.547 144.18 274.099 144.179z" transform="rotate(-29.846 376.823 143.167)"/>
                <path fill="#FFF" fill-rule="nonzero" d="M649.663 128.684L651.688 128.684 651.688 210.297 649.664 210.297z" transform="rotate(-45 650.676 169.49)"/>
                <path fill="#FFF" fill-rule="nonzero" d="M609.869 168.478L691.483 168.478 691.483 170.503 609.869 170.503z" transform="rotate(-45 650.676 169.49)"/>
            </g>
        </g>
    </g>
</svg>
