<svg xmlns="http://www.w3.org/2000/svg" width="20" height="20" viewBox="0 0 20 20">
    <g fill="none" fill-rule="evenodd">
        <g>
            <g>
                <g transform="translate(-158 -584) translate(158 584)">
                    <circle cx="10" cy="10" r="10" fill="#00B256"/>
                    <path fill="#FFF" fill-rule="nonzero" d="M14.738 12.339l-1.399-1.396c-.5-.498-1.348-.299-1.548.35-.15.448-.65.697-1.099.597-.999-.249-2.347-1.545-2.597-2.591-.15-.449.15-.947.6-1.097.649-.2.848-1.046.349-1.545L7.646 5.262c-.4-.35-1-.35-1.349 0l-.949.947c-.949.996.1 3.638 2.447 5.98 2.348 2.343 4.995 3.44 5.994 2.443l.949-.947c.35-.4.35-.997 0-1.346z"/>
                </g>
            </g>
        </g>
    </g>
</svg>
