<svg xmlns="http://www.w3.org/2000/svg" width="45" height="43" viewBox="0 0 45 43">
    <g fill="none" fill-rule="evenodd">
        <g stroke="#111" stroke-width="1.5">
            <g>
                <g>
                    <g>
                        <g>
                            <path d="M0 4.286L6.45 0 26.507 0 26.507 27.774 0 27.774z" transform="translate(-465 -3115) translate(154 2814) translate(293 284) translate(19 17) translate(0 14)"/>
                            <path stroke-linecap="square" d="M6.906 8.522L18.401 8.522M6.882 12.925L14.585 12.925M6.907 17.161L18.507 17.161M6.882 21.509L14.585 21.509" transform="translate(-465 -3115) translate(154 2814) translate(293 284) translate(19 17) translate(0 14)"/>
                        </g>
                        <g>
                            <g transform="translate(-465 -3115) translate(154 2814) translate(293 284) translate(19 17) scale(-1 1) rotate(-7 10.35 359.347)">
                                <path d="M11.742 18.297L13.26 16.78"/>
                                <circle cx="20.212" cy="9.788" r="9.038" fill="#FFF"/>
                                <path d="M14.512 11.306L18.506 7.981 22.021 11.684 25.528 8.651"/>
                                <path d="M22.965 7.981L25.528 8.651 25.528 10.877"/>
                                <path d="M11.186 21.343H2.542c-.495 0-.943.2-1.267.525-.324.325-.525.773-.525 1.268s.2.943.525 1.267c.324.324.772.525 1.267.525h8.644c.495 0 .943-.2 1.268-.525.324-.324.525-.772.525-1.267 0-.495-.2-.943-.525-1.268-.325-.324-.773-.525-1.268-.525z" transform="rotate(-45 6.864 23.136)"/>
                                <path d="M7.817 18.911L10.966 22.31"/>
                            </g>
                        </g>
                    </g>
                </g>
            </g>
        </g>
    </g>
</svg>
