<svg xmlns="http://www.w3.org/2000/svg" xmlns:xlink="http://www.w3.org/1999/xlink" width="543" height="392" viewBox="0 0 543 392">
    <defs>
        <circle id="bg6ghkidta" cx="230" cy="130" r="63"/>
        <circle id="sun01p7d3b" cx="231" cy="131" r="93"/>
        <circle id="go7gx98ctc" cx="232" cy="129" r="118"/>
        <mask id="4jjdrqmaxd" width="126" height="126" x="0" y="0" fill="#fff" maskContentUnits="userSpaceOnUse" maskUnits="objectBoundingBox">
            <use xlink:href="#bg6ghkidta"/>
        </mask>
        <mask id="rl2f3xoq0e" width="186" height="186" x="0" y="0" fill="#fff" maskContentUnits="userSpaceOnUse" maskUnits="objectBoundingBox">
            <use xlink:href="#sun01p7d3b"/>
        </mask>
        <mask id="0blu58l6af" width="236" height="236" x="0" y="0" fill="#fff" maskContentUnits="userSpaceOnUse" maskUnits="objectBoundingBox">
            <use xlink:href="#go7gx98ctc"/>
        </mask>
        <linearGradient id="6zp840qlxg" x1="50.001%" x2="50.001%" y1="100.019%" y2="-.003%">
            <stop offset="0%" stop-color="gray" stop-opacity=".25"/>
            <stop offset="54%" stop-color="gray" stop-opacity=".12"/>
            <stop offset="100%" stop-color="gray" stop-opacity=".1"/>
        </linearGradient>
        <linearGradient id="kpe3hhdfih" x1="49.98%" x2="49.98%" y1="99.983%" y2=".001%">
            <stop offset="0%" stop-color="gray" stop-opacity=".25"/>
            <stop offset="54%" stop-color="gray" stop-opacity=".12"/>
            <stop offset="100%" stop-color="gray" stop-opacity=".1"/>
        </linearGradient>
    </defs>
    <g fill="none" fill-rule="evenodd">
        <g>
            <g>
                <g transform="translate(-129 -1006) translate(129 1006)">
                    <path fill="#ECF0F7" d="M343.633 53.559c-22.27 18.884-51.155 17.663-76.468 7.835-25.313-9.827-48.566-27.316-73.228-39.75C173.26 11.22 151.564 4.375 129.602 1.33c-31.433-4.358-66.535.962-88.434 31.478-24.389 33.998-22.515 95.317 3.852 126.506 13.42 15.874 30.99 23.666 46.312 36.076 15.321 12.41 29.511 32.979 28.206 56.904-1.208 22.127-15.254 39.14-29.79 49.804-11.234 8.24-25.068 17.24-26.421 34.31-1.31 16.514 10.324 29.458 21.432 36.818 36.238 24.007 80.894 23.776 117.007-.606 12.875-8.702 24.701-20.275 38.208-27.048 35.463-17.797 74.542.116 112.095 6.672 31.78 5.546 64.373 2.67 95.34-8.408 18.595-6.653 37.263-16.836 50.327-35.768 9.423-13.661 15.292-30.954 20.8-48.03 5.875-18.204 11.523-36.54 16.945-55.008 3.25-11.088 6.452-22.387 7.295-34.244 1.522-21.491-4.892-42.738-13.627-60.872-20.738-43.065-55.667-73.345-93.495-81.036-37.827-7.691-77.845 7.33-107.184 40.203"/>
                    <use stroke="#1A325F" stroke-dasharray="3" stroke-width="4" mask="url(#4jjdrqmaxd)" xlink:href="#bg6ghkidta"/>
                    <use stroke="#1A325F" stroke-dasharray="3" stroke-width="4" mask="url(#rl2f3xoq0e)" xlink:href="#sun01p7d3b"/>
                    <use stroke="#1A325F" stroke-dasharray="3" stroke-width="4" mask="url(#0blu58l6af)" xlink:href="#go7gx98ctc"/>
                    <ellipse cx="260.098" cy="255.86" fill="#6C63FF" fill-rule="nonzero" opacity=".1" rx="109.208" ry="5.2"/>
                    <ellipse cx="495.676" cy="193.975" fill="#6C63FF" fill-rule="nonzero" opacity=".1" rx="6.761" ry="2.6"/>
                    <path fill="#FFF" fill-rule="nonzero" d="M181.841 128.97H57.538c-3.583.01-6.485 2.876-6.496 6.413v77.535c.01 3.538 2.913 6.403 6.496 6.414h97.508s2.53 13.238-5.774 14.66c0 0 18.588 1.316 15.34-14.66h17.23c3.582-.01 6.483-2.877 6.49-6.414v-77.535c-.007-3.537-2.908-6.403-6.49-6.413z"/>
                    <g fill="#6C63FF" fill-rule="nonzero" opacity=".2" transform="translate(70.804 148.731)">
                        <rect width="99.704" height="6.118" x=".029" y=".29" rx="3.059"/>
                        <rect width="99.704" height="6.118" x=".029" y="27.633" rx="3.059"/>
                        <rect width="83.613" height="6.118" x=".029" y="41.305" rx="3.059"/>
                        <rect width="43.232" height="6.118" x=".029" y="13.962" rx="3.059"/>
                    </g>
                    <path fill="#6C63FF" fill-rule="nonzero" d="M275.334 366.133s-18.253-1.148-16.1 12.158c0 0-.426 2.35 1.622 3.418 0 0 .034-.998 1.871-.648.654.114 1.32.148 1.981.1.897-.065 1.749-.431 2.428-1.044 0 0 5.128-2.206 7.124-10.93 0 0 1.477-1.901 1.439-2.39l-3.08 1.367s1.05 2.311.22 4.233c0 0-.095-4.148-.69-4.048-.12 0-1.598.799-1.598.799s1.809 4.027.442 6.952c0 0 .518-4.961-1.008-6.658l-2.168 1.313s2.115 4.162.681 7.556c0 0 .37-5.206-1.137-7.232l-1.967 1.592s1.991 4.098.777 6.912c0 0-.158-6.059-1.204-6.488 0 0-1.717 1.572-1.976 2.221 0 0 1.358 2.995.513 4.547 0 0-.518-4.038-.96-4.053 0 0-1.712 2.675-1.89 4.492.083-1.695.591-3.338 1.473-4.766-.987.194-1.897.685-2.619 1.412 0 0 .264-1.891 3.042-2.056 0 0 1.439-2.026 1.794-2.151 0 0-2.763-.24-4.438.534 0 0 1.473-1.787 4.946-.998l1.92-1.647s-3.637-.5-5.182.055c0 0 1.775-1.582 5.704-.43l2.11-1.317s-3.098-.694-4.945-.444c0 0 1.948-1.093 5.565.095l1.51-.71s-2.273-.463-2.935-.533c-.662-.07-.7-.265-.7-.265 1.438-.249 2.915-.076 4.264.5 0 0 3.224-1.238 3.171-1.448z"/>
                    <ellipse cx="263.738" cy="382.229" fill="#6C63FF" fill-rule="nonzero" opacity=".1" rx="13.001" ry="1.56"/>
                    <path fill="#6C63FF" fill-rule="nonzero" d="M417.825 351.572s-18.233-1.143-16.103 12.159c0 0-.427 2.35 1.622 3.417 0 0 .034-.998 1.871-.653.656.114 1.323.148 1.987.1.896-.063 1.747-.43 2.423-1.043 0 0 5.134-2.2 7.125-10.922 0 0 1.478-1.906 1.44-2.395l-3.1 1.397s1.05 2.31.226 4.231c0 0-.101-4.15-.691-4.051-.12 0-1.603.798-1.603.798s1.809 4.027.446 6.955c0 0 .518-4.96-1.012-6.66l-2.169 1.317s2.116 4.156.681 7.549c0 0 .37-5.204-1.137-7.23l-1.962 1.582s1.986 4.1.772 6.915c0 0-.158-6.062-1.2-6.516 0 0-1.717 1.576-1.981 2.225 0 0 1.363 2.994.518 4.54 0 0-.518-4.031-.96-4.051 0 0-1.712 2.674-1.89 4.49.083-1.695.593-3.338 1.478-4.764-.989.194-1.9.685-2.625 1.412 0 0 .269-1.886 3.047-2.056 0 0 1.44-2.026 1.795-2.15 0 0-2.764-.24-4.443.533 0 0 1.477-1.786 4.947-.973l1.919-1.646s-3.642-.499-5.182.055c0 0 1.775-1.577 5.705-.43l2.111-1.311s-3.104-.699-4.952-.444c0 0 1.948-1.093 5.571.09l1.511-.704s-2.274-.464-2.94-.539c-.668-.075-.701-.264-.701-.264 1.44-.25 2.919-.077 4.27.499 0 0 3.244-1.253 3.186-1.462z"/>
                    <ellipse cx="405.189" cy="368.708" fill="#6C63FF" fill-rule="nonzero" opacity=".1" rx="13.001" ry="1.56"/>
                    <ellipse cx="433.272" cy="210.096" fill="#6C63FF" fill-rule="nonzero" opacity=".1" rx="37.963" ry="6.24"/>
                    <path fill="url(#6zp840qlxg)" fill-rule="nonzero" d="M475.76 89.733c1.518-5.097 0-10.194 0-10.194v-4.795s1.733-9.403-5.984-15.435l-5.122-4.522s-2.872-2.465-3.7-2.623c-.159-.034-.318-.058-.48-.072l-.153-.086c-.44-.755-.814-1.546-1.12-2.364.672.086 1.345-.144 1.824-.623.185-.213.33-.456.431-.72.297-.666.345-1.472.598-2.181.222-.577.546-1.108.958-1.568-.053.086-.105.167-.153.254.723-.902 1.67-1.679 2.345-2.633.137-.187.261-.382.374-.585l-.1.12c.957-1.515 1.23-3.356 1.503-5.121.131-.603.14-1.225.028-1.832-.13-.403-.301-.792-.512-1.16-1.11-2.302-1.087-5.188-2.872-7.025-1.336-1.376-3.351-1.798-5.266-2.033-1.915-.235-3.912-.37-5.549-1.371-.459-.347-.965-.627-1.503-.83-.561-.195-1.182.037-1.48.552-.033.146-.1.282-.196.398-.174.1-.385.113-.57.033l-2.537-.68.03.129h-.063l.09.403c.082 0 .168 0 .24.139l-.407.628c-.787-.015-1.565-.177-2.293-.48-.002.042-.002.083 0 .125h-.033c-.048.72.766 1.184 1.015 1.86.1.296.1.616 0 .911-.106.275-.27.523-.48.73-.904.891-2.053.714-3.092 1.28-.182.075-.32.228-.378.417-.04.07-.051.152-.033.23.04.108.114.2.21.264.303.244.634.45.986.613l-.296.288c-2.67 2.722-3.8 6.603-3.01 10.336.789 3.733 3.393 6.821 6.935 8.226.038.196.067.398.096.613v.058l.029.273-3.423 1.439c-1.053-.008-2.007-.622-2.451-1.578-.795-1.65-3.605 0-3.605 0s-8.584-.647-11.758.935c0 0-5.122-2.153-5.84-2.297-.718-.143-1.805-.719-2.312-.575-.508.144-1.154-.959-1.513-.863-.36.096-.479-.715-1.657-1.002-1.177-.288-1.589.072-2.872-1.223-1.283-1.295-11.83-6.387-11.83-6.387l-4.758-3.88-5.05-4.017-.092.167c-.028-.12-.062-.244-.095-.374-.497-2.004-1.122-3.974-1.872-5.897-.326-.777-.479-1.76-.905-1.242-.268.311-.728-.37-1.436-.83-.295-.206-.668-.268-1.014-.167-.346.1-.628.352-.767.685-3.93 6.171-5.338 6.617-3.059 8.876 2.025 2.013 3.375 3.792 5.031 4.315l.197.062c-.037.008-.074.008-.11 0l9.574 11.484s6.923 6.033 11.686 7.97c4.763 1.937 4.4 2.512 4.4 2.512s14.424 7.322 16.66 7.193c2.235-.13 1.804 15.004.866 17.444-.939 2.44-2.451 20.101-2.451 20.101s-1.437 3.73.071 6.315c0 0 .336 4.949.034 6.133-1.317 2.028-3.188 5.471-3.495 9.015 0 .187-.038.364-.057.546-.096.112-.211.207-.34.278 0 0 .124-.029.32-.096-.142 1.472-.464 2.922-.957 4.316-.767 1.989-1.166 4.101-1.178 6.233v11.408l-.952 7.072s-1.154 5.356 0 6.603c.49.623.716 1.413.632 2.201-.049.914.21 1.817.737 2.565.406.446.583 1.055.479 1.65-.383 1.242.565 14.447.565 14.447s-.278 3.64-.661 3.836c-.383.197.641 4.182.641 4.182s-3.896 3.255-2.905 4.982l.995 1.53-.263.258-.163.163c-.3-.173-.649-.24-.99-.187-1.224 1.257-2.534 2.425-3.922 3.496-1.756 1.27-6.539 3.112-6.539 3.112l-3.772.307h-.072s-1.805-.168-.795 2.632c1.01 2.8 10.053 1.918 10.053 1.918l5.266-.834s9.422.043 12.117-.552c1.13-.254 1.398-.853 1.326-1.467l-.029-.029c-.127-.582-.392-1.126-.77-1.587-.02-.029-.043-.056-.067-.081l.172-1.918c3.997-2.307-1.13-6.848-1.13-6.848s1.752-3.836 2.657-5.068c.905-1.232.9-19.525.9-19.525s.479-6.608-.77-8.152c-.044-1.014.473-1.97 1.345-2.489.89-.608 3.58-8.995 5.692-15.957l1.33 8.204s-.287 3.922.58 5.073c.325.437.454.99.354 1.525-.21 1.107-.143 2.249.196 3.323.097.458.34.873.695 1.18.77.383.818 1.75 1.105 2.037.288.288 2.069-.407 2.164.643.055.924.055 1.852 0 2.776l.58 17.037s-.958 1.438-1.154 5.169c-.082 1.611-.383 2.527-.694 3.05-.355.576-.297 1.317.143 1.831l.168.192-.713.551c-.583.454-.767 1.255-.44 1.918-.47.41-.646 1.064-.446 1.655.034.092.076.182.124.268-.54.086-1.04.333-1.436.71-.71.979-1.565 1.842-2.537 2.56-1.413 1.081-2.766 2.24-4.05 3.472-.604.838-1.42 1.5-2.365 1.918-.23.093-.47.164-.713.211-1.915.388-1.298 2.374.239 2.685 1.537.312 6.635 1.89 10.604.96 0 0 1.177.479 2.906-.403 1.728-.883 5.663-1.918 5.663-1.918s2.164 0 2.451-.864c.077-.273.12-.555.125-.839l.062-.057-.058-.053c.005-.642-.044-1.284-.148-1.918-.053-.326-.115-.623-.172-.858-.187-.72-.527-1.645-.675-2.038.025-.032.047-.066.067-.1.823-1.396-.546-4.796-.546-4.796.453-.712 1.003-1.357 1.632-1.918.771-.57 2.791-15.502 2.791-15.502s-.095-3.836.958-5.553-1.436-12.155-1.436-12.155-1.058-2.398-.67-3.256c.387-.858-.388-4.018-.388-4.018v-3.77c-.001-.45-.076-.896-.22-1.323-.297-.887-.738-2.589-.26-3.836.676-1.721 2.213-12.347 2.213-12.347s-1.202-4.685.555-8.415c.142-.299.301-.589.479-.868 1.302-2.052.914-5.696.273-8.631-.101-.456-.206-.892-.312-1.31-.047-.177-.095-.344-.138-.512l.205-.086s0-.283.063-.758c1.44-.28 2.697-1.15 3.47-2.398 0 0 4.4-4.953 8.297-7.034 3.897-2.08 4.184-5.097 4.184-5.097-.58-1.007 1.03-5.097 1.03-5.097l-.164-4.426zm-12.672 6.603l-4.164 4.838c-.002-.01-.002-.02 0-.029-1.082-1.505 1.01-4.881 1.01-4.881l3.442-7.725c-.029.997-.149 1.87-.45 2.283-.958 1.294 1.728 3.447 1.728 3.447-1.441-.014-1.585 2.067-1.585 2.067h.02z"/>
                    <path fill="#CC818C" fill-rule="nonzero" d="M389.068 32.108l-2.363 4.295c-.75-.058-1.49-.202-2.203-.43-2.287-.643-4.17-2.17-5.175-4.196-2.114-4.375 1.386-7.2 3.016-8.03 1.63-.83 3.14-1.787 4.362.932.77 1.86 1.412 3.763 1.924 5.699.27 1.035.44 1.73.44 1.73zM461.874 55.15l-3.79 5.185s-17.925 7.84-14.496-1.375c1.5-4.058 1.685-7.029 1.415-9.083v-.055c-.35-2.567-1.405-3.667-1.405-3.667s17.47-8.197 14.872-2.59c-.53 1.165-.743 2.432-.62 3.69.216 1.812.859 3.56 1.884 5.121.61.988 1.327 1.917 2.14 2.774z"/>
                    <path fill="#1A325F" fill-rule="nonzero" d="M456.144 163.363s2.517 10.435 1.464 12.159c-1.054 1.723-.976 5.55-.976 5.55s-2.034 14.94-2.81 15.514c-.635.565-1.189 1.215-1.644 1.93 0 0 1.38 3.38.551 4.78-.125.216-.319.385-.551.482-1.298.54-6.088-1.859-8.816-3.33-.343-.182-.602-.488-.722-.855-.208-.588-.032-1.243.444-1.65-.33-.667-.146-1.472.444-1.932l.717-.55-.165-.193c-.445-.516-.504-1.256-.147-1.834.312-.521.615-1.448.698-3.046.195-3.736 1.16-5.17 1.16-5.17l-.58-17.043c.053-.924.053-1.85 0-2.775-.097-1.053-1.888-.358-2.175-.647-.288-.29-.342-1.65-1.113-2.037-.358-.306-.604-.72-.702-1.178-.342-1.075-.41-2.217-.2-3.325.1-.536-.029-1.088-.356-1.526-.874-1.149-.58-5.073-.58-5.073l-1.338-8.205c-2.127 6.965-4.834 15.354-5.727 15.962-.88.52-1.401 1.477-1.356 2.49 1.258 1.53.775 8.139.775 8.139s0 18.284-.907 19.529c-.907 1.245-2.673 5.073-2.673 5.073s5.186 4.566 1.107 6.869l-.044.024c-4.161 2.297-12.772-4.113-12.772-4.113l.898-.888.263-.26-.975-1.535c-1-1.724 2.927-4.977 2.927-4.977s-1.044-4.02-.659-4.214c.386-.193.659-3.832.659-3.832s-.952-13.211-.566-14.452c.115-.59-.054-1.201-.459-1.65-.527-.75-.788-1.652-.741-2.564.085-.787-.142-1.576-.634-2.2-1.162-1.246 0-6.609 0-6.609l.975-7.085V135.83c0-2.164.396-4.31 1.171-6.333.585-1.644.939-3.359 1.054-5.097.317-3.63 2.288-7.159 3.615-9.171.702-1.062 1.224-1.7 1.224-1.7l30.964-1.201s.488 1.366.976 3.263c.107.415.214.85.312 1.308.649 2.944 1.04 6.588-.273 8.645-.184.275-.347.564-.488.864-1.77 3.73-.561 8.418-.561 8.418s-1.547 10.619-2.225 12.351c-.487 1.222-.039 2.925.264 3.814.143.426.217.873.22 1.322v3.77s.775 3.157.39 4.02c-.386.865.663 3.259.663 3.259z"/>
                    <path fill="#000" fill-rule="nonzero" d="M458.095 125.945c-.137.303-.26.62-.37.945l-1.32-.106c.126-.971-.772-10.079-.772-10.079l2.661-.216c.495 3.242.795 7.233-.2 9.456z" opacity=".1"/>
                    <path fill="#444053" fill-rule="nonzero" d="M458.094 125.945c-.14.302-.263.617-.37.945l-1.322-.106c.13-.971-.769-10.084-.769-10.084l2.657-.211c.502 3.22.798 7.207-.196 9.456z"/>
                    <path fill="#3A60A0" fill-rule="nonzero" d="M458.094 125.945c-.14.302-.263.617-.37.945l-1.322-.106c.13-.971-.769-10.084-.769-10.084l2.657-.211c.502 3.22.798 7.207-.196 9.456z" opacity=".628"/>
                    <path fill="#000" fill-rule="nonzero" d="M452.513 203.448c-.129.158-.329.28-.568.351-1.338.393-6.277-1.35-9.088-2.42-.355-.132-.621-.355-.745-.621 1.6-.204 2.65 1.052 2.65 1.052.54-.237 1.195-.311 1.814-.206.62.105 1.152.38 1.476.764 1.373 1.403 4.315.814 4.315.814s.06.094.146.266z" opacity=".1"/>
                    <path fill="#2F2E41" fill-rule="nonzero" d="M453.429 208.762c-.275.836-2.317.836-2.317.836s-3.662 1.075-5.292 1.911c-1.63.836-2.747.394-2.747.394-3.749.888-8.56-.647-10.012-.939-1.451-.29-2.023-2.234-.229-2.605.23-.048.456-.119.673-.212.896-.409 1.667-1.057 2.234-1.878 1.214-1.197 2.49-2.325 3.823-3.38.92-.697 1.73-1.537 2.399-2.488 2.133-1.935 3.662.723 3.662.723.492-.317 1.087-.417 1.651-.276.564.14 1.049.51 1.343 1.022 1.25 1.878 3.928 1.09 3.928 1.09s.458 1.258.705 2.164c.055.23.115.521.165.84.18.924.184 1.873.014 2.798z"/>
                    <circle cx="446.793" cy="202.296" r="1" fill="#575988" fill-rule="nonzero"/>
                    <circle cx="444.712" cy="204.376" r="1" fill="#575988" fill-rule="nonzero"/>
                    <circle cx="443.672" cy="206.456" r="1" fill="#575988" fill-rule="nonzero"/>
                    <circle cx="443.672" cy="205.416" r="1" fill="#575988" fill-rule="nonzero"/>
                    <circle cx="445.753" cy="203.336" r="1" fill="#575988" fill-rule="nonzero"/>
                    <path fill="#DCE6F2" fill-rule="nonzero" d="M453.437 209.215c-.274.98-2.317.98-2.317.98s-3.664 1.26-5.294 2.24c-1.63.979-2.748.462-2.748.462-3.751 1.04-8.564-.76-10.016-1.1-1.452-.342-2.024-2.62-.23-3.055.231-.056.457-.139.674-.247 1.585.649 3.24 1.02 4.914 1.1 3.7.187 6.632 0 6.632 0l3.746-1.447c.71-.519 1.497-.863 2.318-1.013.825-.2 1.605-.61 2.29-1.2.185 1.081.196 2.195.031 3.28z"/>
                    <path fill="#575988" fill-rule="nonzero" d="M443.792 210.096c-.215 0-.43-.02-.64-.059l.057-.243c.783.109 1.585.01 2.306-.285.343-.122.687-.264 1.021-.42.334-.155.8-.335 1.214-.473l.382-.118c.211-.063.423-.125.625-.205.118-.042.231-.092.344-.139.274-.128.565-.227.866-.293.155-.027.313-.045.47-.055.143-.008.284-.024.424-.046.28-.06.553-.15.81-.268.276-.126.568-.221.87-.285l.207-.034c.22-.004.432-.074.603-.197l.202.172c-.213.164-.481.26-.762.273l-.193.029c-.281.06-.553.15-.81.268-.276.126-.569.221-.87.285-.156.028-.313.045-.471.05-.147.01-.293.027-.438.051-.278.063-.547.156-.8.277l-.353.142c-.216.08-.433.147-.65.21l-.371.118c-.405.134-.805.302-1.195.46-.391.16-.683.29-1.036.42-.573.222-1.187.346-1.812.365z" opacity=".5"/>
                    <path fill="#000" fill-rule="nonzero" d="M444.192 164.333s2.02-2.799 5.47-2.752c3.451.047 4.931-.369 4.931-.369s-2.21 1.246-3.74 1.4c-1.529.154-6.66 1.72-6.66 1.72zM446.273 164.333s1.964-.9 3.088-.936c1.125-.035 2.112-.104 2.112-.104-.526.245-1.11.432-1.726.555-.961.174-3.474.485-3.474.485zM446.273 165.373s2.061.241 2.08 1.04M421.31 125.85c.162.024 2.938-2.583 3.132-3.614.155-.65.59-1.22 1.211-1.587 0 0 1.794.64.194 2.598-1.599 1.958-4.536 2.603-4.536 2.603zM459.524 43.87c-.588 1.434-1.108 1.54-.995 2.931-.686.746-1.474 1.385-2.34 1.896-1.83 1.12-3.818 3.307-6.096 3.307-1.524.003-3.035-.29-4.453-.865-.36-2.973-1.448-4.247-1.448-4.247s18.001-9.514 15.332-3.021z" opacity=".1"/>
                    <path fill="#CC818C" fill-rule="nonzero" d="M461.874 39.003c0 6.031-4.89 10.92-10.921 10.92-6.032 0-10.92-4.889-10.92-10.92s4.888-10.92 10.92-10.92c2.897-.002 5.675 1.148 7.723 3.196 2.049 2.049 3.199 4.827 3.198 7.724z"/>
                    <path fill="#000" fill-rule="nonzero" d="M461.874 55.178l-3.79 5.168s-17.925 7.812-14.496-1.371c1.5-4.044 1.685-7.004 1.415-9.051h.03c.212.678.33 1.378.355 2.083.055 1.408.095 3.199 3.924 3.783 6.383.983 9.812-2.668 10.412-3.385.613.988 1.333 1.917 2.15 2.773zM391.148 31.253l-2.575 5.15c-.819-.07-1.625-.242-2.402-.515l-.223-.274c1.054.414 4.608-6.492 4.608-6.492l.114.095c.294 1.203.478 2.036.478 2.036zM457.713 114.801c-7.228 3.465-32.242.521-32.242.521.078-.293.12-.596.127-.901.68-1.147 1.185-1.835 1.185-1.835l29.967-1.297s.487 1.464.963 3.512z" opacity=".1"/>
                    <path fill="#416BB3" fill-rule="nonzero" d="M445.733 50.483l-3.404 1.436c-1.05-.011-2-.623-2.44-1.57-.785-1.638-3.582 0-3.582 0s-8.538-.642-11.691.929c0 0-5.091-2.141-5.786-2.28-.694-.139-1.793-.713-2.295-.57-.501.144-1.147-.929-1.504-.857-.357.072-.506-.714-1.654-.996-1.147-.283-1.576.072-2.868-1.212-1.292-1.283-11.76-6.34-11.76-6.34l-4.734-3.831-5.019-3.99s-3.158 5.91-4.088 5.556l9.536 11.397s6.885 5.986 11.62 7.907c4.734 1.92 4.372 2.495 4.372 2.495s14.349 7.265 16.571 7.126c2.223-.14 1.794 14.888.858 17.312-.935 2.423-2.434 19.946-2.434 19.946s-1.447 3.701.067 6.268c0 0 .362 5.268 0 6.197 0 0 25.702 2.73 32.992-.479 0 0 1.075-11.824 0-13.323-1.075-1.498 1.008-4.841 1.008-4.841l4.556-10.21L475.23 75.36s1.72-9.334-5.95-15.324l-5.096-4.488s-2.85-2.447-3.679-2.6c-.829-.153-.525 0-.525 0s-3.327 4.789-10.125 3.668c-3.693-.618-3.731-2.485-3.784-3.965-.023-.734-.137-1.463-.338-2.17z"/>
                    <path fill="#000" fill-rule="nonzero" d="M460.834 89.447s-16.47.6-19.762 5.2c0 0 4.267-1.791 8.082-1.267 3.814.524 11.68-3.933 11.68-3.933zM442.112 106.028s7.304.412 8.852-.918c1.549-1.33 1.549-2.142 1.549-2.142l-10.4 3.06zM461.795 73.846s-5.175 7.26 1.119 10.4l-1.12-10.4zM424.43 58.244s2.081 4.875 3.121 5.2l-3.12-5.2zM416.11 56.164s6.132 6.636 7.28 7.28c0 0-6.363-7.28-7.28-7.28zM438.992 52.004s-5.482 8.402-1.913 13.521c-.03 0-2-6.068 1.913-13.521z" opacity=".1"/>
                    <path fill="#CC818C" fill-rule="nonzero" d="M452.513 113.756l-1.766 1.572-.248.22-2.044 1.83c-.151.105-.293.21-.439.305-8.328 5.652-9.998-2.933-9.998-2.933s-3.68 2.274-4.205.425c-.524-1.849 8.58-4.476 9.908-4.333.12.012.243.012.363 0 .657-.104 1.289-.316 1.868-.626.136-.066.272-.133.404-.205.463-.245.913-.513 1.347-.803l4.81 4.548z"/>
                    <path fill="#000" fill-rule="nonzero" d="M461.86 39.269c0 3.945-2.139 7.598-5.629 9.615-.159-.262-.299-.533-.419-.814-.413-.946-.667-1.934-1.08-2.87-.468-1.023-1.128-1.952-1.948-2.739-.13-.152-.298-.271-.487-.345-.377-.05-.759.053-1.056.284-.488.323-1.032.555-1.607.685-.585.129-1.197-.051-1.611-.473-.448-.52-.385-1.286-.253-1.953.277-1.456.75-2.885.75-4.365 0-1.48-.575-3.079-1.9-3.812-1.168-.643-2.619-.473-3.919-.828-.2-.052-.398-.118-.589-.198 3.272-3.256 8.247-4.263 12.585-2.548 4.338 1.715 7.175 5.811 7.177 10.36h-.015z" opacity=".1"/>
                    <path fill="#2D293D" fill-rule="nonzero" d="M440.417 28.898c-.21.11-.437.306-.374.536.039.108.112.2.209.263.534.426 1.153.739 1.816.918 1.297.344 2.75.182 3.915.837 1.316.741 1.9 2.352 1.894 3.85-.005 1.496-.485 2.945-.753 4.413-.126.679-.194 1.434.258 1.98.414.424 1.024.605 1.607.478.572-.13 1.114-.364 1.598-.689.297-.234.678-.338 1.054-.287.198.072.375.19.515.345.82.795 1.479 1.736 1.943 2.773.418.956.67 1.951 1.078 2.903.363.978 1.047 1.81 1.943 2.362.93.553 2.12.43 2.914-.301.67-.727.651-1.827.972-2.76.573-1.611 2.176-2.625 3.176-4.016 1.127-1.564 1.458-3.539 1.744-5.433.133-.597.143-1.215.03-1.817-.133-.397-.304-.782-.51-1.147-1.118-2.276-1.094-5.14-2.876-6.963-1.34-1.363-3.371-1.779-5.285-2.008-1.913-.23-3.92-.373-5.561-1.363-.46-.343-.967-.62-1.506-.822-.562-.193-1.185.036-1.481.545-.034.146-.102.282-.2.397-.171.097-.38.11-.563.033l-2.545-.674.292 1.262c-.925.036-1.847-.127-2.7-.478-.05.713.767 1.176 1.02 1.841.187.623-.002 1.296-.487 1.736-.942.904-2.098.727-3.137 1.286z"/>
                    <path fill="#000" fill-rule="nonzero" d="M430.671 200.196l-.099 1.086-.042.023c-4.02 2.173-12.34-3.89-12.34-3.89l.868-.84c.285.309.423.72.377 1.132l1.701.092 2.032 2.127s5.5.617 6.99.27h.513z" opacity=".1"/>
                    <path fill="#2F2E41" fill-rule="nonzero" d="M431.414 205.488c-2.693.584-12.13.541-12.13.541l-5.27.823s-9.068.85-10.077-1.901c-1.01-2.752.79-2.59.79-2.59h.068l3.775-.3s4.79-1.816 6.546-3.066c1.387-1.056 2.697-2.206 3.92-3.441 0 0 1.577-.3 1.548 1.488l1.752.095 2.091 2.21s5.662.646 7.196.285h.529l-.243 2.733.068.086c.335.423 1.844 2.51-.563 3.037z"/>
                    <circle cx="419.751" cy="199.175" r="1" fill="#575988" fill-rule="nonzero"/>
                    <circle cx="413.51" cy="202.296" r="1" fill="#575988" fill-rule="nonzero"/>
                    <circle cx="409.35" cy="203.336" r="1" fill="#575988" fill-rule="nonzero"/>
                    <circle cx="414.55" cy="202.296" r="1" fill="#575988" fill-rule="nonzero"/>
                    <circle cx="412.47" cy="203.336" r="1" fill="#575988" fill-rule="nonzero"/>
                    <circle cx="417.67" cy="201.256" r="1" fill="#575988" fill-rule="nonzero"/>
                    <circle cx="418.71" cy="199.175" r="1" fill="#575988" fill-rule="nonzero"/>
                    <path fill="#DCE6F2" fill-rule="nonzero" d="M431.414 207.38c-2.693.658-12.13.61-12.13.61l-5.27.926s-9.068.958-10.077-2.14c-1.01-3.1.79-2.918.79-2.918h.068c.578.824 1.737 1.766 4.018 1.809l6.521.294 6.76-.535s6.307-.214 7.36-.45c.866-.258 1.71-.6 2.523-1.022.335.482 1.844 2.832-.563 3.426z"/>
                    <path fill="#575988" fill-rule="nonzero" d="M414.079 206.976c-.367.001-.733-.036-1.089-.112l.099-.222c.91.165 1.855.13 2.742-.104.327-.07.649-.148.99-.23 1.535-.436 3.165-.59 4.778-.45h.212c2.952.13 5.911.02 8.837-.33.694-.039 1.356-.26 1.89-.632l.214.173c-.579.41-1.298.655-2.055.702-2.95.35-5.934.461-8.91.33h-.208c-.976-.06-1.956-.036-2.926.07-.594.093-1.18.216-1.757.367-.327.083-.654.166-.99.236-.597.13-1.21.199-1.827.202z" opacity=".5"/>
                    <path fill="#000" fill-rule="nonzero" d="M452.513 114.62l-2.089 1.869-5.192-6.326c.549-.29 1.08-.61 1.594-.955l5.687 5.411z" opacity=".1"/>
                    <path fill="#416BB3" fill-rule="nonzero" d="M471.429 69.685l3.296 4.621v4.854s1.508 5.131 0 10.257l.168 4.475s-1.6 4.116-1.026 5.126c0 0-.29 3.034-4.158 5.13-3.87 2.098-8.244 7.04-8.244 7.04s-1.648 3.178-6.09 2.455l-4.231 1.806-4.871-6.281 6.591-3.612s2.293-3.106 3.657-2.96l5.59-6.558s.144-2.092 1.575-2.092c0 0-2.65-2.165-1.72-3.466.93-1.301.144-7.077.144-7.077l9.319-13.718z"/>
                    <path fill="#000" fill-rule="nonzero" d="M464.994 91.664s8.25-.12 9.27 1.544c1.018 1.664-6.756-2.47-9.27-1.544zM451.473 115.776c.002.14-.01.278-.035.415-.211 1.313-1.382 2.307-2.802 2.378h-.16c-1.651 0-2.99-1.25-2.99-2.793.002-.31.057-.617.165-.91-1.413-1.064-1.487-2.968-1.453-3.92.74-.116 1.454-.352 2.108-.698.37.99.865 1.935 1.475 2.815.227-.053.46-.08.695-.08.794-.001 1.556.292 2.119.816.562.524.878 1.235.878 1.977z" opacity=".1"/>
                    <path fill="#575988" fill-rule="nonzero" d="M446.921 110.248s-1.657.38-1.657.686c0 .307-.372 3.094 1.445 4.236 1.818 1.142 1.639-1.592 1.639-1.592s-1.568-2.452-1.427-3.33z"/>
                    <circle cx="448.873" cy="114.929" r="2.6" fill="#E4AAB4" fill-rule="nonzero"/>
                    <circle cx="447.833" cy="115.969" r="1.56" fill="#DCE6F2" fill-rule="nonzero"/>
                    <path fill="#000" fill-rule="nonzero" d="M439.032 117.53s5.444 4.1 12.44 1.502v1.984s-4.664 2.908-8.892 1.147c-4.229-1.761-3.548-4.634-3.548-4.634z" opacity=".1"/>
                    <path fill="#000" fill-rule="nonzero" d="M439.032 116.489s5.459 4.11 12.44 1.494v1.988s-4.664 2.916-8.892 1.15c-4.229-1.765-3.548-4.632-3.548-4.632z" opacity=".1"/>
                    <path fill="#444053" fill-rule="nonzero" d="M439.032 116.489s5.459 4.11 12.44 1.494v1.988s-4.664 2.916-8.892 1.15c-4.229-1.765-3.548-4.632-3.548-4.632z"/>
                    <path fill="#3A60A0" fill-rule="nonzero" d="M439.03 116.489s5.445 4.105 12.443 1.505v1.985s-4.68 2.899-8.895 1.149c-4.214-1.75-3.548-4.639-3.548-4.639z" opacity=".628"/>
                    <path fill="#000" fill-rule="nonzero" d="M422.35 195.535s7.785 1.145 8.925 1.392c1.14.248-.314.688-.314.688s-7.13-1.019-8.61-2.08zM420.27 190.335c.143 0 6.014-1.15 7.281-3.12M429.631 164.335s1.745 2.138 2.87 2.077c1.125-.061-1.845-2.158-2.87-2.077zM430.671 169.533s.84 1.4 2.08.952" opacity=".1"/>
                    <path fill="#000" fill-rule="nonzero" d="M435.872 128.99l5.032 13.501s.71-8.687-.792-11.288c-.87-1.514-2.524-2.377-4.24-2.213z" opacity=".05"/>
                    <g fill="#000" fill-rule="nonzero" opacity=".1">
                        <path d="M6.48.778l-.043-.19-.816-.213.091.394c.256.02.513.023.768.01zM4.244 3.952l.086-.076c.478-.435.665-1.101.48-1.717-.098-.234-.235-.45-.403-.64-.403-.076-.797-.19-1.176-.342-.048.706.758 1.162 1.008 1.826.111.307.113.641.005.949zM17.733 25.647c-.885-.55-1.56-1.374-1.92-2.343-.409-.95-.653-1.945-1.066-2.88-.458-1.028-1.11-1.96-1.92-2.747-.136-.156-.31-.275-.504-.346-.373-.051-.75.052-1.042.284-.482.323-1.018.556-1.584.688-.577.123-1.178-.056-1.59-.474-.44-.522-.378-1.29-.249-1.96.279-1.46.74-2.898.744-4.383C8.607 10 8.031 8.402 6.725 7.69c-1.152-.65-2.582-.474-3.84-.83-.656-.176-1.268-.487-1.795-.91l-.101-.09c-.107.042-.211.091-.312.146-.207.11-.427.304-.37.527.042.108.115.2.211.265.53.421 1.14.73 1.796.907 1.281.346 2.712.185 3.864.835 1.306.73 1.877 2.334 1.877 3.795 0 1.461-.48 2.922-.744 4.379-.13.669-.192 1.423.25 1.96.409.421 1.011.601 1.589.474.565-.131 1.102-.363 1.584-.683.293-.232.669-.337 1.041-.29.186.076.35.195.48.346.809.79 1.46 1.72 1.92 2.747.413.95.658 1.94 1.066 2.88.354.98 1.03 1.816 1.92 2.372.908.475 2.165.475 2.88-.299.186-.207.33-.447.428-.707-.8.592-1.882.645-2.736.133zM21.832 22.065c.715-.892 1.651-1.65 2.323-2.59.134-.186.257-.38.37-.579-.864 1.087-2.05 1.964-2.693 3.17z" transform="translate(440.032 22.882)"/>
                    </g>
                    <g fill="#000" fill-rule="nonzero" opacity=".1">
                        <path d="M120.705.197H6.117C2.813.205.137 2.865.126 6.15v71.997c.01 3.285 2.687 5.944 5.99 5.952h89.89s2.329 12.296-5.328 13.616c0 0 17.135 1.223 14.142-13.616h15.88c3.303-.008 5.978-2.668 5.986-5.952V6.15c-.008-3.282-2.68-5.942-5.98-5.953z" transform="translate(299.621 30.162)"/>
                        <g opacity=".2" transform="translate(299.621 30.162) translate(16.95 19.265)">
                            <rect width="92.823" height="5.625" x=".044" y=".043" rx="2.813"/>
                            <rect width="76.594" height="5.625" x=".044" y="25.184" rx="2.813"/>
                            <rect width="55.139" height="5.625" x=".044" y="12.613" rx="2.813"/>
                        </g>
                    </g>
                    <path fill="#FFF" fill-rule="nonzero" d="M421.603 29.122H307.66c-3.286.01-5.947 2.678-5.958 5.971v72.16c.011 3.292 2.673 5.958 5.958 5.966h89.383s2.317 12.324-5.297 13.646c0 0 17.038 1.226 14.062-13.646H421.6c3.284-.008 5.944-2.674 5.952-5.966v-72.16c-.008-3.29-2.664-5.957-5.948-5.97z"/>
                    <g fill="#6C63FF" fill-rule="nonzero" opacity=".2" transform="translate(318.343 49.924)">
                        <rect width="92.403" height="5.694" x=".087" y=".01" rx="2.847"/>
                        <rect width="76.247" height="5.694" x=".087" y="25.464" rx="2.847"/>
                        <rect width="54.889" height="5.694" x=".087" y="12.739" rx="2.847"/>
                    </g>
                    <ellipse cx="336.024" cy="378.069" fill="#6C63FF" fill-rule="nonzero" opacity=".1" rx="40.563" ry="6.761"/>
                    <g fill="#000" fill-rule="nonzero" opacity=".1">
                        <path d="M130.586.418H6.642C3.07.428.175 3.302.164 6.85v77.766c.011 3.548 2.905 6.422 6.478 6.433h97.23s2.519 13.277-5.758 14.703c0 0 18.53 1.32 15.29-14.703h17.182c3.573-.01 6.467-2.885 6.477-6.433V6.85c-.01-3.548-2.904-6.422-6.477-6.432z" transform="translate(251.778 175.774)"/>
                        <g opacity=".2" transform="translate(251.778 175.774) translate(18.37 34.563)">
                            <rect width="100.406" height="6.077" x=".039" y="13.657" rx="3.039"/>
                            <rect width="43.537" height="6.077" x=".039" y=".077" rx="3.039"/>
                        </g>
                    </g>
                    <path fill="#FFF" fill-rule="nonzero" d="M381.533 174.733h-124.3c-3.583.011-6.485 2.876-6.496 6.414v77.531c.011 3.538 2.913 6.403 6.496 6.413h97.49s2.526 13.238-5.773 14.664c0 0 18.584 1.316 15.337-14.664h17.246c3.583-.01 6.484-2.875 6.495-6.413v-77.531c-.01-3.538-2.912-6.403-6.495-6.414z"/>
                    <g fill="#6C63FF" fill-rule="nonzero" opacity=".2" transform="translate(268.419 208.016)">
                        <rect width="99.227" height="5.957" x=".406" y="13.748" rx="2.978"/>
                        <rect width="43.025" height="5.957" x=".406" y=".438" rx="2.978"/>
                    </g>
                    <path fill="url(#kpe3hhdfih)" fill-rule="nonzero" d="M356.804 375.087c-.576-2.462-.951-4.626-.951-4.626s.133-2.682-1.06-4.698v-5.629c.338-.9.753-1.768 1.24-2.596.885-1.56 0-7.27 0-7.27s-3.28-8.052-2.481-13.158c.798-5.106-6.737-22.684-6.737-22.684.046-1.694.284-3.379.708-5.02.08-.343.111-.697.095-1.05.003-.043.003-.086 0-.13v.044c-.114-3.36-2.752-9.684-2.752-9.684l.356-12.03s1.683-7.098-1.065-16.623c-.95-3.321-1.573-5.984-1.963-8.033-.043-.236-.086-.48-.124-.672 5.658-.869 9.984-1.593 9.984-1.593s-3.27-13.854-5.486-16.254c-2.216-2.399-3.984-10.077-3.984-10.077s-1.156-9.785.708-12.64c1.864-2.855 2.125-7.788 2.125-7.788s4.279-3.12 4.788-4.501c.508-1.382 1.426-4.501 1.426-6.147s-.533-3.12-.357-3.983c.176-.864-1.24-4.156-.532-5.716.185-.478.282-.988.285-1.502v-.043c.004-1.362-.121-2.722-.375-4.06-1.229-1.047-2.663-1.82-4.208-2.27l-.095-.374-.238-.96c-.142-.095-.28-.177-.418-.254v-.355l-.043-1.406.67-3.157c1.308-5.5-5.961-6.32-5.961-6.32-.44-.843-1.173-1.491-2.059-1.819-1.464-.518-.242 8.268.442 8.83.514.422 2.102 3.176 2.853 4.53l.123.225c-.12.107-.232.224-.332.35l.275 1.92.043.293c-.48.605-.871 1.277-1.16 1.996 0 0 1.331 1.473 1.065 3.12-.266 1.645.404 3.694.438 3.804-.077-.09-1.013-1.113-1.945-.863-.932.25-3.547 1.041-3.547 1.041s-1.949.346-1.768.777c.18.432-1.331 2.337-1.331 2.337l-5.23-5.01c-.047-.148-.105-.297-.152-.455-.223-.716-.382-1.45-.475-2.193.57-.14 1.128-.319 1.673-.538.542-.193 1.031-.514 1.426-.936.528-.633.628-1.492.842-2.279.418-1.54 1.307-2.913 1.944-4.376 1.08-2.466 1.443-5.19 1.046-7.856-.083-.82-.358-1.608-.803-2.298-.856-1.19-2.406-1.67-3.537-2.62-1.132-.95-1.855-2.4-3.167-3.105-1.188-.643-2.638-.567-3.979-.346-2.62.437-5.136 1.361-7.421 2.726-.766.456-1.602.984-2.482.825-.751-.139-1.303-.748-1.792-1.329 0-.024 0-.048.023-.072l-.057-.067c-.537 1.234-.801 2.572-.775 3.92 0 .212 0 .423.024.634v.403c.002.096-.011.191-.038.283-.107.27-.269.513-.475.715-.161.18-.305.377-.428.585.02-.073.043-.145.071-.215-.334.493-.522 1.072-.542 1.67-.03.432.11.86.39 1.19.263.259.55.492.856.695-.747 4.154 1.15 8.337 4.754 10.48.062.15.124.303.18.457.671 1.78 1.175 3.839.952 5.758 0 .144-.038.283-.067.422-.029.14-.128.144-.185.221 0 0-8.648.087-10.688-1.775-2.04-1.862-5.14 4.544-5.14 4.544s-3.099.605-3.717 0c-.618-.605-4.255-.086-4.255-.086-1.48-1.326-3.403-2.036-5.382-1.987-1.21-.929-2.545-1.678-3.965-2.227l-.095-.033c-.623-.229-1.289-.314-1.949-.25 0 0-4.255-3.55-5.496-5.451-1.24-1.9-7.131-8.969-7.174-9.003v-.34l-.066-1.032c-.175.03-.351.046-.528.048-.033-.1-.071-.22-.119-.355-.34-1.003-.76-1.977-1.255-2.913 0 0 0-1.296.376-1.622.375-.326-.157-5.086-.157-5.086s-3.832-9.046-7.265-2.294c0 0-6.49 4.371-1.041 9.458 0 0 2.173 1.06 2.477 1.92.204.547.95 2.073 1.426 3.085l.224.456-.062.053.08.85.034.325c-1.027.59-1.721 1.171-1.555 1.613.303.75.512 1.535.623 2.337 0 0 7.502 9.501 8.477 13.58 0 0 20.2 12.117 26.847 12.98l-1.15 6.061c-.172 1.64-.261 3.286-.267 4.934.086 1.3-.799 7.198-.799 7.198s-1.15 8.637-2.125 9.866c-.974 1.228-.775 6.396-.775 6.396-.235 2.486-.68 4.948-1.33 7.357-.952 3.292-.267 7.361-.267 7.361s-3.366 7.788 4.697 2.51c0 0 3.96-.25 8.52-.408v.48c0 .59 0 1.233-.029 1.92-.062 4.462-.086 10.61.114 15.264.357 8.22 2.853 24.497 2.853 24.497v8.158c-.159.769-.237 1.552-.233 2.337-.055 2.883.702 5.721 2.182 8.187l.623 5.451s1.454 3.594 1.483 5.759c-.007.175-.028.35-.062.523-.055.274-.079.555-.071.835-.081 2.476 1.398 8.397 1.398 8.397s.085 5.975.95 6.32c.756.298-1.012 3.446-1.54 4.348 0-.058 0-.115-.033-.173l-.11.183c-.183.48-.276.991-.275 1.506-.102.834.281 1.652.984 2.102 1.683 1.037 2.586 1.92 1.155 2.25-.525.084-1.046.194-1.56.332l-.075-.202c-.412.17-.653.604-.58 1.047.01.708.19 1.403.527 2.025 1.427 3.205 2.377 4.414 2.377 4.414l.685-.076c-.103.26-.236.508-.395.739-.258.376-.602.683-1.003.897-.37.225-.783.367-1.212.417-.972.033-1.885.482-2.51 1.234-.885 1.156-1.427 2.725.309 4.107l6.337 2.208s10.897 1.44 10.321-1.041c-.575-2.481-.95-4.631-.95-4.631.044-1.508-.258-3.007-.885-4.377-.114-.222-.243-.437-.385-.643l.385-.043s.799-5.456 1.86-6.493c.246-.24.303-.422.242-.566.109-.297-.167-.48-.523-.57l-.076.215c-.349-.077-.704-.117-1.06-.12 0 0-.352-2.855.798-3.892.188-.24.269-.547.224-.849.008-.392-.032-.784-.12-1.166l-.042.067c-.58-2.591-2.544-6.718-2.544-6.718s-.09-2.596.623-3.638c.713-1.04-.09-14.108-.09-14.108s.266-6.32-.533-9.261c-.798-2.942.975-6.407.975-6.407v-.191l.024-.044s-.043-.388-.105-.993v.058c-.18-1.67-.518-4.703-.765-6.104-.357-1.992.085-11.517.085-11.517l1.598-4.07 2.852 7.016 3.014 9.348s1.493 1.972 1.527 3.973c.007.098.007.196 0 .293-.023.209-.034.419-.034.629-.053 1.179.269 2.344.918 3.325 0 0 .799 4.415 2.04 5.543 1.24 1.127 1.24 3.287 1.24 3.287s1.503 6.406 2.216 7.534c.594.96.627 3.556.623 4.352v.235s.209 2.29.2 4.214v.686c-.003-.018-.003-.035 0-.053-.005.525-.067 1.048-.186 1.56 0 0 0 .057-.029.09l.029-.325c-.32 1.306-.48 2.647-.476 3.992-.042 2.303.305 5.03 1.688 6.627 2.377 2.774 3.899 2.428 3.899 2.428s-1.151 3.46-2.572 4.151c-.053.028-.103.062-.148.1 0-.066-.028-.133-.038-.2-.311.352-.462.82-.414 1.29-.104 1.521.847 3.993 1.755 5.13.333.334.746.577 1.198.705l-.224.14c-.154.087-.312.165-.475.235-.23.101-.473.165-.723.187-.973.029-1.887.478-2.51 1.233-.884 1.152-1.426 2.721.31 4.103l6.336 2.208s10.826 1.41 10.25-1.061z"/>
                    <path fill="#2F2E41" fill-rule="nonzero" d="M315.816 379.227l-6.671-2.195c-1.841-1.374-1.252-2.934-.326-4.084.647-.742 1.61-1.19 2.643-1.226.453-.05.89-.192 1.277-.416.417-.216.772-.522 1.034-.892.492-.713.755-1.54.76-2.386 0 0 7.329-1.98 9.31 0 .357.358.656.762.89 1.198.658 1.368.976 2.855.93 4.352 0 0 .378 2.152.977 4.604.6 2.453-10.824 1.045-10.824 1.045zM345.97 376.099l-6.663-2.195c-1.838-1.375-1.255-2.935-.325-4.08.643-.746 1.608-1.194 2.64-1.227.262-.022.519-.085.759-.186.178-.066.35-.144.516-.234 1.86-.954 1.813-3.269 1.813-3.269s7.315-1.98 9.298 0c.27.266.503.561.697.878 1.26 2.005 1.121 4.677 1.121 4.677s.372 2.152.977 4.605c.604 2.453-10.832 1.031-10.832 1.031z"/>
                    <path fill="#000" fill-rule="nonzero" d="M324.78 367.995c.339.344.623.73.843 1.148l-10.4 1.126c.465-.684.714-1.477.72-2.287 0 0 6.942-1.885 8.838.013zM355.786 365.687v1.81c-1.575 2.462-9.22 1.924-11.441.688.165-.063.325-.137.478-.222 1.724-.905 1.68-3.1 1.68-3.1s6.779-1.878 8.617 0c.256.249.48.525.666.824z" opacity=".1"/>
                    <path fill="#1A325F" fill-rule="nonzero" d="M356.441 358.035c-.482.84-.896 1.716-1.235 2.621v6.904c-1.758 2.907-10.918 1.938-12.153.349-1.235-1.59-2.554-5.678-1.143-6.376 1.411-.698 2.554-4.196 2.554-4.196s-1.499.35-3.877-2.446c-2.378-2.796-1.675-9.002-1.23-10.49.444-1.487 0-6.468 0-6.468s.088-3.493-.62-4.631c-.708-1.14-2.203-7.602-2.203-7.602s0-2.185-1.23-3.324c-1.23-1.138-2.026-5.59-2.026-5.59-.726-1.113-1.041-2.44-.894-3.756.269-2.185-1.494-4.544-1.494-4.544l-2.993-9.438-2.822-7.079-1.573 4.104s-.444 9.612-.087 11.628c.356 2.015.878 7.34.878 7.34s-1.762 3.498-.976 6.468c.786 2.97.527 9.35.527 9.35s.791 13.198.088 14.245c-.703 1.046-.615 3.672-.615 3.672s3.608 7.69 2.441 8.721c-1.167 1.032-.796 3.934-.796 3.934s2.442 0 1.411 1.047c-1.03 1.046-1.801 6.57-1.801 6.57l-10.65 1.22s-.976-1.22-2.387-4.457c-1.411-3.236.264-2.907 1.684-3.231 1.421-.325.518-1.226-1.152-2.273-1.67-1.046-.708-3.391-.708-3.391s2.554-4.283 1.675-4.637c-.879-.353-.977-6.376-.977-6.376s-1.762-7.17-1.323-9.089c.44-1.918-1.411-6.555-1.411-6.555l-.615-5.509c-1.889-3.12-2.582-6.811-1.953-10.397v-8.493s-2.442-16.43-2.818-24.734c-.224-5.33-.16-12.572-.087-17.103.043-2.538.087-4.22.087-4.22l38.061-3.943c.058 1.885.289 3.761.689 5.605.385 2.074.976 4.758 1.953 8.116 2.73 9.612 1.054 16.778 1.054 16.778l-.351 12.15s3.35 8.126 2.641 10.926c-.421 1.659-.657 3.358-.703 5.068 0 0 7.485 17.742 6.694 22.897-.79 5.155 2.442 13.285 2.442 13.285s.903 5.775.024 7.35z"/>
                    <path fill="#000" fill-rule="nonzero" d="M334.984 312.363l11.44-1.379s-6.479 5.983-11.44 1.379z" opacity=".05"/>
                    <path fill="#000" fill-rule="nonzero" d="M344.87 298.503s.292 3.778-1.565 5.2c.003 0 3.327-.652 1.564-5.2zM343.305 286.022s-9.58 9.007-13.044 8.279c-3.463-.729 13.044-8.279 13.044-8.279zM320.423 316.184s-8.075 1.637-8.316 4.531c-.241 2.895 8.316-4.53 8.316-4.53z" opacity=".1"/>
                    <path fill="#000" fill-rule="nonzero" d="M322.713 352.587s-11.124 1.803-7.966 3.006c3.157 1.203 8.363 2.194 8.363 2.194s3.565.162-.397-5.2z" opacity=".05"/>
                    <g fill="#000" fill-rule="nonzero" opacity=".05">
                        <path d="M8.69 97.866c-.52-.33-.865-.876-.936-1.488l-.106.183s-.964 2.345.694 3.37c.193.12.372.241.536.357.308-.058.636-.101.964-.179 1.389-.337.502-1.203-1.152-2.243zM21.912 97.168c.285-.26.275-.93.101-1.786-.419.77-.62 1.641-.583 2.518.107-.275.272-.525.482-.732zM20.335 53.964c-.38 1.026-.614 2.1-.694 3.192.196-.755.463-1.49.795-2.195 0 0-.038-.39-.1-.997zM43.853 49.405c.071-.316.103-.64.096-.963-.13.645-.221 1.247-.284 1.776.034-.255.096-.53.188-.813zM20.084 84.838c.2-.621.288-1.273.26-1.925-.314.773-.478 1.6-.481 2.436.053-.179.127-.35.221-.51zM22.24 101.212c-.54 1.743-.94 3.527-1.196 5.334l-10.517 1.218s-.965-1.218-2.358-4.429c-.12-.284-.217-.534-.294-.765-.632.288-.878.962-.053 2.85 1.393 3.21 2.353 4.429 2.353 4.429l10.531-1.218s.782-5.47 1.823-6.514c.507-.51.179-.77-.29-.905zM8.342 85.618s.087 5.994.965 6.34c.439-.991.733-1.925.342-2.089-.873-.346-.964-6.34-.964-6.34s-1.736-7.12-1.302-9.032c.434-1.911-1.394-6.514-1.394-6.514l-.607-5.469c-1.868-3.101-2.553-6.771-1.93-10.336v-8.425S1.043 27.427.67 19.2C.448 13.904.511 6.682.583 2.205c0-.814.025-1.536.04-2.142l-.3.028S.275 1.762.236 4.29C.16 8.786.096 15.998.323 21.28.67 29.53 3.105 45.856 3.105 45.856v8.425c-.624 3.565.061 7.235 1.93 10.336l.612 5.436s1.827 4.602 1.393 6.513c-.434 1.912 1.302 9.051 1.302 9.051zM39.31 105.42c-.854-1.235-1.422-2.645-1.663-4.126-1.076.963.159 4.723 1.316 6.21 1.215 1.56 10.262 2.518 12.003-.346v-1.656c-2.354 2.33-10.489 1.396-11.656-.082zM52.533 95.608c-.48.832-.888 1.703-1.22 2.605v1.208c.198-.448.482-1.04.873-1.743.277-.68.407-1.412.38-2.147-.014.024-.026.05-.033.077zM39.846 96.975c.332-.668.618-1.358.858-2.065 0 0-1.48.347-3.829-2.407-1.712-2.022-1.808-5.84-1.562-8.334-.439 1.473-1.133 7.64 1.215 10.418 1.538 1.796 2.696 2.273 3.318 2.388zM35.308 77.718c.153 1.711.211 3.43.174 5.147.044-.273.104-.543.178-.81.439-1.472 0-6.422 0-6.422s.087-3.476-.608-4.602c-.694-1.127-2.174-7.559-2.174-7.559s0-2.17-1.216-3.298c-1.215-1.126-2-5.56-2-5.56-.715-1.106-1.024-2.424-.874-3.731.26-2.171-1.475-4.516-1.475-4.516l-2.96-9.383-2.783-7.034-1.568 4.083s0 .515-.053 1.319l1.273-3.317 2.783 7.033 2.97 9.384s1.741 2.344 1.48 4.515c-.15 1.307.159 2.626.874 3.732 0 0 .78 4.429 1.996 5.56 1.215 1.131 1.22 3.298 1.22 3.298s1.48 6.427 2.175 7.558c.694 1.132.588 4.603.588 4.603z" transform="translate(303.782 258.98)"/>
                    </g>
                    <path fill="#FFCDD3" fill-rule="nonzero" d="M346.259 177.337l-.706 3.022.042 1.345.03.997-3.906.353-.435-.716c-.81-1.295-2.485-3.93-3.03-4.335-.721-.537-2.008-8.945-.462-8.449.944.324 1.718.945 2.174 1.745 0 0 7.673.799 6.293 6.038z"/>
                    <path fill="#000" fill-rule="nonzero" d="M345.385 182.844l-2.807.21-.313-.425c.779-.647 2.075-.804 3.097-.373l.023.588z" opacity=".1"/>
                    <path fill="#DCE6F2" fill-rule="nonzero" d="M346.425 184.265l-4.826.87-.098-.56-.277-1.513s1.91-1.981 4.671-.495l.238.756.292.942z"/>
                    <path fill="#FFCDD3" fill-rule="nonzero" d="M268.419 179.167l-5.05 2.847-.477-1.002c-.476-1.058-1.196-2.651-1.392-3.223-.3-.877-2.408-2.004-2.408-2.004-5.288-5.313 1.01-9.878 1.01-9.878 3.339-7.052 7.053 2.395 7.053 2.395s.515 4.977.153 5.313c-.363.335-.367 1.694-.367 1.694.483.978.892 1.995 1.22 3.042.177.506.258.816.258.816z"/>
                    <path fill="#000" fill-rule="nonzero" d="M268.419 177.525l-4.752 2.409-.449-.848c.669-.526 3.052-2.35 3.832-2.27.374.044.751.054 1.127.03.166.416.242.679.242.679z" opacity=".1"/>
                    <path fill="#DCE6F2" fill-rule="nonzero" d="M270.499 178.97l-7.038 3.044-.142-1.328-.1-.918s4.08-3.065 5.287-2.951c.61.078 1.23.078 1.84 0l.076 1.11.077 1.042z"/>
                    <path fill="#FFCDD3" fill-rule="nonzero" d="M331.864 197.97s-24.874 2.777-20.222 1.285c3.234-1.043 4.518-3.076 4.79-5.337.216-1.895-.272-3.933-.929-5.687-.587-1.552-1.332-3.041-2.223-4.445 0 0 19.015-10.345 15.211-.948-.587 1.422-.95 2.924-1.078 4.455-.12 1.519.042 3.046.48 4.507.719 2.381 2.094 4.518 3.97 6.17z"/>
                    <path fill="#000" fill-rule="nonzero" d="M329.25 182.002c-.62 1.492-1.005 3.067-1.14 4.672-1.898 1.56-3.978 1.456-6.647 1.456-2.03 0-4.323.497-5.967-.497-.621-1.628-1.41-3.19-2.354-4.661 0 0 20.137-10.84 16.109-.97z" opacity=".1"/>
                    <circle cx="320.943" cy="179.414" r="9.881" fill="#FFCDD3" fill-rule="nonzero"/>
                    <path fill="#000" fill-rule="nonzero" d="M331.864 199.971s-24.874 2.905-20.222 1.344c3.234-1.09 4.518-3.217 4.79-5.58 1.237-1.388 3.723-2.39 5.323-2.92 1.46-.507 3.034-.533 4.508-.074.58.178 1.132.441 1.639.783.717 2.487 2.09 4.72 3.962 6.447zM346.425 184.194l-5.098.94-.103-.605c1.116-1.22 3.072-1.753 4.893-1.333l.308.998zM270.499 178.65l-7.137 2.324-.144-1.014c2.316-.82 4.722-1.524 7.197-2.106l.084.796zM342.265 260.917c-9.728 1.673-23.578 3.845-25.775 3.12-1.82-.606-7.642-.527-12.708-.353.043-2.757.087-4.582.087-4.582l37.713-4.282c.057 2.05.286 4.091.683 6.097z" opacity=".1"/>
                    <path fill="#416BB3" fill-rule="nonzero" d="M350.585 258.827s-31.838 5.506-35.258 4.455c-3.42-1.05-20.96.087-20.96.087-7.892 5.326-4.597-2.532-4.597-2.532s-.693-4.106.26-7.423c.646-2.432 1.09-4.915 1.327-7.422 0 0-.173-5.244.779-6.464.952-1.22 2.082-9.96 2.082-9.96s.87-5.935.784-7.262c.004-1.662.09-3.324.26-4.977l1.125-6.116c-6.507-.871-26.288-13.101-26.288-13.101-.962-4.101-8.325-13.712-8.325-13.712-.107-.808-.312-1.6-.61-2.358-.52-1.395 7.29-4.188 7.29-4.188s5.81 7.16 7.027 9.083c1.217 1.922 5.377 5.5 5.377 5.5.652-.067 1.31.02 1.924.252l.1.029c1.397.556 2.706 1.313 3.887 2.247 1.955-.048 3.853.673 5.29 2.009 0 0 3.559-.523 4.165.087.606.61 3.646 0 3.646 0s3.034-6.464 5.03-4.585c1.996 1.878 10.46 1.791 10.46 1.791 1.131-1.51 3.877-2.595 5.594-3.152 1.465-.493 3.046-.518 4.526-.072.64.184 1.243.477 1.784.866l5.137 5.065s1.476-1.937 1.303-2.358c-.173-.421 1.736-.784 1.736-.784s2.516-.79 3.468-1.051c.952-.262 1.827.78 1.924.871-.03-.111-.683-2.227-.428-3.84.254-1.611-1.044-3.146-1.044-3.146 3.04-7.51 9.893-1.22 9.893-1.22s.78 4.105.087 5.674c-.693 1.569.692 4.895.519 5.767-.173.871.346 2.358.346 4.018 0 1.661-.865 4.803-1.39 6.198-.524 1.394-4.684 4.541-4.684 4.541s-.26 4.983-2.083 7.863c-1.822 2.881-.745 12.754-.745 12.754s1.736 7.703 3.92 10.167c2.183 2.465 5.362 16.4 5.362 16.4z"/>
                    <path fill="#000" fill-rule="nonzero" d="M305.597 201.776s-1.095-2.798-2.074-3.052c-.982-.313-1.938-.682-2.862-1.105l.635-1.044s3.704.875 4.3 1.806c.597.93 0 3.395 0 3.395zM288.18 195.26c-.182.69-8.32 1.315-8.32 1.315l4.114-3.12.102.027c1.474.44 2.857 1.038 4.104 1.778z" opacity=".1"/>
                    <circle cx="265.819" cy="183.574" r="1" fill="#575988" fill-rule="nonzero"/>
                    <circle cx="266.859" cy="184.614" r="1" fill="#575988" fill-rule="nonzero"/>
                    <circle cx="267.899" cy="185.654" r="1" fill="#575988" fill-rule="nonzero"/>
                    <circle cx="267.899" cy="186.694" r="1" fill="#575988" fill-rule="nonzero"/>
                    <circle cx="350.065" cy="186.694" r="1" fill="#575988" fill-rule="nonzero"/>
                    <circle cx="350.065" cy="187.734" r="1" fill="#575988" fill-rule="nonzero"/>
                    <circle cx="350.065" cy="188.775" r="1" fill="#575988" fill-rule="nonzero"/>
                    <path fill="#000" fill-rule="nonzero" d="M303.782 225.698c-.084-.107 19.87 25.985 35.362 10.91 0 0-24.478 3.434-35.362-10.91zM295.46 238.178s11.302.354 12.482 4.103v3.904c-.653.419-1.447.419-2.1 0-1.138-.712-7.975-4.713-10.381-2.79v-5.217z" opacity=".1"/>
                    <path fill="#3C64A7" fill-rule="nonzero" d="M295.46 238.178s11.302.355 12.482 4.11v3.896c-.654.42-1.449.42-2.103 0-1.136-.709-7.97-4.717-10.378-2.811v-5.195z"/>
                    <path fill="#000" fill-rule="nonzero" d="M300.661 213.216c1.175 2.947 2.672 5.731 4.457 8.293 1.946 2.83 4.305 5.3 6.984 7.309 0 0-11.252-13.886-11.44-15.602zM295.46 198.655s2.327 8.537 8.322 11.441l-8.321-11.44zM292.53 200.738c-.052-.153-1.892 6.638 7.091 10.398.021 0-3.816-1.183-7.09-10.398zM345.388 194.5c-.13 0 4.061 2.128 5.197 3.115 0 0-2.724-3.254-5.197-3.116z" opacity=".1"/>
                    <path fill="#2D293D" fill-rule="nonzero" d="M318.565 189.642c.082.549.37 1.046.805 1.39.3.143.627.217.959.216 3.14.192 6.405.331 9.305-.877.55-.189 1.044-.51 1.439-.935.517-.633.613-1.492.824-2.278.403-1.54 1.27-2.91 1.918-4.373 1.051-2.474 1.403-5.19 1.016-7.85-.076-.817-.343-1.604-.781-2.297-.834-1.19-2.35-1.669-3.452-2.613-1.103-.945-1.807-2.398-3.092-3.108-1.16-.642-2.575-.566-3.883-.345-2.584.433-5.061 1.358-7.297 2.724-.743.455-1.563.983-2.397.824-.753-.143-1.3-.776-1.784-1.366-.611 1.411-.874 2.949-.767 4.483.039.224.039.453 0 .676-.108.27-.272.513-.48.715-.776.897-1.26 2.32-.479 3.227.331.398.844.614 1.17 1.017.58.724.384 1.76.37 2.69-.034.321.048.644.23.911.34.316.823.431 1.27.302.438-.13.897-.174 1.352-.13.483.16.898.48 1.174.907 1.41 1.841 1.97 3.87 2.58 6.09z"/>
                    <g fill="#000" fill-rule="nonzero" opacity=".1">
                        <path d="M21.552 19.102c-.387.414-.877.727-1.424.91-2.85 1.147-6.107 1.015-9.217.829-.329.005-.654-.066-.95-.205-.431-.326-.716-.798-.797-1.32-.603-2.102-1.159-4.027-2.597-5.774-.274-.406-.685-.71-1.164-.86-.45-.045-.905-.003-1.339.123-.438.115-.908.007-1.244-.287-.18-.255-.26-.563-.227-.87 0-.877.208-1.865-.366-2.547-.323-.387-.826-.587-1.159-.965-.436-.57-.512-1.322-.2-1.961C.329 7.003.09 8.068.727 8.79c.328.378.836.583 1.159.965.575.687.38 1.67.366 2.553-.033.305.048.61.228.864.338.3.815.41 1.258.287.434-.124.888-.166 1.339-.123.479.15.89.454 1.163.86 1.425 1.747 1.994 3.672 2.597 5.779.004.432.196.842.53 1.132.333.29.779.432 1.227.392 3.11.182 6.344.314 9.216-.832.544-.179 1.034-.484 1.425-.888.194-.237.343-.505.441-.791-.038.04-.08.078-.123.113zM1.719 4.869c.14-.14.246-.308.313-.492.038-.212.038-.429 0-.641-.088-1.197.074-2.399.475-3.536L2.45.137c-.608 1.338-.869 2.798-.76 4.254.024.158.034.318.029.478z" transform="translate(310.022 168.493)"/>
                    </g>
                    <path fill="#000" fill-rule="nonzero" d="M317.303 194.754s12.406 1.919 13.52-.259M340.184 189.295s7.671 0 9.361 2.08" opacity=".1"/>
                    <path fill="#6C63FF" fill-rule="nonzero" d="M495.944 183.054s1.038 1.331-.48 3.347c-1.52 2.016-2.792 3.72-2.268 4.974 0 0 2.295-3.742 4.16-3.796 1.865-.055.642-2.3-1.412-4.525z"/>
                    <path fill="#000" fill-rule="nonzero" d="M495.914 183.054c.09.13.162.27.215.416 1.843 2.104 2.827 4.06 1.052 4.108-1.651.05-3.63 2.909-4.105 3.632 0 .055.034.11.057.164.022.055 2.323-3.74 4.212-3.796 1.888-.054.65-2.3-1.43-4.524z" opacity=".1"/>
                    <path fill="#FFD037" fill-rule="nonzero" d="M497.34 184.364c0 .425-.043.77-.101.77-.058 0-.106-.345-.106-.77 0-.424.058-.222.116-.222.057 0 .091-.197.091.222z"/>
                    <path fill="#FFD037" fill-rule="nonzero" d="M498.026 184.62c-.404.366-.76.59-.788.491-.027-.098.27-.464.68-.83.41-.366.243-.098.276 0 .032.098.243-.027-.168.34z"/>
                    <path fill="#6C63FF" fill-rule="nonzero" d="M491.252 183.054s-1.043 1.331.48 3.347c1.522 2.016 2.788 3.72 2.264 4.974 0 0-2.292-3.742-4.16-3.796-1.868-.055-.636-2.3 1.416-4.525z"/>
                    <path fill="#000" fill-rule="nonzero" d="M491.282 183.054c-.094.128-.168.268-.22.416-1.841 2.104-2.824 4.06-1.05 4.108 1.648.05 3.63 2.909 4.104 3.632 0 .055-.034.11-.056.164-.023.055-2.321-3.74-4.213-3.796-1.891-.054-.643-2.3 1.435-4.524z" opacity=".1"/>
                    <path fill="#FFD037" fill-rule="nonzero" d="M489.847 184.363c0 .425.048.771.106.771.097-.244.131-.51.101-.77 0-.421-.058-.223-.115-.223-.058 0-.092-.198-.092.222z"/>
                    <path fill="#FFD037" fill-rule="nonzero" d="M489.163 184.62c.409.366.758.59.79.491.033-.098-.274-.464-.677-.83-.404-.366-.248-.098-.28 0-.032.098-.237-.027.167.34z"/>
                    <path fill="#A8A8A8" fill-rule="nonzero" d="M489.956 190.777s2.512-.085 3.269-.674c.757-.59 3.857-1.29 4.054-.347.198.942 3.775 4.694.965 4.737-2.811.042-6.591-.48-7.348-.985-.757-.505-.94-2.731-.94-2.731z"/>
                    <path fill="#000" fill-rule="nonzero" d="M498.288 194.22c-2.839 0-6.6-.41-7.352-.83-.58-.325-.806-1.483-.884-2.015h-.096s.16 1.868.917 2.29c.758.42 4.514.851 7.357.83.82 0 1.1-.276 1.086-.67-.106.239-.415.39-1.028.394z" opacity=".2"/>
                    <g fill-rule="nonzero" transform="translate(0 135)">
                        <ellipse cx="56" cy="228" fill="#F0EFFF" rx="56" ry="9"/>
                        <path fill="#FEC3BE" d="M99.568 59.787s6.81-1.16 16.905-10.196c7.993-7.151 18.765-5.741 22.935-4.843.303.045.54.28.585.58.044.3-.116.592-.394.72-1.678.909-4.284 2.233-5.504 2.383 0 0 2.516 2.573-.157 3.948-.653.316-1.432.242-2.012-.192-1.285-.926-4.864 1.176-10.039 2.27 0 0-20.192 20.626-24.887 17.148l2.568-11.818zM66 31.14s-1.884 8.029 0 13.68L57.526 46 50 42.213v-4.94S53.532 29.727 52.588 21L66 31.14z"/>
                        <path fill="#2F2E41" d="M43 200.83s-6.028 11.769-5.093 19.614c.936 7.845-7.882.922-6.946-3.692.75-3.733-2.595-19.557-3.897-25.459-.297-1.322.463-2.652 1.755-3.074 2.786-.911 7.443-2.049 9.787-.32 3.469 2.544 4.394 12.93 4.394 12.93zM64.807 214.702s7.96 10.278 10.058 10.514c2.097.235 3.51 3.505 0 4.204-3.236.646-11.654 1.493-20.836-2.054-1.368-.531-2.195-1.928-2-3.381L53.346 214l11.46.702z"/>
                        <path fill="#605D82" d="M78.3 106l7.61.998s-1.778 12.53.09 26.292v31.417s.148 2.766-5.705 6.788c-6.139 4.192-12.055 8.69-17.725 13.477L41.358 203s-8.416-10.09-7.247-16.053c0 0 14.024-4.358 15.896-11.468 1.072-4.072 6.51-7.466 10.962-9.621 5.735-2.78 8.862-9.096 7.292-15.178-.26-1.031-.661-2.024-1.194-2.95-3.739-6.42-9.115-20.868-9.115-20.868L68.237 107.6 78.299 106z"/>
                        <path fill="#1A325F" d="M78.297 106l7.613.998s-1.779 12.529.09 26.29v31.415s.148 2.766-5.706 6.787c-6.136 4.195-12.05 8.695-17.716 13.483L41.36 203s-8.418-10.09-7.249-16.052c0 0 14.028-4.357 15.9-11.467 1.072-4.072 6.512-7.466 10.965-9.62 5.737-2.78 8.865-9.096 7.294-15.177-.26-1.032-.661-2.024-1.194-2.95-3.74-6.42-9.117-20.867-9.117-20.867l10.287-19.262L78.297 106z"/>
                        <path fill="#1A325F" d="M66.775 213.956s-13.331 2.3-13.776 3.695c-.444 1.395 0-1.84 0-1.84s-7.686-23.681-5.871-44.602c1.814-20.921-2.26-34.704-2.26-34.704s-4.742-15.634-2.031-24.599c2.71-8.965 31.163-5.06 31.163-5.06s-9.936 23.657-9.708 34.933c0 0-1.13 34.023-3.162 37.932 0-.01 3.162 33.326 5.645 34.245z"/>
                        <path fill="#FFF" d="M64.907 37S63.554 45.524 50 41.838l9.025 70.04s26.198.921 25.974-2.305l-5.412-42.39L64.907 37z"/>
                        <path fill="#000" d="M65.003 37s2.592 2.785 6.588 3.133c2.27.176 4.477.834 6.473 1.93 2.362 1.315 4.937 3.228 5.737 5.56C85.397 52.19 95.431 59.729 100 58.13l-1.596 13.703s-12.997-.676-15.278-5.709L87.004 115h-3.416s-1.825-13.247-3.192-15.988c-1.367-2.741-4.104-17.813-4.333-21.47-.23-3.658-3.649-24.676-6.615-28.323L65 38.37 65.003 37z" opacity=".1"/>
                        <path fill="#000" d="M65.003 38s2.999 2.566 6.953 2.912c2.24.176 4.42.836 6.39 1.936 2.332 1.319 4.874 3.238 5.663 5.577 1.576 4.58 11.48 12.14 15.991 10.537l-1.576 13.744s-12.83-.678-15.081-5.726L87.174 116h-3.375s-1.802-13.286-3.151-16.036c-1.35-2.75-4.051-17.867-4.278-21.535-.226-3.668-3.601-24.749-6.53-28.407L65 39.37l.003-1.37z" opacity=".1"/>
                        <path fill="#416BB3" d="M65.003 37s2.999 2.566 6.953 2.912c2.24.176 4.42.836 6.39 1.936 2.332 1.319 4.874 3.237 5.663 5.577 1.576 4.58 11.48 12.14 15.991 10.536l-1.576 13.744s-12.83-.678-15.081-5.726L87.17 115h-3.372s-1.802-13.286-3.151-16.035c-1.35-2.75-4.051-17.866-4.278-21.534-.226-3.668-3.601-24.748-6.53-28.406L65 38.373 65.003 37z"/>
                        <path fill="#000" d="M53.57 27.94c.298-2.123-.297-3.45-.57-5.94l13 9.637s-.31 1.304-.547 3.207c-.648.103-1.304.155-1.961.156-4.537 0-7.791-3.466-9.921-7.06z" opacity=".1"/>
                        <circle cx="62.5" cy="22.5" r="12.5" fill="#FEC3BE"/>
                        <path fill="#000" d="M76.99 10.086c.076-2.11-.282-4.213-1.052-6.185.43.639.314 1.488-.27 1.996-.41-2.148-1.536-4.103-3.203-5.561.912.143 1.378 1.25 1.157 2.126-.22.877-.915 1.552-1.582 2.175.077-1.325-.817-2.558-1.954-3.288C68.95.62 67.596.322 66.273 0c.946.328 1.546 1.236 1.463 2.212-.003.162-.071.315-.19.428-.128.081-.279.121-.43.113-1.337.052-2.675.024-4.007-.082-1.638-.18-3.285-.266-4.932-.257-5.178.213-10.335 3.648-11.49 8.562-.238 1.19-.364 2.398-.375 3.61l-.252 6.191c-.074 1.809-.147 3.64.224 5.415.718 3.352 2.932 6.216 6.038 7.808 1.859-2.63 2.024-6.01 2.67-9.144.1-.726.375-1.418.803-2.02.466-.569 1.287-.928 1.982-.658.694.27.996 1.308.417 1.77.498.593 1.48.151 2.052-.376 1.628-1.506 2.748-3.458 3.214-5.6.231-1.078.463-2.397 1.53-2.77.372-.1.763-.126 1.146-.075 2.256.15 5.785 1.061 7.974.363 2.038-.668 2.88-3.548 2.88-5.404z" opacity=".1"/>
                        <path fill="#2D293D" d="M76.99 10.099c.076-2.111-.282-4.215-1.052-6.19.43.64.314 1.49-.27 1.999-.409-2.152-1.535-4.111-3.203-5.572.912.144 1.378 1.25 1.157 2.128-.22.877-.915 1.552-1.582 2.176.077-1.326-.817-2.56-1.954-3.29C68.95.62 67.596.322 66.273 0c.946.328 1.546 1.237 1.463 2.214-.003.161-.071.315-.19.428-.128.081-.279.12-.43.113-1.337.052-2.675.024-4.007-.082-1.638-.18-3.285-.266-4.932-.257-5.178.212-10.335 3.65-11.49 8.567-.238 1.19-.364 2.399-.375 3.611l-.252 6.196c-.074 1.81-.147 3.643.224 5.418.724 3.346 2.937 6.203 6.038 7.792 1.859-2.632 2.024-6.014 2.67-9.15.1-.726.375-1.419.803-2.021.466-.569 1.287-.929 1.982-.658.694.27.996 1.309.417 1.772.498.592 1.48.15 2.052-.377 1.628-1.507 2.748-3.46 3.214-5.603.231-1.08.463-2.399 1.53-2.772.372-.1.763-.126 1.146-.076 2.256.151 5.785 1.063 7.974.364 2.035-.624 2.88-3.52 2.88-5.38z"/>
                        <path fill="#000" d="M101.516 59s1.817 8.017-1.588 13L98 71.85l1.051-12.715 2.465-.135z" opacity=".1"/>
                        <path fill="#1A325F" d="M101.516 59s1.817 8.017-1.588 13L98 71.85l1.051-12.715 2.465-.135z"/>
                        <path fill="#000" d="M51.92 36L37.003 48.669s-8.798 8.902-5.09 23.284c0 0 1.619 21 3.47 21.915 0 0 6.478 12.784 6.94 24.882 0 0 8.675-17.23 12.608-6.733S68 124 68 124l-5.09-62.091S50.072 39.879 51.92 36z" opacity=".1"/>
                        <path fill="#416BB3" d="M49.92 36L35 48.669s-8.792 8.902-5.09 23.284c0 0 1.619 21 3.47 21.915 0 0 6.478 12.784 6.94 24.882 0 0 9.138-18.149 13.071-7.649C57.325 121.601 66 124 66 124l-5.101-62.091S48.068 39.879 49.919 36z"/>
                        <path fill="#FEC3BE" d="M43.334 88.445S39.779 85.957 34 92.746L48.221 119 53 111.631S42.89 91.39 43.334 88.445z"/>
                        <path fill="#000" d="M47 90.996s-8.564 9.34-11.905 7.841L32 91.83 43.608 87 47 90.996z" opacity=".1"/>
                        <path fill="#1A325F" d="M47 88.996s-8.564 9.34-11.905 7.841L32 89.844 43.608 85 47 88.996z"/>
                        <path fill="#000" d="M52.653 110s-3.684 8.038-5.653 8.506L49.843 122 54 113.618 52.653 110z" opacity=".1"/>
                        <path fill="#4D4981" d="M52.653 110s-3.684 8.038-5.653 8.506L49.843 122 54 113.618 52.653 110z"/>
                        <path fill="#000" d="M46.036 62S45.714 78 47 84" opacity=".1"/>
                        <path fill="#416BB3" d="M84 65s-3-.856-3-3" opacity=".1"/>
                        <path fill="#40414D" d="M120.271 46.587L139.964 46.564 139.963 47.961 120.269 47.983z" transform="rotate(9.18 130.117 47.274)"/>
                        <path fill="#40414D" d="M146 49.625s-1.784 1.139-3.499 1.344c-.314.041-.632.041-.945 0-1.572-.237-2.387-.957-2.536-1.803-.058-.39.01-.786.198-1.139.425-.76 1.44-1.201 3.012-.962.48.086.938.256 1.35.501.923.556 1.741 1.251 2.42 2.059z"/>
                        <path fill="#F8BDC5" d="M146 49.43s-2.021 1.33-3.963 1.57c-.06-.207-.046-.427.04-.625.19-.282.408-.543.655-.778.203-.273.258-.725-.041-.891-.071-.03-.14-.065-.203-.107-.18-.156 0-.435.151-.601.29-.283.62-.619.617-.998 1.049.656 1.976 1.478 2.744 2.43z"/>
                    </g>
                </g>
            </g>
        </g>
    </g>
</svg>
