<svg xmlns="http://www.w3.org/2000/svg" width="42" height="46" viewBox="0 0 42 46">
    <g fill="none" fill-rule="evenodd">
        <g>
            <g>
                <g transform="translate(-932 -3114) translate(154 2814) translate(778 301.455)">
                    <g fill="#000" fill-rule="nonzero">
                        <path d="M31.882 40H12.118C9.848 40 8 38.094 8 35.75v-25.5C8 7.906 9.848 6 12.118 6h19.764C34.152 6 36 7.906 36 10.25v25.5c0 2.344-1.848 4.25-4.118 4.25zM12.118 7.7c-1.362 0-2.47 1.144-2.47 2.55v25.5c0 1.406 1.108 2.55 2.47 2.55h19.764c1.362 0 2.47-1.144 2.47-2.55v-25.5c0-1.406-1.108-2.55-2.47-2.55H12.118z" transform="translate(0 3.545)"/>
                        <path d="M5.765 35H4.118C1.848 35 0 33.132 0 30.833V4.167C0 1.868 1.848 0 4.118 0h19.764C26.152 0 28 1.868 28 4.167c0 .46-.369.833-.824.833-.454 0-.823-.373-.823-.833 0-1.379-1.109-2.5-2.47-2.5H4.117c-1.362 0-2.47 1.121-2.47 2.5v26.666c0 1.379 1.108 2.5 2.47 2.5h1.647c.454 0 .823.374.823.834 0 .46-.369.833-.823.833zM29.222 27H16.778c-.43 0-.778-.448-.778-1s.348-1 .778-1h12.444c.43 0 .778.448.778 1s-.348 1-.778 1zM29.222 34H16.778c-.43 0-.778-.448-.778-1s.348-1 .778-1h12.444c.43 0 .778.448.778 1s-.348 1-.778 1z" transform="translate(0 3.545)"/>
                        <path d="M29.222 20H16.778c-.43 0-.778-.448-.778-1s.348-1 .778-1h12.444c.43 0 .778.448.778 1s-.348 1-.778 1z" transform="translate(0 3.545)"/>
                    </g>
                    <ellipse cx="31.55" cy="9.091" fill="#FFF" stroke="#111" stroke-width="1.5" rx="9.231" ry="9.091"/>
                    <path stroke="#111" stroke-width="1.5" d="M31.55 4.364L31.55 12.318"/>
                    <path stroke="#111" stroke-width="1.5" d="M31.55 4.364L31.55 12.318" transform="rotate(-90 31.55 8.34)"/>
                </g>
            </g>
        </g>
    </g>
</svg>
