<svg xmlns="http://www.w3.org/2000/svg" xmlns:xlink="http://www.w3.org/1999/xlink" width="663" height="545" viewBox="0 0 663 545">
    <defs>
        <circle id="jsqgo8z4aa" cx="348.5" cy="277.5" r="220.5"/>
        <circle id="gug7ir0v4b" cx="36.5" cy="36.5" r="36.5"/>
        <circle id="bpdvvs8sjc" cx="36.5" cy="36.5" r="36.5"/>
        <circle id="ig0ixughad" cx="36.5" cy="36.5" r="36.5"/>
        <circle id="6fbpqe2m1e" cx="36.5" cy="36.5" r="36.5"/>
        <mask id="i23ji53xif" width="441" height="441" x="0" y="0" fill="#fff" maskContentUnits="userSpaceOnUse" maskUnits="objectBoundingBox">
            <use xlink:href="#jsqgo8z4aa"/>
        </mask>
        <mask id="is7wvq09ig" width="73" height="73" x="0" y="0" fill="#fff" maskContentUnits="userSpaceOnUse" maskUnits="objectBoundingBox">
            <use xlink:href="#gug7ir0v4b"/>
        </mask>
        <mask id="g0ihzwnhdh" width="73" height="73" x="0" y="0" fill="#fff" maskContentUnits="userSpaceOnUse" maskUnits="objectBoundingBox">
            <use xlink:href="#bpdvvs8sjc"/>
        </mask>
        <mask id="18ykptkndi" width="73" height="73" x="0" y="0" fill="#fff" maskContentUnits="userSpaceOnUse" maskUnits="objectBoundingBox">
            <use xlink:href="#ig0ixughad"/>
        </mask>
        <mask id="oj3ttvlomj" width="73" height="73" x="0" y="0" fill="#fff" maskContentUnits="userSpaceOnUse" maskUnits="objectBoundingBox">
            <use xlink:href="#6fbpqe2m1e"/>
        </mask>
    </defs>
    <g fill="none" fill-rule="evenodd">
        <g>
            <g>
                <g>
                    <g>
                        <g transform="translate(-621 -1664) translate(621 1664)">
                            <path fill="#416BB3" fill-rule="nonzero" d="M400.207 110.219c-25.445 21.585-58.45 20.188-87.372 8.956-28.922-11.233-55.49-31.224-83.669-45.436C205.542 61.825 180.752 54 155.66 50.52c-35.915-4.982-76.022 1.1-101.043 35.979-27.866 38.86-25.726 108.95 4.401 144.599 15.333 18.144 35.409 27.05 52.915 41.235 17.506 14.185 33.72 37.695 32.229 65.043-1.381 25.29-17.43 44.737-34.04 56.927-12.834 9.418-28.64 19.705-30.187 39.217-1.496 18.875 11.796 33.67 24.488 42.082 41.406 27.441 92.428 27.177 133.69-.692 14.712-9.946 28.224-23.175 43.656-30.916 40.52-20.343 85.17.132 128.078 7.626 36.31 6.34 73.551 3.051 108.932-9.61 21.248-7.605 42.578-19.244 57.504-40.884 10.766-15.615 17.473-35.38 23.767-54.899 6.712-20.808 13.165-41.767 19.36-62.875 3.714-12.673 7.372-25.588 8.335-39.141 1.739-24.565-5.59-48.85-15.57-69.578C588.48 125.41 548.57 90.799 505.35 82.008c-43.221-8.791-88.945 8.38-122.467 45.953" opacity=".1" transform="rotate(170 331.5 272.5)"/>
                            <g>
                                <g fill-rule="nonzero" transform="translate(146 129)">
                                    <path fill="#3F3D56" d="M49.21 245l-.692-.156c7.71-34.332 27.088-65.51 54.562-87.788 42.226-34.188 99.072-44.166 150.395-26.4 51.324 17.767 89.876 60.768 101.997 113.77l-.691.156c-16.322-71.754-79.13-121.868-152.738-121.868-72.644 0-136.92 51.428-152.833 122.286z"/>
                                    <ellipse cx="148.031" cy="26.285" fill="#FF6584" rx="19.308" ry="18.35"/>
                                    <path fill="#3F3D56" d="M63.576 238.476c.68 2.191 3.005 3.548 3.005 3.548s1.225-2.195.546-4.387c-.68-2.19-3.005-3.548-3.005-3.548s-1.225 2.196-.546 4.387z"/>
                                    <path fill="#416BB3" d="M65.184 240.135c1.914 1.918 2.148 4.865 2.148 4.865s-2.87-.161-4.784-2.079c-1.914-1.917-2.148-4.864-2.148-4.864s2.87.16 4.784 2.078z"/>
                                    <path fill="#3F3D56" d="M109.124 238.476c.679 2.191 3.005 3.548 3.005 3.548s1.225-2.195.546-4.387c-.68-2.19-3.005-3.548-3.005-3.548s-1.225 2.196-.546 4.387z"/>
                                    <path fill="#416BB3" d="M110.732 240.135c1.914 1.918 2.148 4.865 2.148 4.865s-2.87-.161-4.784-2.079c-1.914-1.917-2.148-4.864-2.148-4.864s2.87.16 4.784 2.078z"/>
                                    <path fill="#3F3D56" d="M119.091 64.698L111.889 58.784 152.217 21.822 254.474 21.822 254.474 54.349 188.223 100.182z"/>
                                    <path fill="#CCC" d="M275.15 43.046L275.15 23.534 261.54 23.534 261.54 28.313 256.46 22.814 223.254 58.883 210.26 67.54 190.113 214.637 220.497 245 291.111 245 291.111 60.326z"/>
                                    <path fill="#F2F2F2" d="M111.889 59.514H221.798V245H111.889z"/>
                                    <path fill="#CCC" d="M155.457 200.364H175.26V245H155.457z"/>
                                    <path fill="#3F3D56" d="M133.673 212.267L133.673 205.324 125.752 205.324 125.752 212.267 133.013 212.267zM133.013 219.211L125.752 219.211 125.752 226.154 133.673 226.154 133.673 219.211zM139.614 205.324H147.535V212.26700000000002H139.614zM139.614 219.211H147.535V226.15400000000002H139.614zM193.084 212.267L193.084 205.324 185.162 205.324 185.162 212.267 192.424 212.267zM192.424 219.211L185.162 219.211 185.162 226.154 193.084 226.154 193.084 219.211zM198.034 205.324H205.95499999999998V212.26700000000002H198.034zM198.034 219.211H205.95499999999998V226.15400000000002H198.034zM252.494 67.449L252.494 60.506 244.572 60.506 244.572 67.449 251.834 67.449zM251.834 74.393L244.572 74.393 244.572 81.336 252.494 81.336 252.494 74.393zM260.415 60.506H268.336V67.449H260.415zM260.415 74.393H268.336V81.336H260.415zM252.494 108.117L252.494 101.174 244.572 101.174 244.572 108.117 251.834 108.117zM251.834 114.069L244.572 114.069 244.572 121.012 252.494 121.012 252.494 114.069zM260.415 101.174H268.336V108.117H260.415zM260.415 114.069H268.336V121.012H260.415zM252.494 148.785L252.494 141.842 244.572 141.842 244.572 148.785 251.834 148.785zM251.834 155.729L244.572 155.729 244.572 162.672 252.494 162.672 252.494 155.729zM260.415 141.842H268.336V148.78500000000003H260.415zM260.415 155.729H268.336V162.67200000000003H260.415zM252.494 187.47L252.494 180.526 244.572 180.526 244.572 187.47 251.834 187.47zM251.834 194.413L244.572 194.413 244.572 201.356 252.494 201.356 252.494 194.413zM260.415 180.526H268.336V187.46900000000002H260.415zM260.415 194.413H268.336V201.35600000000002H260.415zM125.752 66.457H208.926V84.31099999999999H125.752zM125.752 103.158H208.926V121.012H125.752zM125.752 136.883H208.926V154.73700000000002H125.752zM125.752 171.599H208.926V189.45299999999997H125.752zM0 243.016H403V244.016H0zM67.332 161.68H70.303V242.024H67.332z"/>
                                    <path fill="#416BB3" d="M89.115 172.496c.135 29.035-20.548 52.666-20.548 52.666S47.664 201.72 47.53 172.686c-.136-29.034 20.548-52.666 20.548-52.666s20.902 23.442 21.038 52.476z"/>
                                    <path fill="#000" d="M89.115 172.496c.135 29.035-20.548 52.666-20.548 52.666S47.664 201.72 47.53 172.686c-.136-29.034 20.548-52.666 20.548-52.666s20.902 23.442 21.038 52.476z" opacity=".1"/>
                                    <path fill="#3F3D56" d="M40.597 161.68H43.568V242.024H40.597z"/>
                                    <path fill="#416BB3" d="M63.37 172.496c.136 29.035-20.547 52.666-20.547 52.666S21.92 201.72 21.784 172.686c-.135-29.034 20.548-52.666 20.548-52.666s20.903 23.442 21.038 52.476z"/>
                                    <path fill="#F2F2F2" d="M334.732 59.22c-16.405.07-29.759.294-29.759.294s15.873-19.508 29.7-12.28c13.827 7.227 29.71 12.026 29.71 12.026s-13.245-.111-29.65-.04zM62.435 98.895c-16.406.07-29.76.295-29.76.295s15.874-19.508 29.7-12.28c13.827 7.227 29.711 12.026 29.711 12.026s-13.245-.11-29.651-.04zM121.845 13.592c-16.405.07-29.759.295-29.759.295s15.873-19.508 29.7-12.28c13.827 7.227 29.71 12.026 29.71 12.026s-13.245-.112-29.65-.041z"/>
                                    <path fill="#3F3D56" d="M366.364 161.68H369.335V242.024H366.364z"/>
                                    <path fill="#416BB3" d="M389.137 172.496c.135 29.035-20.548 52.666-20.548 52.666s-20.902-23.442-21.038-52.476c-.135-29.034 20.548-52.666 20.548-52.666s20.902 23.442 21.038 52.476z"/>
                                    <path fill="#3F3D56" d="M292.266 191.527L313.643 191.527 313.643 186.478 325.437 186.478 325.437 191.527 347.55 191.527 347.55 213.89 325.437 213.89 325.437 242.024 313.643 242.024 313.643 213.89 292.266 213.89 281.209 201.627z"/>
                                </g>
                                <text fill="#FFF" font-family="Poppins-Medium, Poppins" font-size="16" font-weight="400" transform="translate(146 129)">
                                    <tspan x="160" y="45">BANK</tspan>
                                </text>
                                <text fill="#FFF" font-family="Poppins-Medium, Poppins" font-size="12" font-weight="400" transform="translate(146 129)">
                                    <tspan x="302" y="208">BANK</tspan>
                                </text>
                            </g>
                            <use stroke="#1A325F" stroke-dasharray="3" stroke-width="4" mask="url(#i23ji53xif)" xlink:href="#jsqgo8z4aa"/>
                            <g fill="#FFF" stroke="#1A325F" stroke-dasharray="4" stroke-width="2" transform="translate(312 25)">
                                <use mask="url(#is7wvq09ig)" xlink:href="#gug7ir0v4b"/>
                            </g>
                            <g transform="translate(312 456)">
                                <use fill="#FFF" stroke="#1A325F" stroke-dasharray="4" stroke-width="2" mask="url(#g0ihzwnhdh)" xlink:href="#bpdvvs8sjc"/>
                                <g fill="#000" fill-rule="nonzero">
                                    <path d="M38.235 23c-.422 0-.764.315-.764.703 0 .492-.436.892-.971.892-.535 0-.97-.4-.97-.892 0-.389-.343-.703-.765-.703-.423 0-.765.315-.765.703C34 24.969 35.122 26 36.5 26s2.5-1.03 2.5-2.297c0-.389-.342-.703-.765-.703z" transform="translate(13 15)"/>
                                    <path d="M43.281 23.92l-1.843-.603c-.236-.077-.422-.27-.498-.514-.388-1.26-.974-2.444-1.742-3.517-.35-.49-.74-.956-1.164-1.401.272-1.217.42-2.595.4-3.785-.027-1.703-.36-2.701-1.019-3.053-.355-.19-1.434-.767-7.276 1.962-.138.065-.267.144-.387.235-.394-.108-.796-.208-1.201-.297l-.148-.031c.473-1.055.75-2.202.801-3.385.017-.368-.263-.68-.625-.697-.36-.018-.667.269-.683.638-.085 1.945-.876 3.775-2.227 5.153-.807.824-1.752 1.422-2.759 1.799-1.746-.25-3.525-.25-5.27 0-1.008-.377-1.953-.975-2.76-1.799-1.44-1.47-2.234-3.425-2.234-5.504 0-2.08.794-4.034 2.234-5.504 1.441-1.47 3.357-2.28 5.395-2.28 2.037 0 3.953.81 5.394 2.28.58.59 1.058 1.265 1.422 2.003.163.33.557.463.88.297.323-.166.453-.568.29-.898-.427-.866-.988-1.656-1.666-2.348C24.907.95 22.662 0 20.275 0c-2.388 0-4.632.949-6.32 2.671-1.689 1.723-2.619 4.014-2.619 6.45s.93 4.727 2.618 6.45c.487.496 1.017.924 1.578 1.282-.407.108-.811.229-1.21.365-.344.117-.53.496-.414.846.114.35.485.539.828.422 3.572-1.219 7.506-1.219 11.077 0 .07.023.14.034.208.034.274 0 .53-.176.621-.456.115-.35-.07-.729-.413-.846-.4-.136-.804-.258-1.211-.365.56-.358 1.09-.786 1.577-1.283.431-.44.812-.92 1.142-1.43.18.036.36.074.536.113.235.052.47.108.701.167l-.02.087c-.32 1.547-.299 2.915.061 4.065.324 1.035.908 1.873 1.737 2.492.977.729 2.155 1.043 3.223 1.043.804 0 1.545-.178 2.09-.493.615-.355 1.13-1.105 1.539-2.23.189.224.368.454.536.69.684.956 1.205 2.009 1.551 3.13.203.658.707 1.177 1.348 1.386l1.843.603c.483.158.808.612.808 1.13v3.119c0 .518-.325.972-.808 1.13l-2.97.971c-.475.156-.877.489-1.132.938-1.167 2.058-3.001 3.76-5.453 5.061-.283.15-.479.42-.538.738l-.951 5.14c-.026.14-.148.243-.29.243h-3.092c-.141 0-.263-.102-.289-.244l-.527-2.84c-.103-.559-.617-.93-1.17-.845-1.332.206-2.705.31-4.08.31-1.022 0-2.032-.058-3.001-.173-.536-.063-1.035.31-1.135.85l-.5 2.698c-.027.142-.148.244-.29.244h-3.092c-.141 0-.263-.102-.29-.246l-.915-4.854c-.06-.313-.252-.578-.529-.73-4.179-2.276-6.387-6.079-6.387-10.997 0-2.485.533-4.682 1.583-6.53.98-1.726 2.413-3.153 4.257-4.241.313-.185.42-.594.239-.913-.181-.32-.582-.429-.895-.244-3.575 2.11-5.732 5.366-6.325 9.501-.063-.006-.127-.011-.19-.018.012-.446-.067-.896-.24-1.333-.38-.964-1.16-1.66-1.988-1.772-.652-.09-1.273.193-1.704.774-.625.843-.523 1.51-.328 1.92.33.694 1.178 1.185 2.585 1.493-.039.06-.081.118-.128.178-.831 1.064-1.81 1.3-2.447 1.321-.372.013-.67.318-.67.698v.004c0 .375.29.68.657.698.047.002.096.003.147.003.805 0 2.097-.303 3.337-1.89.196-.251.356-.515.479-.789.123.015.242.027.356.038v-.001c-.022.362-.035.73-.035 1.103 0 2.783.65 5.264 1.932 7.375 1.182 1.946 2.875 3.54 5.032 4.738l.89 4.719c.144.772.807 1.332 1.577 1.332h3.092c.77 0 1.433-.56 1.576-1.332l.453-2.44c.94.101 1.913.153 2.897.153 1.35 0 2.699-.096 4.013-.286l.477 2.573c.143.772.806 1.332 1.576 1.332h3.093c.77 0 1.432-.56 1.576-1.333l.926-5.003c2.616-1.412 4.588-3.266 5.862-5.513.092-.162.234-.281.399-.335l2.97-.97C44.308 31.508 45 30.542 45 29.441v-3.119c0-1.101-.69-2.067-1.719-2.403zm-6.255-7.942c-.252 2.2-.928 4.08-1.607 4.473-.772.447-2.555.533-3.894-.466-1.34-1-1.786-2.8-1.29-5.202.05-.242.218-.45.45-.559 3.278-1.531 5.168-2.032 5.87-2.032.107 0 .186.011.238.032.211.23.488 1.534.233 3.754zM1.84 23.397c-.068-.143.092-.393.193-.53.161-.217.31-.261.421-.261.024 0 .046.002.066.005.301.04.723.379.947.946.052.133.12.354.137.63-.907-.192-1.611-.468-1.764-.79z" transform="translate(13 15)"/>
                                    <path d="M21.568 8.787V6.559c.935.055 1.283.406 1.604.406.4 0 .588-.417.588-.626 0-.538-1.283-.768-2.192-.79v-.297c0-.131-.2-.252-.401-.252-.227 0-.388.12-.388.252v.319c-1.269.11-2.539.658-2.539 2.041 0 1.405 1.337 1.8 2.54 2.151v2.58c-1.364-.088-1.724-.856-2.165-.856-.334 0-.615.362-.615.625 0 .538 1.122 1.273 2.78 1.295v.34c0 .132.16.253.387.253.2 0 .401-.12.401-.252v-.374c1.443-.164 2.432-.91 2.432-2.26 0-1.493-1.27-1.976-2.432-2.327zm-.708-.209c-.709-.22-1.283-.45-1.283-1.075 0-.571.534-.846 1.283-.922v1.997zm.628 3.743v-2.316c.654.23 1.176.538 1.176 1.23 0 .625-.455.976-1.176 1.086z" transform="translate(13 15)"/>
                                </g>
                            </g>
                            <g transform="translate(527 241)">
                                <use fill="#FFF" stroke="#1A325F" stroke-dasharray="4" stroke-width="2" mask="url(#18ykptkndi)" xlink:href="#ig0ixughad"/>
                                <g fill="#000" fill-rule="nonzero">
                                    <path d="M31 32c0 .552-.448 1-1 1s-1-.448-1-1 .448-1 1-1 1 .448 1 1z" transform="translate(18 19)"/>
                                    <path d="M35.04 18.84l-.84-.558V10.2c-.004-3.282-2.415-6.063-5.663-6.533L29.94.868c.093-.186.083-.408-.027-.585S29.609-.001 29.4 0h-7.2c-.209-.001-.403.106-.513.283-.11.177-.12.399-.027.585l1.4 2.799c-3.247.471-5.656 3.253-5.66 6.533v8.079l-.837.558c-.603.401-.965 1.078-.963 1.803.003.334.083.663.236.96H13.2V11.4h3v-1.2h-3.37L8.164 6h8.422l.568.464.76-.928-.734-.6c-.107-.088-.241-.136-.38-.136H6.595c-.065.001-.13.013-.191.035-.02.006-.036.018-.055.026-.044.02-.085.046-.123.076-.008.007-.019.009-.027.017l-6 5.4C.072 10.467 0 10.63 0 10.8v11.4c.004 2.38 1.562 4.478 3.84 5.168-.534.483-.84 1.17-.84 1.89v.13c-.004.971.545 1.86 1.415 2.292l6.996 3.497c1.084.54 2.278.822 3.489.823h20.5c.331 0 .6-.269.6-.6V27c0-.331-.269-.6-.6-.6h-1.414C35.26 25.377 36 23.833 36 22.2c-.003-.207-.113-.396-.29-.502.187-.32.287-.686.29-1.058.001-.723-.359-1.398-.96-1.8zm-18.24 1.8c0-.322.16-.623.429-.802l1.104-.736c.168-.112.268-.3.267-.502v-8.4c.004-2.98 2.419-5.396 5.4-5.4.209.001.403-.106.513-.283.11-.177.12-.399.027-.585L23.17 1.2h5.26l-1.367 2.732c-.093.186-.083.407.026.584.11.176.303.284.511.284 2.98.004 5.396 2.42 5.4 5.4v8.4c0 .2.1.388.267.5l1.104.735c.353.235.51.673.389 1.08-.123.406-.496.684-.92.685H17.763c-.53 0-.96-.43-.963-.96zM1.2 11.067l5.4-4.86 5.4 4.86V21.6H9v-4.2c0-.331-.269-.6-.6-.6H4.8c-.331 0-.6.269-.6.6v4.2h-3V11.067zM7.8 21.6H5.4V18h2.4v3.6zm4.283 7.829L8.091 27.6h4.243c-.33.55-.42 1.21-.25 1.829zm-.135 4.674l-6.996-3.498c-.462-.229-.754-.7-.752-1.217v-.13c-.001-.464.234-.897.624-1.147.39-.251.882-.285 1.303-.09l6.823 3.124c.078.036.164.055.25.055h6c.331 0 .6-.269.6-.6 0-.331-.269-.6-.6-.6h-4.8c-.663 0-1.2-.537-1.2-1.2 0-.663.537-1.2 1.2-1.2H19c.1 0 .2-.025.287-.073l.154-.083c2.346-1.292 5.183-1.325 7.559-.087V34.8H14.9c-1.025 0-2.035-.24-2.952-.697zM34.8 27.6v7.2h-6.6v-7.2h6.6zm-4.2-1.2h-2.852c-2.762-1.527-6.114-1.531-8.88-.01l-4.468.01h-9c-2.087-.003-3.856-1.535-4.158-3.6h33.516c-.302 2.065-2.071 3.597-4.158 3.6z" transform="translate(18 19)"/>
                                    <path d="M26.9 12.375h-1.8c-.497 0-.9-.42-.9-.938 0-.517.403-.937.9-.937h3.3V9.25h-1.8V8h-1.2v1.25h-.3c-1.16 0-2.1.98-2.1 2.188 0 1.208.94 2.187 2.1 2.187h1.8c.497 0 .9.42.9.938 0 .517-.403.937-.9.937h-3.3v1.25h1.8V18h1.2v-1.25h.3c1.16 0 2.1-.98 2.1-2.188 0-1.208-.94-2.187-2.1-2.187zM5.5 15h2c.276 0 .5-.256.5-.571V11.57c0-.315-.224-.571-.5-.571h-2c-.276 0-.5.256-.5.571v2.858c0 .315.224.571.5.571zm.5-2.857h1v1.714H6v-1.714z" transform="translate(18 19)"/>
                                </g>
                            </g>
                            <g fill="#FFF" stroke="#1A325F" stroke-dasharray="4" stroke-width="2" transform="translate(95 241)">
                                <use mask="url(#oj3ttvlomj)" xlink:href="#6fbpqe2m1e"/>
                            </g>
                        </g>
                    </g>
                    <g fill="#000" fill-rule="nonzero">
                        <path d="M14.68 16.423H8c-.193 0-.378.077-.514.214l-2.696 2.71h-.56c-.301-.85-1.101-1.462-2.048-1.462-1.203 0-2.182.983-2.182 2.192s.979 2.192 2.182 2.192c.947 0 1.747-.613 2.048-1.461h.86c.194 0 .38-.077.515-.214l2.696-2.71h6.378c.301.849 1.101 1.462 2.048 1.462.553 0 1.052-.214 1.437-.555l2.963 1.656c-.02.118-.036.237-.036.36 0 1.21.979 2.193 2.182 2.193 1.203 0 2.182-.984 2.182-2.192 0-.124-.017-.243-.037-.36l2.964-1.657c.385.341.883.555 1.436.555 1.203 0 2.182-.983 2.182-2.192 0-.952-.61-1.755-1.455-2.058v-3.193C31.39 11.601 32 10.797 32 9.845c0-1.208-.979-2.192-2.182-2.192-.553 0-1.051.214-1.436.556l-2.964-1.657c.02-.117.037-.236.037-.36 0-1.208-.98-2.192-2.182-2.192-1.203 0-2.182.984-2.182 2.192 0 .124.017.243.036.36L18.164 8.21c-.385-.341-.884-.555-1.437-.555-.947 0-1.747.613-2.048 1.461H8.301L5.605 6.406c-.136-.137-.321-.214-.514-.214H4.23c-.301-.848-1.101-1.461-2.048-1.461C.979 4.73 0 5.714 0 6.923s.979 2.192 2.182 2.192c.947 0 1.747-.613 2.048-1.461h.56l2.696 2.709c.136.137.321.214.514.214h6.68c.219.619.704 1.106 1.32 1.327v.865H4.23c-.301-.848-1.101-1.461-2.048-1.461C.979 11.308 0 12.29 0 13.5s.979 2.192 2.182 2.192c.947 0 1.747-.613 2.048-1.461H16v.865c-.616.22-1.101.708-1.32 1.327zM2.181 20.808c-.4 0-.727-.328-.727-.731 0-.403.326-.73.727-.73.4 0 .727.327.727.73 0 .403-.326.73-.727.73zm0-13.154c-.4 0-.727-.328-.727-.73 0-.404.326-.732.727-.732.4 0 .727.328.727.731 0 .403-.326.73-.727.73zm0 6.577c-.4 0-.727-.328-.727-.731 0-.403.326-.73.727-.73.4 0 .727.327.727.73 0 .403-.326.73-.727.73zm14.545 3.654c-.4 0-.727-.329-.727-.731 0-.403.327-.73.727-.73.401 0 .728.327.728.73 0 .402-.327.73-.728.73zm1.437-6.402l2.963 1.657c-.02.117-.036.236-.036.36 0 .123.017.243.036.36l-2.963 1.657c-.207-.183-.445-.326-.71-.421v-3.193c.265-.094.504-.237.71-.42zm10.218 4.034l-2.964-1.657c.02-.117.037-.236.037-.36 0-.123-.017-.243-.037-.36l2.964-1.657c.206.183.445.326.709.421v3.193c-.264.094-.503.237-.71.42zm-9.51 1.277l2.964-1.657c.207.183.445.326.71.42v3.194c-.265.095-.504.237-.71.42l-2.963-1.656c.02-.119.036-.238.036-.361 0-.124-.017-.243-.036-.36zm4.4-4.025c.401 0 .728.328.728.731 0 .403-.327.73-.727.73-.401 0-.728-.327-.728-.73 0-.403.327-.73.728-.73zM24 15.558c.264-.095.503-.238.71-.421l2.963 1.657c-.02.117-.037.236-.037.36 0 .123.017.242.037.36l-2.964 1.657c-.206-.183-.445-.326-.709-.421v-3.192zm3.673-5.352l-2.964 1.657c-.206-.183-.445-.326-.709-.42V8.248c.264-.095.503-.237.71-.42l2.963 1.656c-.02.119-.037.238-.037.361 0 .124.017.243.037.36zm-5.128 1.236c-.264.095-.503.238-.709.421l-2.963-1.657c.02-.117.036-.236.036-.36 0-.123-.017-.242-.036-.36l2.963-1.657c.207.183.445.326.71.421v3.192zm.728 10.096c-.401 0-.728-.328-.728-.73 0-.403.327-.731.728-.731.4 0 .727.328.727.73 0 .403-.327.731-.727.731zm6.545-3.653c-.4 0-.727-.329-.727-.731 0-.403.326-.73.727-.73.4 0 .727.327.727.73 0 .402-.326.73-.727.73zm0-8.77c.4 0 .727.329.727.731 0 .403-.326.73-.727.73-.4 0-.727-.327-.727-.73 0-.402.326-.73.727-.73zm-6.545-3.653c.4 0 .727.328.727.73 0 .403-.327.731-.727.731-.401 0-.728-.328-.728-.73 0-.403.327-.731.728-.731zm-6.546 3.653c.401 0 .728.329.728.731 0 .403-.327.73-.728.73-.4 0-.727-.327-.727-.73 0-.402.327-.73.727-.73z" transform="translate(-621 -1664) translate(621 1664) translate(109 257)"/>
                        <path d="M15.287 42h11.37c.391 0 .71-.314.71-.7v-4.9h9.237c.393 0 .71-.314.71-.7v-8.4h4.975c.226 0 .438-.106.573-.286.134-.18.173-.41.106-.623l-3.543-11.168c-.142-4.248-1.963-8.168-5.14-11.057C31.07 1.244 26.88-.224 22.498.028c-5.044.29-9.717 3.017-12.5 7.294l1.196.755c2.54-3.901 6.796-6.388 11.387-6.652 3.995-.232 7.811 1.109 10.738 3.77 2.937 2.67 4.602 6.306 4.688 10.239.003.121.04.235.1.334L41.324 25.9h-4.719c-.392 0-.71.313-.71.7v2.8h-2.132c-1.175 0-2.132-.942-2.132-2.1h-1.42c0 1.93 1.593 3.5 3.552 3.5h2.132V35h-9.238c-.392 0-.71.314-.71.7v4.9h-9.948v-.677c0-5.664-1.729-11.455-4.999-16.748-.723-1.17-1.27-2.434-1.625-3.754L8 19.779c.39 1.451.99 2.838 1.785 4.124 3.134 5.074 4.791 10.613 4.791 16.02V41.3c0 .386.319.7.711.7z" transform="translate(-621 -1664) translate(621 1664) translate(109 257)"/>
                    </g>
                </g>
                <g fill="#000" fill-rule="nonzero">
                    <path d="M31.238 17c.061 0 .123-.007.185-.022.408-.099.656-.498.554-.893-.336-1.303-.86-2.554-1.557-3.718-.211-.352-.677-.472-1.04-.268-.364.205-.488.655-.277 1.007.626 1.045 1.096 2.167 1.397 3.336.087.334.397.558.738.558zM19.364 23c.351 0 .636-.257.636-.574v-7.852c0-.317-.285-.574-.636-.574h-3.728c-.351 0-.636.257-.636.574v7.852c0 .317.285.574.636.574.352 0 .637-.257.637-.574v-3.352h2.454v3.352c0 .317.285.574.637.574zm-3.091-5.074v-2.779h2.454v2.78h-2.454zM23 14.574v7.852c0 .317.448.574 1 .574s1-.257 1-.574v-7.852c0-.317-.448-.574-1-.574s-1 .257-1 .574zM12.143 17c-.806 0-1.495.418-1.75 1H.619c-.342 0-.619.223-.619.5s.277.5.62.5h9.773c.255.582.944 1 1.75 1C13.167 20 14 19.327 14 18.5s-.833-1.5-1.857-1.5zm0 1.998c-.34 0-.618-.223-.618-.498s.277-.498.618-.498c.341 0 .618.223.618.498s-.277.498-.618.498zM26 18.5c0 .827.833 1.5 1.857 1.5.806 0 1.495-.418 1.75-1h9.774c.342 0 .619-.223.619-.5s-.277-.5-.62-.5h-9.773c-.255-.582-.944-1-1.75-1-1.024 0-1.857.673-1.857 1.5zm2.475 0c0 .275-.277.498-.618.498-.341 0-.618-.223-.618-.498s.277-.498.618-.498c.34 0 .618.223.618.498z" transform="translate(-621 -1664) translate(621 1664) translate(328 42)"/>
                    <path d="M38.247 29.946c-.762 0-1.411.51-1.653 1.222h-8.273l-3.02-2.65c.637-.35 1.245-.764 1.82-1.243 1.982-1.65 3.4-3.965 3.991-6.522.076-.327-.118-.657-.432-.736-.315-.079-.631.123-.707.45-.531 2.295-1.803 4.374-3.583 5.854-1.833 1.525-4.043 2.331-6.392 2.331-2.35 0-4.56-.806-6.393-2.33-1.78-1.481-3.052-3.56-3.583-5.855-.076-.327-.392-.529-.707-.45-.314.08-.508.409-.432.736.591 2.557 2.009 4.873 3.99 6.522.577.48 1.186.895 1.823 1.245l-3.017 2.648H3.406c-.241-.711-.891-1.222-1.653-1.222-.967 0-1.753.822-1.753 1.832 0 1.01.786 1.832 1.753 1.832.762 0 1.412-.51 1.653-1.222h8.487c.138 0 .272-.05.377-.143l3.607-3.165c.743.3 1.516.516 2.31.646l-.104 1.648c-.021.336.223.627.546.65h.04c.305 0 .563-.247.584-.57l.1-1.6c.214.013.429.019.645.019.241 0 .481-.008.72-.023l.372 5.9h-2.109l.088-1.384c.02-.336-.224-.627-.547-.649-.324-.021-.602.233-.623.57l-.196 3.114c-.043.671.186 1.338.627 1.828.44.49 1.062.771 1.706.771.643 0 1.265-.28 1.705-.77.441-.491.67-1.157.628-1.829l-.486-7.687c.77-.132 1.518-.345 2.239-.636l3.608 3.167c.105.093.239.144.377.144h8.487c.241.71.891 1.221 1.653 1.221.967 0 1.753-.821 1.753-1.832 0-1.01-.786-1.832-1.753-1.832zM1.753 32.39c-.32 0-.581-.275-.581-.612 0-.337.26-.611.58-.611.321 0 .582.274.582.611 0 .338-.261.612-.581.612zm19.133 6.005c-.223.248-.525.384-.85.384-.326 0-.628-.136-.85-.384-.224-.249-.336-.573-.314-.914l.032-.51h2.263l.033.51c.021.34-.09.665-.314.914zm17.361-6.005c-.32 0-.58-.275-.58-.612 0-.337.26-.611.58-.611.32 0 .581.274.581.611 0 .338-.26.612-.58.612zM1.753 7.403c.762 0 1.412-.497 1.653-1.19h8.273l3.018 2.58c-2.82 1.496-4.976 4.164-5.79 7.469-.078.318.113.64.427.72.048.012.096.018.143.018.262 0 .501-.18.568-.45 1.143-4.644 5.237-7.887 9.955-7.887 2.798 0 5.412 1.123 7.362 3.162.225.236.596.242.829.013.232-.228.238-.604.013-.84-.862-.9-1.84-1.641-2.9-2.207l3.017-2.578h8.273c.241.693.891 1.19 1.653 1.19.967 0 1.753-.8 1.753-1.784 0-.983-.786-1.783-1.753-1.783-.762 0-1.412.497-1.653 1.19h-8.487c-.138 0-.272.049-.377.139l-3.607 3.082c-1.108-.434-2.285-.69-3.499-.756V3.457c.682-.245 1.171-.904 1.171-1.678C21.795.8 21.007 0 20.038 0c-.969 0-1.757.798-1.757 1.78 0 .773.49 1.432 1.171 1.677v4.03c-1.248.06-2.45.324-3.572.762l-3.61-3.084c-.105-.09-.239-.14-.377-.14H3.406c-.242-.692-.891-1.19-1.653-1.19C.786 3.836 0 4.636 0 5.62s.786 1.784 1.753 1.784zm36.494-2.38c.32 0 .581.268.581.596 0 .329-.26.596-.58.596-.321 0-.582-.267-.582-.596 0-.328.261-.595.581-.595zM20.038 1.189c.323 0 .585.265.585.591 0 .326-.262.591-.585.591-.322 0-.585-.265-.585-.59 0-.327.263-.592.585-.592zM1.753 5.024c.32 0 .58.267.58.595 0 .329-.26.596-.58.596-.32 0-.581-.267-.581-.596 0-.328.26-.595.58-.595z" transform="translate(-621 -1664) translate(621 1664) translate(328 42)"/>
                </g>
            </g>
        </g>
    </g>
</svg>
