<svg xmlns="http://www.w3.org/2000/svg" width="262" height="410" viewBox="0 0 262 410">
    <defs>
        <linearGradient id="68ldl0wxra" x1="50%" x2="50%" y1="100%" y2="0%">
            <stop offset="0%" stop-color="gray" stop-opacity=".25"/>
            <stop offset="54%" stop-color="gray" stop-opacity=".12"/>
            <stop offset="100%" stop-color="gray" stop-opacity=".1"/>
        </linearGradient>
    </defs>
    <g fill="none" fill-rule="evenodd">
        <g fill-rule="nonzero">
            <g transform="translate(-138 -3625) translate(138 3625.72)">
                <ellipse cx="131" cy="386.28" fill="#F0EFFF" rx="131" ry="22"/>
                <g>
                    <path fill="#DEE4FA" d="M0 382.715H230.466V383.76599999999996H0z" transform="translate(20)"/>
                    <path fill="url(#68ldl0wxra)" d="M145.515 113.742c.69 2.166 1.3 4.231 1.815 6.007l-.32.112c-.4-1.645-.908-3.776-1.495-6.12zm-19.136-52.73l-.096.053.09-.083.006.03z" transform="translate(20)"/>
                    <path fill="#1A325F" d="M104.021 361.84c-3.513 1.093-6.152 22.03-6.152 22.03l21.846 5.23s15.321 2.192 22.601 0c7.28-2.192 7.032-8.276-3.389-9.249-10.42-.973-17.83-13.993-17.83-13.993s-13.563-5.111-17.076-4.018z" transform="translate(20)"/>
                    <path fill="#1A325F" d="M78.831 366.372c.052 1.697-.232 3.388-.836 4.975-1.73 5.194-2.462 10.666-2.158 16.13.046.653.098 1.337.156 2.051.743 8.497 21.338 3.209 22.707 2.218 1.37-.99-4.062-25.374-4.062-25.374s-16.15-3.446-15.807 0z" transform="translate(20)"/>
                    <path fill="#FFB9B9" d="M101.026 55.354c.006.007.01.015.012.024.434 1.085 16.588 41.368 13.667 28.194-.087-.392-.145-.79-.174-1.19-.25-3.237 1.252-6.797 3.669-10.334 1.54-2.21 3.252-4.292 5.118-6.225.933-.984 1.9-1.945 2.88-2.876 2.69-2.564 5.49-4.91 7.97-6.868 4.457-3.536 7.9-5.782 7.9-5.782s-31.24-37.042-29.027-21.061c.609 4.38 3.148 8.747 1.426 12.803-1.13 2.57-2.73 4.896-4.718 6.855-1.569 1.578-3.278 3.005-5.106 4.262-.783.536-1.49.984-2.063 1.326-.957.572-1.554.872-1.554.872zM209.206 101.93s1.244-.688 3.123-1.51c5.523-2.392 16.553-5.891 17.944 3.745 1.873 12.926-10.53 11.438-10.53 11.438-2.452-.924-4.965-1.682-7.52-2.269-1.256-.337-2.568-.418-3.857-.239l.84-11.164z" transform="translate(20)"/>
                    <path fill="#E6E6E6" d="M208.366 114.604h3.24c1.884-2.847.443-13.668.443-13.668l-2.817.57-.866 13.098z" transform="translate(20)"/>
                    <path fill="#416BB3" d="M141.016 133.937l.632 32.513 4.178 15.332s2.053 14.837 4.572 13.599c2.519-1.239 13.262 2.285 13.262 2.285l.508-5.5-3.617-32.327-2.794-16.134s-1.587-12.675-2.793-20.094c-1.206-7.418-11.292-1.54-11.292-1.54l-2.656 11.866zM153.325 115.846c6.7-1.873 15.35 0 15.35 0l39.076.86c6.976-9.184 2.14-17.81 2.14-17.81s-19.164-.75-34.695-3.065c-15.532-2.315-25.761-13.82-25.761-13.82l3.89 33.835z" transform="translate(20)"/>
                    <path fill="#000" d="M113.768 29.186c-2.239-15.782 29.352 20.8 29.352 20.8s-3.481 2.217-7.988 5.71c-.416.029-.833.029-1.26.029-9.665 0-16.33-6.008-20.163-14.157 1.542-3.627.75-7.55.06-12.382z" opacity=".1" transform="translate(20)"/>
                    <path fill="#FFB9B9" d="M110.497 33.607c.022-11.604 9.682-20.997 21.587-20.99 11.904.007 21.553 9.412 21.56 21.015.007 11.604-9.63 21.02-21.534 21.042-11.904.02-21.576-9.361-21.613-20.965v-.102z" transform="translate(20)"/>
                    <path fill="#FFF" d="M101.122 126.063l1.167-71.39 12.473 6.527 10.347 2.449 2.62-1.528.188-.11.426-.246s.14.304.408.858c2.265 4.788 13.284 28.203 13.05 30.21-.245 2.227 7.862 30.313 7.862 30.313l-3.91 26.6s7.417 18.477 5.456 25.3c-1.96 6.823-55.445 2.105-55.445 2.105l5.358-51.088z" transform="translate(20)"/>
                    <path fill="#1A325F" d="M122.073 66.157l3.995 5.369.645 1.568c2.256 5.53 3.552 11.438 3.826 17.445v6.967l.836 55.83 4.595 8.582.836-10.62-1.846-59.766-2.507-13.51-1.37-8.558c-.734-1.495-1.373-3.04-1.912-4.623-1.37-3.683-4.893-2.684-4.893-2.684l-2.205 4z" transform="translate(20)"/>
                    <path fill="#F5F5F5" d="M103.13 53.714l.124.304.87 2.182.981 2.439c1.151.748 2.224 1.615 3.202 2.587 3.318 3.041 8.131 7.93 10.69 10.56 1.08 1.11 1.759 1.813 1.759 1.813 1.267-1.15 2.54-4.997 3.4-8.11.14-.494.262-.971.38-1.412.431-1.688.694-2.904.694-2.904-3.254-1.187-10.848-8.765-14.75-12.808-1.581 1.596-3.304 3.04-5.147 4.311-.222-.632-2.202 1.038-2.202 1.038z" transform="translate(20)"/>
                    <path fill="#416BB3" d="M129.889 63.79c2.464 1.495 6.472 3.44 10.917 3.662 0 0 9.629 5.05 11.414 22.33 1.785 17.28 9.327 69.222 9.327 69.222s6.715 35.024 1.986 38.662l-5.278-42.874s-9.239-24.76-9.907-29.342c-.59-4.17-7.938-26.975-9.227-30.97-.13-.375-.195-.586-.195-.586l-7.347-20.59-4.244-11.27c.81.641 1.663 1.229 2.554 1.757zM77.877 297.263s7.293-50.366 5.315-57.162c-1.977-6.796 1.361-57.022 1.361-57.022l1.1-9.42.616-5.313.262-2.223 1.273.39c12.292 3.583 24.918 5.899 37.68 6.913 2.83.192 5.671-.035 8.433-.675 5.049-1.152 14.807-2.566 16.511-3.776 0 0 .582 1.565 1.309 4.125 1.675 5.917 4.199 17.229 2.256 26.864l-2.971 19.487s-1.17 19.859-5.008 31.74l-3.396 16.205-4.455 33.032c-2.2 8.802-3.79 17.745-4.763 26.766-1.623 14.977-10.887 39.822-10.887 39.822s-19.692 2.723-20.274-3.956l6.804-52.094 6.305-74.606s-6.834 46.548-10.76 56.574c0 0-5.443 57.144-7.298 65.948-1.855 8.803-3.088 11.13-3.088 11.13s-11.504 4.213-16.697-3.583c0 0-1.484-23.13-2.594-31.42-1.117-8.304 2.966-37.746 2.966-37.746z" transform="translate(20)"/>
                    <path fill="#FFB9B9" d="M86.765 186.1l7.947 3.928-9.474 18.152c-3.559-3.374-3.139-16.802-3.139-16.802l4.666-5.278z" transform="translate(20)"/>
                    <path fill="#E6E6E6" d="M89.833 185.049L93.66 187.9 88.56 195.241 81.608 197.666 81.031 192.812z" transform="translate(20)"/>
                    <g fill="#000" opacity=".1">
                        <path d="M.698.455C.683.437.674.415.672.391.594.44.513.488.43.529L.698.455z" transform="translate(20) translate(150.487 168.226)"/>
                    </g>
                    <path fill="#416BB3" d="M58.932 195.724c4.457 5.213 23.885 6.147 23.885 6.147l15.14-23.91 4.085-6.445s4.55-3.164 13.102-17.414c8.552-14.25 8.26-25.224 7.788-33.42-.471-8.196-5.825-31.751-5.825-31.751-.525-2.38-1.18-4.728-1.963-7.035-1.859-5.872-4.673-14.033-6.974-20.571-.413-1.18-.81-2.306-1.188-3.357-.7-1.997 2.854-9.603 2.854-9.603-1.252 2.516-9.14 6.655-11.884 8.389-7.398 4.67-17.727 6.585-17.727 6.585-16.632 2.422-13.562 19.643-13.562 19.643s-.187 66.94.839 74.95c1.025 8.009-8.57 37.792-8.57 37.792z" transform="translate(20)"/>
                    <path fill="#000" d="M67.25 83.172s-7.082 30.682-9.04 49.642c-1.957 18.96 5.406 31.043 5.406 31.043l15.747 34.86c5.405-1.387 16.401-12.823 16.401-12.823l-15.776-43.597s5.849-22.014 9.507-42.292c3.658-20.277-6.036-29.376-6.036-29.376-16.215-6.131-16.21 12.543-16.21 12.543z" opacity=".1" transform="translate(20)"/>
                    <path fill="#416BB3" d="M67.243 83.172s-7.077 30.682-9.033 49.642c-1.956 18.96 5.401 31.043 5.401 31.043l15.764 34.86c5.401-1.387 16.39-12.823 16.39-12.823L80 142.297s5.85-22.014 9.494-42.292c3.643-20.277-6.05-29.376-6.05-29.376-16.201-6.131-16.201 12.543-16.201 12.543zM97.87 191.785l-4.319 12.32-4.811 6.587s-3.604 2.404-4.504-2.091c-.9-4.495 11.288-21.375 11.288-21.375 1.927-.759 2.345 4.559 2.345 4.559z" transform="translate(20)"/>
                    <path fill="#1A325F" d="M111.748 44.16s-22.885-30.072 5.934-36.574c0 0 8.187-11.776 18.246-5.984 4.937 2.778 10.57 4.214 16.294 4.155 4.874 0 9.536 1.829 8.688 9.143-1.695 14.63-11.019 12.192-11.019 12.192s-25.285-10.863-26.133 1.328c-.847 12.191-12.01 15.74-12.01 15.74z" transform="translate(20)"/>
                </g>
            </g>
        </g>
    </g>
</svg>
