<svg xmlns="http://www.w3.org/2000/svg" width="67" height="67" viewBox="0 0 67 67">
    <g fill="none" fill-rule="evenodd">
        <g>
            <g>
                <g>
                    <g stroke="#000" stroke-width="2" transform="translate(-687 -4554) translate(0 4174) translate(687 380)">
                        <ellipse cx="31.797" cy="33.5" rx="26.254" ry="25.686"/>
                        <path d="M51.102 14.763L59.051 6.814M14.763 14.763L6.814 6.814M14.761 52.237L7.143 59.855"/>
                        <circle cx="62.458" cy="4.542" r="3.542"/>
                        <circle cx="62.458" cy="62.458" r="3.542"/>
                        <circle cx="4.542" cy="4.542" r="3.542"/>
                        <circle cx="4.542" cy="62.458" r="3.542"/>
                        <path d="M51.102 52.237L59.051 60.186"/>
                    </g>
                    <g fill="#000" fill-rule="nonzero">
                        <path d="M17.5 28h-15C1.122 28 0 26.87 0 25.48V13.72c0-1.39 1.122-2.52 2.5-2.52h15c1.378 0 2.5 1.13 2.5 2.52v11.76c0 1.39-1.122 2.52-2.5 2.52zm-15-15.12c-.459 0-.833.376-.833.84v11.76c0 .464.374.84.833.84h15c.459 0 .833-.376.833-.84V13.72c0-.464-.374-.84-.833-.84h-15z" transform="translate(-687 -4554) translate(0 4174) translate(687 380) translate(22 18)"/>
                        <path d="M15.833 12.32c-.46 0-.833-.394-.833-.88v-4.4c0-2.911-2.243-5.28-5-5.28S5 4.129 5 7.04v4.4c0 .486-.373.88-.833.88-.46 0-.834-.394-.834-.88v-4.4C3.333 3.157 6.323 0 10 0c3.677 0 6.667 3.157 6.667 7.04v4.4c0 .486-.374.88-.834.88zM10 20.16c-1.226 0-2.222-1.005-2.222-2.24 0-1.235.996-2.24 2.222-2.24s2.222 1.005 2.222 2.24c0 1.235-.996 2.24-2.222 2.24zm0-2.8c-.306 0-.556.25-.556.56 0 .31.25.56.556.56.306 0 .556-.25.556-.56 0-.31-.25-.56-.556-.56z" transform="translate(-687 -4554) translate(0 4174) translate(687 380) translate(22 18)"/>
                        <path d="M10 23.52c-.613 0-1.111-.354-1.111-.79v-2.9c0-.436.498-.79 1.111-.79s1.111.354 1.111.79v2.9c0 .436-.498.79-1.111.79z" transform="translate(-687 -4554) translate(0 4174) translate(687 380) translate(22 18)"/>
                    </g>
                </g>
            </g>
        </g>
    </g>
</svg>
