<svg xmlns="http://www.w3.org/2000/svg" width="60" height="60" viewBox="0 0 60 60">
    <g fill="none" fill-rule="evenodd">
        <g>
            <g>
                <g>
                    <g>
                        <g>
                            <g>
                                <path d="M0 0H60V60H0z" transform="translate(-1081 -1298) translate(933 1251) translate(148 47)"/>
                            </g>
                        </g>
                    </g>
                    <g stroke="#111" stroke-width="1.5">
                        <g>
                            <g>
                                <path d="M9.363 0h12.175c.223 5.827 3.073 8.998 8.55 9.511-.014.057.774-.759.774-2.965 0-2.207.104-3.667 2.356-3.935 2.252-.268 2.68 2.377 2.68 3.156v7.689h6.286c2.086.413 2.608 1.63 1.564 3.652l-.258.585-5.186.055M43.49 17.693c1.716.472 2.54 1.196 2.469 2.173-.106 1.464-.938 1.832-1.689 1.864-.012.029-1.951.029-5.818 0" transform="translate(-1081 -1298) translate(933 1251) translate(148 47) translate(7 12)"/>
                                <path d="M43.265 21.752c.95 1.07 1.224 1.987.822 2.752-.602 1.149-1.33 1.34-2.289 1.34h-3.346" transform="translate(-1081 -1298) translate(933 1251) translate(148 47) translate(7 12)"/>
                                <path d="M40.433 25.844c.67.614.937 1.245.802 1.895-.135.65-.602 1.086-1.4 1.307H24.807c-1.477-.528-2.424-1.062-2.841-1.6.014.001.014-.61 0-1.834" transform="translate(-1081 -1298) translate(933 1251) translate(148 47) translate(7 12)"/>
                                <path d="M9.088 0C8.926 5.556 5.904 8.662.023 9.32c-.03.029-.03 5.232 0 15.608.591 4.041 2.296 7.15 5.113 9.327 4.227 3.264 7.187 3.784 13.249 3.524.016.076 8.895-2.368 10.91-8.733" transform="translate(-1081 -1298) translate(933 1251) translate(148 47) translate(7 12)"/>
                                <path d="M15.23 9.297V2.742h-3.543c-.707 5.135-3.68 8.066-8.92 8.793.006.051.006 4.45 0 13.2.471 3.225 1.924 5.793 4.36 7.704 0 .086 3.141 2.765 8.104 2.765.016.053.016-7.114 0-21.5-.03-.93.491-1.395 1.562-1.395h4.016c.771.017 1.157.766 1.157 2.248v7.98M21.966 13.802h2.427c2.992-1.764 4.89-3.194 5.695-4.29" transform="translate(-1081 -1298) translate(933 1251) translate(148 47) translate(7 12)"/>
                                <path d="M15.23 13.703h-4.016c-.68.012-1.02.515-1.02 1.508v10.401c-.088.93.252 1.503 1.02 1.717.007.022 1.346.022 4.017 0" transform="translate(-1081 -1298) translate(933 1251) translate(148 47) translate(7 12)"/>
                            </g>
                        </g>
                    </g>
                </g>
            </g>
        </g>
    </g>
</svg>
