<svg xmlns="http://www.w3.org/2000/svg" xmlns:xlink="http://www.w3.org/1999/xlink" width="820" height="573" viewBox="0 0 820 573">
    <defs>
        <path id="bsp5fu7hua" d="M0.34 0H208.776V119.444H0.34z"/>
        <path id="gdekse4iac" d="M0.34 0H208.776V119.444H0.34z"/>
    </defs>
    <g fill="none" fill-rule="evenodd">
        <g>
            <g>
                <g fill="#416BB3" fill-rule="nonzero" opacity=".1">
                    <g>
                        <g>
                            <path d="M1.547 168.124h76.064v103.66H7.107c-.182 1.068-.364 2.135-.562 3.202H77.61v83.578c-.12-.035-.236-.08-.348-.132-2.019-.827-4.013-1.654-5.982-2.523l-1.282-.587c-2.02-.943-4.013-1.944-5.983-3.003-.695-.363-1.39-.744-2.076-1.133-11.106-6.196-21.198-14.054-29.928-23.299-.256-.248-.496-.513-.736-.761-1.208-1.315-2.408-2.655-3.558-4.011l-1.282-1.53c-1.366-1.655-2.681-3.383-3.955-5.12-.19-.257-.373-.521-.563-.77-5.221-7.218-9.55-15.041-12.891-23.299-.108-.248-.207-.513-.298-.76-1.042-2.625-1.972-5.291-2.788-7.999-.34-1.133-.679-2.274-.96-3.424-.108-.34-.19-.687-.281-1.017C.48 262.596 0 245.342 0 228.18v-5.996c0-6.942.066-13.904.199-20.885.04-1.803.074-3.606.115-5.417.108-4.599.249-9.206.447-13.804.05-1.274.108-2.556.174-3.822 0-.736.066-1.472.116-2.2.157-2.646.314-5.285.496-7.932zM77.61 52.72H35.886c6.783-10.616 14.196-20.815 22.199-30.545C64.28 14.565 70.8 7.138 77.61 0v52.72zM77.61 55.92v109.004H1.755c0-.315.05-.646.083-.96.066-.827.132-1.712.207-2.572.074-1 .173-2.01.264-3.027.091-1.018.199-2.184.315-3.267.116-1.084.223-2.184.347-3.309.124-1.125.24-2.175.373-3.25.132-1.075.256-2.176.397-3.25.116-.902.232-1.796.356-2.697.17-1.268.353-2.534.546-3.796 0-.19.058-.38.082-.563 1.368-9.214 3.232-18.347 5.585-27.36 2.46-9.46 5.605-18.729 9.408-27.733 4.036-9.421 8.766-18.53 14.149-27.253l43.745.033z" transform="translate(-645 -232) translate(645 232) translate(0 85.295)"/>
                        </g>
                        <g>
                            <path d="M.017 253.42v103.66h162.469V253.42H.016zm0 106.86v89.063c.926.19 1.845.38 2.763.537 1.241.24 2.482.455 3.732.645.24 0 .488.075.736.1.497.082 1.001.148 1.498.215 1.25.173 2.482.314 3.764.43l1.788.157 1.448.107c.786.058 1.563.108 2.341.133.48 0 .96 0 1.448.058H24.847c.645 0 1.29 0 1.928-.058.447 0 .893 0 1.34-.058.127.008.254.008.38 0 .373 0 .746 0 1.11-.05h.256l2.482-.198c.828-.075 1.655-.166 2.483-.257l1.704-.207c6.954-.972 13.83-2.434 20.578-4.375 15.158-4.226 29.952-10.14 45.135-14.466 19.7-5.632 41.345-8.354 60.243-1.58V360.28H.016zm162.469-222.266V.013c-17.788-.196-35.528 1.883-52.789 6.186C68.551 16.53 31.607 38.944 0 67.57v70.444h8.15v3.201H0v109.003h162.486V141.215H41.685v-3.2h120.8zM371.232 91.4c-10.177-.364-20.296-3.582-29.456-8.56-17.5-9.512-31.507-24.21-47.104-36.608C262.23 20.4 221.968 4.81 180.69.947v137.067h231.93l.57-.612L371.233 91.4zm21.132-3.78L414.77 112.2V81.184c-7.521.926-14.09 3.16-22.39 6.435h-.016zm22.406 383.774V360.28h-47.758c-.124-.47-.256-.95-.405-1.43.14.48.265.96.397 1.43H180.689v80.361c1.77 1.316 3.516 2.697 5.246 4.095 1.87 1.521 3.715 3.076 5.568 4.631l1.862 1.539c.893.744 1.795 1.472 2.697 2.208 1.804 1.456 3.621 2.895 5.453 4.318.91.72 1.836 1.422 2.755 2.125 14.64 11.185 30.083 21.28 46.202 30.206 3.613 2.007 7.26 3.956 10.939 5.847 2.449 1.258 4.912 2.493 7.388 3.706 3.718 1.814 7.463 3.57 11.236 5.269 34.84 15.631 71.679 26.356 109.466 31.868 8.39 1.235 16.813 2.208 25.27 2.92v-67.98h.744-.745zM180.69 141.215v109.003h234.098V141.215H180.689zm0 112.204v103.66h234.098V253.42H180.689zM432.957 81.035v34.672l28.595-31.372c-9.471-1.544-19.003-2.644-28.595-3.3zm0 172.384v103.66H660.65V253.42H432.957zm226.89 226.212l.828-119.35H432.957v180.307c14.666.614 29.354.437 44-.53h.257c6.984-.446 13.948-1.085 20.892-1.918h.158c36.977-4.301 73.134-13.946 107.339-28.634m98.966-238.982c-.86-2.018-1.746-4.02-2.656-6.005-1.655-3.714-3.483-7.386-5.329-11.025H678.82V357.08h44.912c-.033-29.321-7.464-59.336-19.155-86.63l-.008.074zm-25.749 89.83v102.594c12.651-12.117 23.341-25.987 31.036-41.843 9.259-19.097 13.478-39.767 13.843-60.825l-44.879.075zm0-137.066v27.005h16.101c-4.874-9.309-10.246-18.348-16.093-27.08l-.008.075zM524.41 101.374c-1.184-.455-2.375-.91-3.566-1.349-12.568-4.652-25.412-8.519-38.458-11.579l-43.762 47.972-.827.918.562.612h155.718c-21.695-14.9-45.08-27.178-69.667-36.574zm74.251 39.841h-162.51l-3.194 2.928v106.075H660.634v-51.404c-18.051-21.824-38.886-41.189-61.973-57.599z" transform="translate(-645 -232) translate(645 232) translate(95.764)"/>
                            <path d="M537.797 138.014h-30.721v-9.586h13.768v-28.403c1.191.439 2.382.894 3.566 1.349v27.054h13.387v9.586zM611.858 250.218L460.964 250.218 461.014 250.218 460.948 250.218 432.957 250.218 432.957 145.797 440.891 145.797 440.891 222.982 477.132 222.982 477.132 177.301 507.076 177.301 507.076 141.215 537.797 141.215 537.797 177.301 567.733 177.301 567.733 222.982 611.858 222.982zM432.957 253.42v103.66h178.901V253.42H432.957zm227.445 225.698l.248-82.048h-48.817v-36.79H432.957v180.308c14.666.614 29.354.437 44-.53h.257c6.984-.446 13.948-1.085 20.892-1.918h.158c36.977-4.301 73.134-13.946 107.339-28.634M681.98 360.28h41.735c-.364 21.058-4.592 41.728-13.85 60.825-7.687 15.856-18.386 29.726-31.028 41.843v-65.92h3.144V360.28zM723.74 357.08h-41.76v-86.63h22.597c11.691 27.294 19.122 57.309 19.163 86.63z" transform="translate(-645 -232) translate(645 232) translate(95.764)"/>
                        </g>
                        <path d="M463.388 145.797H510.558V250.21800000000002H463.388zM510.559 253.419L510.559 357.08 276.444 357.08 276.444 312.375 401.143 312.375 401.143 338.743 463.388 338.743 463.388 253.419zM511.304 471.426h-.745v67.996c-8.456-.711-16.88-1.685-25.27-2.92-37.797-5.52-74.646-16.259-109.49-31.91-10.06-4.532-19.915-9.472-29.563-14.82-16.118-8.928-31.56-19.023-46.202-30.207-3.68-2.817-7.312-5.698-10.897-8.643-2.482-2.05-4.965-4.135-7.447-6.186-1.72-1.398-3.467-2.78-5.246-4.136v-80.32h186.324c-.132-.47-.257-.95-.389-1.43.14.48.273.96.397 1.43h47.783v111.096l.745.05z" transform="translate(-645 -232) translate(645 232)"/>
                        <path d="M485.29 174.82H510.559V207.557H485.29zM485.29 242.684H510.559V250.219H485.29zM485.29 253.419H510.559V275.41200000000003H485.29zM485.29 310.539H510.559V343.276H485.29zM276.444 399.708H384.735V414.53000000000003H276.444zM384.735 444.744v14.821h-84.701c-3.68-2.812-7.312-5.695-10.897-8.651-2.482-2.043-4.965-4.135-7.447-6.17h103.045zM384.735 489.771v14.83H375.8c-10.06-4.532-19.915-9.476-29.563-14.83h38.5z" transform="translate(-645 -232) translate(645 232)"/>
                    </g>
                </g>
                <g fill-rule="nonzero">
                    <path fill="#416BB3" d="M112.927 48.157H221.27800000000002V50.562999999999995H112.927zM112.927 53.762H221.27800000000002V62.972H112.927z" opacity=".1" transform="translate(-645 -232) translate(645 232) translate(328 284)"/>
                    <path fill="#EEC5CD" d="M58.791 25.342L70.946 34.234 86 44.048 345.407 45.635 345.308 29.365 265.03 0 35.213 10.491z" transform="translate(-645 -232) translate(645 232) translate(328 284)"/>
                    <path fill="#464A5F" d="M276.884 211.402c-.662 3.885-2.624 3.381-4.413 1.934-2.094-1.755-3.44-4.241-3.766-6.953l-15.432-113.89-.563-4.133-.662-4.919-.563-4.075-1.118-8.268-.703-5.2 7.939-2.77.985 7.441 2.426 18.188.538 4.06.58 4.323.107.827.563 4.133.166 1.274 13.924 104.407c.172 1.2.169 2.42-.008 3.62zM390.046 245.952c-.397 3.43-2.252 3.844-4.14 3.306-2.655-.834-4.676-3-5.322-5.704L346.898 112.65l-1.813-7.01-10.117-39.36-1.291-4.96 6.764-7.946 3.212 12.36 46.095 176.737c.314 1.132.415 2.312.298 3.48z" transform="translate(-645 -232) translate(645 232) translate(328 284)"/>
                    <path fill="#000" d="M242.802 102.018L239.855 99.083 238.489 97.711 233.273 92.494 232.719 88.369 232.048 83.45 238.63 89.89 241.552 92.758 242.131 97.082 242.239 97.892z" opacity=".1" transform="translate(-645 -232) translate(645 232) translate(328 284)"/>
                    <path fill="#464A5F" d="M47.403 32.302l-1.838 7.532-6.797 27.761-1.54 6.267L8.568 190.95c-.395 1.705-1.177 3.298-2.285 4.654-2.757 3.307-4.487 1.736-5.464-.265-.859-1.825-1.05-3.893-.538-5.845L37.063 40.38l1.986-8.077h8.354zM123.669 71.533l-1.656 8.936-2.393 13.187-1.498 8.267-33.015 181.135c-3.022 7.44-5.224 5.787-6.532 3.117-1.054-2.215-1.384-4.705-.944-7.118l25.49-149.836 1.432-8.44 1.068-6.284 1.482-8.68 4.14-24.637.827-4.877 11.599-4.77z" transform="translate(-645 -232) translate(645 232) translate(328 284)"/>
                    <path fill="#D48A9B" d="M88.803 46.111L345.308 29.365 265.03 0 35.213 10.491z" transform="translate(-645 -232) translate(645 232) translate(328 284)"/>
                    <path fill="#464A5F" d="M35.213 10.491L39 40.698 88.803 80.634 88.803 46.111 57.077 24.834z" transform="translate(-645 -232) translate(645 232) translate(328 284)"/>
                    <path fill="#000" d="M218.529 66.675L223.496 71.545 216.343 72.016 212.974 68.651zM237.603 63.104L238.596 70.553 230.367 71.098 229.664 65.873zM266.661 68.709L257.968 69.28 256.677 64.294 263.441 56.35z" opacity=".1" transform="translate(-645 -232) translate(645 232) translate(328 284)"/>
                    <path fill="#464A5F" d="M346.103 61.111L88.803 80.634 88.803 46.111 345.308 29.365z" transform="translate(-645 -232) translate(645 232) translate(328 284)"/>
                    <path fill="#000" d="M232.843 44.445L339.347 37.699 340.142 57.937 234.035 65.08z" opacity=".1" transform="translate(-645 -232) translate(645 232) translate(328 284)"/>
                    <path fill="#000" d="M163.686 59.129L178.795 59.13 178.795 60.32 163.686 60.32z" opacity=".1" transform="translate(-645 -232) translate(645 232) translate(328 284) rotate(-1.51 171.24 59.725)"/>
                    <path fill="#D48A9B" d="M163.68 57.939L178.788 57.94 178.788 59.13 163.68 59.13z" transform="translate(-645 -232) translate(645 232) translate(328 284) rotate(-1.51 171.234 58.535)"/>
                    <path fill="#000" d="M280.918 51.194L296.027 51.195 296.027 52.385 280.918 52.385z" opacity=".1" transform="translate(-645 -232) translate(645 232) translate(328 284) rotate(-1.51 288.472 51.79)"/>
                    <path fill="#D48A9B" d="M280.92 50.004L296.028 50.005 296.028 51.195 280.92 51.195z" transform="translate(-645 -232) translate(645 232) translate(328 284) rotate(-1.51 288.474 50.6)"/>
                    <path fill="#000" d="M112.157 10.491L112.372 16.667 71.02 16.667 70.946 12.872z" opacity=".1" transform="translate(-645 -232) translate(645 232) translate(328 284)"/>
                </g>
                <g fill-rule="nonzero">
                    <path fill="#416BB3" d="M112.927 48.157H221.27800000000002V50.562999999999995H112.927zM112.927 53.762H221.27800000000002V62.972H112.927z" opacity=".1" transform="translate(-645 -232) translate(645 232) matrix(-1 0 0 1 398 284)"/>
                    <path fill="#EEC5CD" d="M58.791 25.342L70.946 34.234 86 44.048 345.407 45.635 345.308 29.365 265.03 0 35.213 10.491z" transform="translate(-645 -232) translate(645 232) matrix(-1 0 0 1 398 284)"/>
                    <path fill="#464A5F" d="M276.884 211.402c-.662 3.885-2.624 3.381-4.413 1.934-2.094-1.755-3.44-4.241-3.766-6.953l-15.432-113.89-.563-4.133-.662-4.919-.563-4.075-1.118-8.268-.703-5.2 7.939-2.77.985 7.441 2.426 18.188.538 4.06.58 4.323.107.827.563 4.133.166 1.274 13.924 104.407c.172 1.2.169 2.42-.008 3.62zM390.046 245.952c-.397 3.43-2.252 3.844-4.14 3.306-2.655-.834-4.676-3-5.322-5.704L346.898 112.65l-1.813-7.01-10.117-39.36-1.291-4.96 6.764-7.946 3.212 12.36 46.095 176.737c.314 1.132.415 2.312.298 3.48z" transform="translate(-645 -232) translate(645 232) matrix(-1 0 0 1 398 284)"/>
                    <path fill="#000" d="M242.802 102.018L239.855 99.083 238.489 97.711 233.273 92.494 232.719 88.369 232.048 83.45 238.63 89.89 241.552 92.758 242.131 97.082 242.239 97.892z" opacity=".1" transform="translate(-645 -232) translate(645 232) matrix(-1 0 0 1 398 284)"/>
                    <path fill="#464A5F" d="M47.403 32.302l-1.838 7.532-6.797 27.761-1.54 6.267L8.568 190.95c-.395 1.705-1.177 3.298-2.285 4.654-2.757 3.307-4.487 1.736-5.464-.265-.859-1.825-1.05-3.893-.538-5.845L37.063 40.38l1.986-8.077h8.354zM123.669 71.533l-1.656 8.936-2.393 13.187-1.498 8.267-33.015 181.135c-3.022 7.44-5.224 5.787-6.532 3.117-1.054-2.215-1.384-4.705-.944-7.118l25.49-149.836 1.432-8.44 1.068-6.284 1.482-8.68 4.14-24.637.827-4.877 11.599-4.77z" transform="translate(-645 -232) translate(645 232) matrix(-1 0 0 1 398 284)"/>
                    <path fill="#D48A9B" d="M88.803 46.111L345.308 29.365 265.03 0 35.213 10.491z" transform="translate(-645 -232) translate(645 232) matrix(-1 0 0 1 398 284)"/>
                    <path fill="#464A5F" d="M35.213 10.491L39 40.698 88.803 80.634 88.803 46.111 57.077 24.834z" transform="translate(-645 -232) translate(645 232) matrix(-1 0 0 1 398 284)"/>
                    <path fill="#000" d="M218.529 66.675L223.496 71.545 216.343 72.016 212.974 68.651zM237.603 63.104L238.596 70.553 230.367 71.098 229.664 65.873zM266.661 68.709L257.968 69.28 256.677 64.294 263.441 56.35z" opacity=".1" transform="translate(-645 -232) translate(645 232) matrix(-1 0 0 1 398 284)"/>
                    <path fill="#464A5F" d="M346.103 61.111L88.803 80.634 88.803 46.111 345.308 29.365z" transform="translate(-645 -232) translate(645 232) matrix(-1 0 0 1 398 284)"/>
                    <path fill="#000" d="M232.843 44.445L339.347 37.699 340.142 57.937 234.035 65.08z" opacity=".1" transform="translate(-645 -232) translate(645 232) matrix(-1 0 0 1 398 284)"/>
                    <path fill="#000" d="M163.686 59.129L178.795 59.13 178.795 60.32 163.686 60.32z" opacity=".1" transform="translate(-645 -232) translate(645 232) matrix(-1 0 0 1 398 284) rotate(-1.51 171.24 59.725)"/>
                    <path fill="#D48A9B" d="M163.68 57.939L178.788 57.94 178.788 59.13 163.68 59.13z" transform="translate(-645 -232) translate(645 232) matrix(-1 0 0 1 398 284) rotate(-1.51 171.234 58.535)"/>
                    <path fill="#000" d="M280.918 51.194L296.027 51.195 296.027 52.385 280.918 52.385z" opacity=".1" transform="translate(-645 -232) translate(645 232) matrix(-1 0 0 1 398 284) rotate(-1.51 288.472 51.79)"/>
                    <path fill="#D48A9B" d="M280.92 50.004L296.028 50.005 296.028 51.195 280.92 51.195z" transform="translate(-645 -232) translate(645 232) matrix(-1 0 0 1 398 284) rotate(-1.51 288.474 50.6)"/>
                    <path fill="#000" d="M112.157 10.491L112.372 16.667 71.02 16.667 70.946 12.872z" opacity=".1" transform="translate(-645 -232) translate(645 232) matrix(-1 0 0 1 398 284)"/>
                </g>
                <g fill-rule="nonzero">
                    <path fill="#464A5F" d="M2 13L52 13 52 27 2 27z" transform="translate(-645 -232) translate(645 232) translate(60 244)"/>
                    <path fill="#F4F7FF" d="M30 13L46 13 46 27 30 27z" transform="translate(-645 -232) translate(645 232) translate(60 244)"/>
                    <g>
                        <g>
                            <g>
                                <path fill="#F4F7FF" d="M58.019 15.916H8.369c-4.06 0-7.353-3.319-7.353-7.413S4.308 1.09 8.37 1.09h49.65v14.826z" transform="translate(-645 -232) translate(645 232) translate(60 244) translate(4.411 49.972)"/>
                                <path fill="#E4ECF2" d="M52.829 1.09L58.019 1.09 58.019 15.916 52.829 15.916z" transform="translate(-645 -232) translate(645 232) translate(60 244) translate(4.411 49.972)"/>
                                <path fill="#464A5F" d="M60.613 16.897H8.37c-4.59 0-8.326-3.765-8.326-8.394C.043 3.875 3.778.11 8.37.11h52.244c.538 0 .974.44.974.981 0 .542-.436.981-.974.981H8.37c-3.518 0-6.38 2.886-6.38 6.432 0 3.547 2.862 6.432 6.38 6.432h52.244c.538 0 .974.44.974.981 0 .542-.436.981-.974.981z" transform="translate(-645 -232) translate(645 232) translate(60 244) translate(4.411 49.972)"/>
                                <g fill="#D1DBEF">
                                    <path d="M41.151 2.042H1.071c-.537 0-.973-.439-.973-.98 0-.543.436-.982.973-.982h40.08v1.962zM41.151 6.984H11.713c-.537 0-.973-.439-.973-.98 0-.543.436-.982.973-.982h29.438v1.962z" transform="translate(-645 -232) translate(645 232) translate(60 244) translate(4.411 49.972) translate(16.867 4.971)"/>
                                </g>
                            </g>
                            <g>
                                <path fill="#F4F7FF" d="M54.108 10.645H5.796c-2.627 0-4.758-2.147-4.758-4.797S3.168 1.05 5.796 1.05h48.312v9.595z" transform="translate(-645 -232) translate(645 232) translate(60 244) translate(0 38.46)"/>
                                <path fill="#E4ECF2" d="M48.918 1.05L54.108 1.05 54.108 10.645 48.918 10.645z" transform="translate(-645 -232) translate(645 232) translate(60 244) translate(0 38.46)"/>
                                <path fill="#464A5F" d="M57.085 11.627H5.796c-3.16 0-5.731-2.593-5.731-5.78C.065 2.662 2.636.07 5.796.07h51.289c.537 0 .973.44.973.981 0 .542-.436.981-.973.981H5.796c-2.087 0-3.785 1.712-3.785 3.817 0 2.104 1.698 3.816 3.785 3.816h51.289c.537 0 .973.44.973.981 0 .542-.436.982-.973.982z" transform="translate(-645 -232) translate(645 232) translate(60 244) translate(0 38.46)"/>
                                <path fill="#C5D7E6" d="M54.108 7.033H40.444c-.538 0-.973-.44-.973-.981 0-.542.435-.981.973-.981h13.664v1.962z" transform="translate(-645 -232) translate(645 232) translate(60 244) translate(0 38.46)"/>
                            </g>
                            <g>
                                <path fill="#F0F5FA" d="M4.288.981h38.777c2.92 0 5.286 2.386 5.286 5.33 0 2.943-2.367 5.329-5.286 5.329H4.288V.98z" transform="translate(-645 -232) translate(645 232) translate(60 244) translate(12.845)"/>
                                <path fill="#E4ECF2" d="M43.065.981h-5.19c2.92 0 5.286 2.386 5.286 5.33 0 2.943-2.367 5.329-5.286 5.329h5.19c2.92 0 5.286-2.386 5.286-5.33 0-2.943-2.367-5.329-5.286-5.329z" transform="translate(-645 -232) translate(645 232) translate(60 244) translate(12.845)"/>
                                <path fill="#464A5F" d="M43.065 12.621H.981c-.538 0-.973-.44-.973-.981 0-.542.435-.981.973-.981h42.084c2.378 0 4.313-1.95 4.313-4.348 0-2.398-1.935-4.349-4.313-4.349H.981c-.538 0-.973-.439-.973-.98C.008.438.443 0 .98 0h42.084c3.451 0 6.259 2.83 6.259 6.31 0 3.48-2.808 6.311-6.259 6.311z" transform="translate(-645 -232) translate(645 232) translate(60 244) translate(12.845)"/>
                            </g>
                            <g>
                                <path fill="#464A5F" d="M0.013 0.101L57.867 0.101 57.867 11.974 0.013 11.974z" transform="translate(-645 -232) translate(645 232) translate(60 244) translate(7.655 26.556)"/>
                                <path fill="#AD5F2C" d="M52.677 0.101L57.867 0.101 57.867 11.974 52.677 11.974z" transform="translate(-645 -232) translate(645 232) translate(60 244) translate(7.655 26.556)"/>
                                <path fill="#F4F7FF" d="M19.916 8H6.681c-1.075 0-1.946-.88-1.946-1.963 0-1.083.871-1.962 1.946-1.962h13.235c1.075 0 1.946.879 1.946 1.962 0 1.084-.87 1.962-1.946 1.962z" transform="translate(-645 -232) translate(645 232) translate(60 244) translate(7.655 26.556)"/>
                                <path fill="#FFF5F5" d="M52.245 7.018h-6.336c-.538 0-.973-.439-.973-.98 0-.543.435-.982.973-.982h6.336c.537 0 .973.44.973.981 0 .542-.436.981-.973.981z" transform="translate(-645 -232) translate(645 232) translate(60 244) translate(7.655 26.556)"/>
                            </g>
                            <g fill="#D1DBEF">
                                <path d="M8.066 4.442c-.537 0-.973-.44-.973-.981V1.02c0-.542.436-.982.973-.982.537 0 .973.44.973.982v2.44c0 .543-.436.982-.973.982zM4.52 4.442c-.538 0-.974-.44-.974-.981V1.02c0-.542.436-.982.974-.982.537 0 .973.44.973.982v2.44c0 .543-.436.982-.973.982zM.973 4.442c-.537 0-.973-.44-.973-.981V1.02C0 .478.436.038.973.038c.538 0 .973.44.973.982v2.44c0 .543-.435.982-.973.982z" transform="translate(-645 -232) translate(645 232) translate(60 244) translate(34.123 17.399)"/>
                            </g>
                        </g>
                        <path fill="#D1DBEF" d="M17.105 5.33H39.31c.537 0 .973.439.973.98 0 .542-.436.982-.973.982H17.105V5.329z" transform="translate(-645 -232) translate(645 232) translate(60 244)"/>
                    </g>
                </g>
                <g transform="translate(-645 -232) translate(645 232) translate(134 109)">
                    <rect width="218" height="147" fill="#474059" fill-rule="nonzero" rx="9.61"/>
                    <path fill="#FFF" fill-rule="nonzero" d="M4 17H213V137H4z"/>
                    <g transform="translate(4 17)">
                        <mask id="33rfa40qdb" fill="#fff">
                            <use xlink:href="#bsp5fu7hua"/>
                        </mask>
                        <use fill="#FFF" fill-rule="nonzero" xlink:href="#bsp5fu7hua"/>
                        <g mask="url(#33rfa40qdb)">
                            <g>
                                <text font-family="Poppins-Regular, Poppins" font-size="8" transform="translate(64.17 12.516)">
                                    <tspan x="2.867" y="24.75" fill="#5D5D5D">Balance sheet</tspan>
                                </text>
                                <text font-family="Poppins-Regular, Poppins" font-size="6" transform="translate(64.17 12.516)">
                                    <tspan x="4.238" y="57.142" fill="#B7B6B6">Assets</tspan>
                                </text>
                                <text font-family="Poppins-Regular, Poppins" font-size="6" transform="translate(64.17 12.516)">
                                    <tspan x="62.86" y="57.203" fill="#B7B6B6">Liabilities</tspan>
                                </text>
                                <text font-family="Poppins-Regular, Poppins" font-size="6" transform="translate(64.17 12.516)">
                                    <tspan x="1.524" y="38.715" fill="#5D5D5D">AS</tspan>
                                </text>
                                <text font-family="Poppins-Regular, Poppins" font-size="6" transform="translate(64.17 12.516)">
                                    <tspan x="23.951" y="38.715" fill="#5D5D5D">AT</tspan>
                                </text>
                                <text font-family="Poppins-Regular, Poppins" font-size="6" transform="translate(64.17 12.516)">
                                    <tspan x="63.764" y="39.143" fill="#5D5D5D">31-03-2020</tspan>
                                </text>
                                <text font-family="Poppins-SemiBold, Poppins" font-size="10" font-weight="500" transform="translate(64.17 12.516)">
                                    <tspan x="1.061" y="11.604" fill="#242424">XYZ LTD. </tspan>
                                </text>
                                <path stroke="#ECF0F7" stroke-linecap="round" stroke-width="2" d="M3.855 72.465L13.747 72.465 17.911 72.465M61.561 72.577L71.453 72.577 75.617 72.577M3.855 86.513L9.358 86.513 11.675 86.513M61.561 86.346L67.065 86.346 69.381 86.346M61.561 102.234L71.453 102.234 75.617 102.234" transform="translate(64.17 12.516)"/>
                                <path stroke="#979797" stroke-linecap="square" d="M49.383 48.24L49.383 109.958" opacity=".2" transform="translate(64.17 12.516)"/>
                                <path stroke="#979797" stroke-linecap="square" d="M81.833 -33.478L81.833 128.916" opacity=".2" transform="translate(64.17 12.516) rotate(-90 81.833 47.719)"/>
                                <path stroke="#979797" stroke-linecap="square" d="M81.833 -16.531L81.833 145.863" opacity=".2" transform="translate(64.17 12.516) rotate(-90 81.833 64.666)"/>
                                <path stroke="#979797" stroke-linecap="square" d="M81.833 -1.702L81.833 160.691" opacity=".2" transform="translate(64.17 12.516) rotate(-90 81.833 79.494)"/>
                                <path stroke="#979797" stroke-linecap="square" d="M81.833 13.126L81.833 175.52" opacity=".2" transform="translate(64.17 12.516) rotate(-90 81.833 94.323)"/>
                            </g>
                        </g>
                    </g>
                    <circle cx="109" cy="11" r="2" fill="#FFF" fill-rule="nonzero"/>
                    <path fill="#474059" fill-rule="nonzero" d="M90 142H128V182H90z"/>
                    <path fill="#474059" fill-rule="nonzero" d="M86.429 179h47.142c3.55 0 6.429 2.686 6.429 6H80c0-3.314 2.878-6 6.429-6z"/>
                </g>
                <g fill-rule="nonzero" transform="translate(-645 -232) translate(645 232) matrix(-1 0 0 1 305 135)">
                    <path fill="#E8EAF1" d="M14 87H68V89H14zM14 92H68V94H14z"/>
                    <path fill="#D6E6F9" d="M170 356.344L167 376l-18-3.78s3.75-12.852 4.5-15.876c.75-3.024.75 0 .75 0H170zM88 372.22L70 376l-2.078-13.608-.922-6.048h15.75s0-3.024.75 0c.27 1.089.93 3.462 1.672 6.048C86.5 366.973 88 372.22 88 372.22z"/>
                    <path fill="#000" d="M85 363H67.914L67 357.273h15.6s0-2.864.743 0c.268 1.03.922 3.279 1.657 5.727zM151 362h17.086l.914-5.727h-15.615s0-2.864-.743 0c-.253 1.03-.907 3.279-1.642 5.727z" opacity=".1"/>
                    <path fill="#416BB3" d="M187.19 120s10.049.743 12.367 35.657c.815 13.101 2.574 26.133 5.265 39 2.296 10.746 1.22 21.905-3.092 32.062L191.828 250s-18.552-14.857-24.736-14.114c0 0 10.822-14.115 10.049-22.286-.773-8.171-13.141-66.857-13.141-66.857L187.19 120z"/>
                    <path fill="#5F546F" d="M73.904 232s-23.437 14.14-28.73 20.093c-5.292 5.954-3.024 29.767 0 39.442C48.2 301.209 67.1 360 67.1 360H86s-6.048-36.465-3.78-39.442c2.268-2.977-4.536-55.814-4.536-55.814L73.904 232zM163.096 232s23.437 14.14 28.73 20.093c5.292 5.954 3.024 29.767 0 39.442C188.8 301.209 169.9 360 169.9 360H151s6.048-36.465 3.78-39.442c-2.268-2.977 4.536-55.814 4.536-55.814l3.78-32.744z"/>
                    <path fill="#000" d="M73.904 232s-23.437 14.14-28.73 20.093c-5.292 5.954-3.024 29.767 0 39.442C48.2 301.209 67.1 360 67.1 360H86s-6.048-36.465-3.78-39.442c2.268-2.977-4.536-55.814-4.536-55.814L73.904 232zM163.096 232s23.437 14.14 28.73 20.093c5.292 5.954 3.024 29.767 0 39.442C188.8 301.209 169.9 360 169.9 360H151s6.048-36.465 3.78-39.442c-2.268-2.977 4.536-55.814 4.536-55.814l3.78-32.744z" opacity=".1"/>
                    <path fill="#FFCED8" d="M113.938 43.25s0 28.794-10.658 43.56C92.623 101.574 152 89.023 152 89.023c-2.703-1.93-4.703-4.645-5.71-7.752-3.136-10.83-4.323-29.908.381-38.022 6.851-11.813-32.733 0-32.733 0z"/>
                    <circle cx="130.5" cy="38.5" r="25.5" fill="#000" opacity=".1"/>
                    <circle cx="130.5" cy="37.5" r="25.5" fill="#FFCED8"/>
                    <path fill="#5F546F" d="M146.938 292.24c-26.758 1.191-71.266 6.21-78.013-1.235-10.884-12.006-7.024-22.813-1.406-29.392 2.199-2.585 4.174-6.91 5.774-11.229.539-1.462 1.04-2.916 1.496-4.303 1.728-5.373 7.48-9.081 13.989-9.081h54.03c6.546 0 12.306 3.768 14.004 9.141.758 2.522 1.92 4.903 3.44 7.047.797 1.113 1.724 2.125 2.76 3.014 2.724 2.329 4.49 7.348 5.634 12.872 2.416 11.696-7.817 22.549-21.708 23.167z"/>
                    <path fill="#000" d="M146.938 292.24c-26.758 1.191-71.266 6.21-78.013-1.235-10.884-12.006-7.024-22.813-1.406-29.392 2.199-2.585 4.174-6.91 5.774-11.229.539-1.462 1.04-2.916 1.496-4.303 1.728-5.373 7.48-9.081 13.989-9.081h54.03c6.546 0 12.306 3.768 14.004 9.141.758 2.522 1.92 4.903 3.44 7.047.797 1.113 1.724 2.125 2.76 3.014 2.724 2.329 4.49 7.348 5.634 12.872 2.416 11.696-7.817 22.549-21.708 23.167zM79.577 370.76c-2.382-.46-8.6-1.776-11.012-3.538-.299-.209-.68-.275-1.036-.18-.356.096-.647.343-.79.67l-3.73 8.342s-15.22-6.58-15.98 8.774c-.442 8.956 4.292 12.187 8.318 13.328 3.571.95 6.939 2.503 9.946 4.584 3.66 2.618 9.239 5.3 15.57 3.853 1.279-.287 2.592-.41 3.904-.365 2.839.087 7.732-.731 7.192-7.524 0 0-4.566-17.547-3.044-20.471.959-1.843.707-6.58.395-9.841-.044-.33-.293-.601-.629-.684-.335-.082-.69.041-.893.31-1.283 1.9-3.512 3.01-5.867 2.925-.786.023-1.572-.039-2.344-.182z" opacity=".1"/>
                    <path fill="#2F2E41" d="M79.577 372.76c-2.382-.46-8.6-1.776-11.012-3.538-.299-.209-.68-.275-1.036-.18-.356.096-.647.343-.79.67l-3.73 8.342s-15.22-6.58-15.98 8.774c-.442 8.956 4.292 12.187 8.318 13.328 3.571.95 6.939 2.503 9.946 4.584 3.66 2.618 9.239 5.3 15.57 3.853 1.279-.287 2.592-.41 3.904-.365 2.839.087 7.732-.731 7.192-7.524 0 0-4.566-17.547-3.044-20.471.959-1.843.707-6.58.395-9.841-.044-.33-.293-.601-.629-.684-.335-.082-.69.041-.893.31-1.283 1.9-3.512 3.01-5.867 2.925-.786.023-1.572-.039-2.344-.182z"/>
                    <path fill="#000" d="M156.407 370.76c2.385-.461 8.61-1.777 11.025-3.538.3-.209.681-.275 1.038-.18.356.096.647.342.79.67l3.711 8.339s15.238-6.578 16 8.77c.442 8.953-4.297 12.183-8.327 13.324-3.559.96-6.912 2.516-9.905 4.597-3.665 2.616-9.25 5.298-15.589 3.851-1.28-.287-2.595-.41-3.909-.365-2.842.088-7.74-.73-7.2-7.52 0 0 4.572-17.541 3.048-20.465-.96-1.842-.709-6.578-.396-9.837.044-.33.294-.6.63-.683.336-.082.69.04.894.31 1.285 1.898 3.516 3.009 5.874 2.924.777.015 1.554-.051 2.316-.198z" opacity=".1"/>
                    <path fill="#2F2E41" d="M156.407 372.76c2.385-.461 8.61-1.777 11.025-3.538.3-.209.681-.275 1.038-.18.356.096.647.342.79.67l3.711 8.339s15.238-6.578 16 8.77c.442 8.953-4.297 12.183-8.327 13.324-3.559.96-6.912 2.516-9.905 4.597-3.665 2.616-9.25 5.298-15.589 3.851-1.28-.287-2.595-.41-3.909-.365-2.842.088-7.74-.73-7.2-7.52 0 0 4.572-17.541 3.048-20.465-.96-1.842-.709-6.578-.396-9.837.044-.33.294-.6.63-.683.336-.082.69.04.894.31 1.285 1.898 3.516 3.009 5.874 2.924.777.015 1.554-.051 2.316-.198z"/>
                    <path fill="#FFCED8" d="M22.779 62.896s6.65-21.67-11.083-24.66c-17.733-2.989-13.3 23.165 0 32.88 13.3 9.713 11.083-8.22 11.083-8.22z"/>
                    <path fill="#000" d="M163 233.887c-21.372 34.174-93.122-4.457-93.122-4.457s-1.703-.907-2.878-3.863c.588-1.806 1.13-3.61 1.618-5.327 1.894-6.655 8.125-11.256 15.22-11.24h58.774c7.12-.015 13.362 4.625 15.22 11.314.802 3.07 2.062 6.008 3.74 8.722.756 2.994 1.428 4.851 1.428 4.851z" opacity=".1"/>
                    <path fill="#416BB3" d="M114.949 66.953h-4.517s-3.01 13.41-12.797 13.41c-2.612 0-6.18-.157-10.02-.395-11.536-.599-23.091.77-34.16 4.045-3.817 1.095-8.01 1.192-11.525-1.416-9.033-6.704-18.82-24.584-18.82-24.584s-17.313-.745-18.066 8.94c-.752 9.685 8.28 27.564 10.54 29.799 2.258 2.235 2.258 16.39 18.066 20.114 15.808 3.725 27.1 5.215 27.852 23.84.753 18.624 15.808 37.993 8.28 59.598-7.527 21.604.753 26.074.753 26.074s70.76 38.739 91.838 4.47c0 0-8.28-23.095 0-34.27 8.28-11.174 4.517-38.738 4.517-38.738l27.1-26.82s.752-17.134-10.54-26.073c-11.29-8.94-37.638-23.095-37.638-23.095l2.635-11.07-33.498-3.829z"/>
                    <path fill="#000" d="M116.516 46.13c-.576 7.048-.349 15.09 4.921 19.876 2.59 2.352 6.057 3.528 9.457 4.344 3.58.86 7.232 1.393 10.91 1.595 3.362.18 6.944 0 9.768-1.775 5.785-3.692 5.648-11.9 7.965-18.318 1.636-4.538 4.71-8.41 6.906-12.73 3.997-7.82 4.936-17.427 1.211-25.38-3.725-7.954-12.53-13.66-21.33-12.62-2.856.444-5.651 1.216-8.328 2.3-6.375 2.306-11.395-4.217-17.77-1.91-3.483 1.258-17.324 2.644-18.172 6.74-1.007 4.868 12.387 17.007 13.833 21.268 1.9 5.49.629 10.994.629 16.61z" opacity=".1"/>
                    <path fill="#2F2E41" d="M116.516 45.13c-.576 7.048-.349 15.09 4.921 19.876 2.59 2.352 6.057 3.528 9.457 4.344 3.58.86 7.232 1.393 10.91 1.595 3.362.18 6.944 0 9.768-1.775 5.785-3.692 5.648-11.9 7.965-18.318 1.636-4.538 4.71-8.41 6.906-12.73 3.997-7.82 4.936-17.427 1.211-25.38-3.725-7.954-12.53-13.66-21.33-12.62-2.856.444-5.651 1.216-8.328 2.3-6.375 2.306-11.395-4.217-17.77-1.91-3.483 1.258-17.324 2.644-18.172 6.74-1.007 4.868 12.387 17.007 13.833 21.268 1.9 5.49.629 10.994.629 16.61z"/>
                    <path fill="#000" d="M106 76s4.415 1.805 16.925 5.402c12.509 3.596 22.075 0 22.075 0M72 184s20.937 1.19 27.667 10.119 8.973 11.905 17.198 11.905S151.26 207.512 155 209" opacity=".1"/>
                    <g transform="translate(39 309)">
                        <path fill="#7F4227" d="M76.724 99.902H90.203V115.512H76.724zM74.65 0H94.349V88.455H74.65z"/>
                        <path fill="#7F4227" d="M.276 114.472s-8.957-7.314 75.225-30.18h17.007s72.49 18.272 73.382 30.18h-10.742s-39.389-11.908-57.295-11.908c-17.907 0-71.62 1.83-87.698 11.892l-9.88.016z"/>
                        <ellipse cx="6.739" cy="121.756" fill="#5A5773" rx="6.739" ry="6.244"/>
                        <ellipse cx="83.463" cy="121.756" fill="#5A5773" rx="6.739" ry="6.244"/>
                        <ellipse cx="162.261" cy="121.756" fill="#5A5773" rx="6.739" ry="6.244"/>
                    </g>
                    <path fill="#9D5A3C" d="M197 233H206V306H197z"/>
                    <path fill="#7F4227" d="M179 306H200V309H179z" opacity=".8"/>
                    <path fill="#9D5A3C" d="M42 233H51V306H42z"/>
                    <path fill="#7F4227" d="M43 306H64V309H43z" opacity=".8"/>
                    <path fill="#CB919B" d="M125.5 278.876c55.665 1.93 57.5-19.278 57.5-19.278l-3.596-58.807C178.51 109.204 125.5 122.7 125.5 122.7s-53.01-13.465-53.904 78.092L68 259.598s1.798 21.208 57.5 19.278z"/>
                    <path fill="#7F4227" d="M125.5 278.876c55.665 1.93 57.5-19.278 57.5-19.278l-3.596-58.807C178.51 109.204 125.5 122.7 125.5 122.7s-53.01-13.465-53.904 78.092L68 259.598s1.798 21.208 57.5 19.278z" opacity=".91"/>
                    <path fill="#7F4227" d="M122.5 274.882c52.802 1.832 54.5-18.3 54.5-18.3l-3.404-55.813c-.853-86.916-51.096-74.105-51.096-74.105s-50.243-12.811-51.096 74.105L68 256.581s1.698 20.133 54.5 18.301z"/>
                    <rect width="21" height="38" x="112" y="251" fill="#7F4227" rx="10.5"/>
                    <path fill="#000" d="M133 393.377L133 396 113 396 113 393.396 114.743 393 131.287 393z" opacity=".1"/>
                    <path fill="#9D5A3C" d="M43.048 222h3.904C52.502 222 57 226.873 57 232.884V238H33v-5.116C33 226.874 37.499 222 43.048 222zM198.048 222h3.904c5.55 0 10.048 4.873 10.048 10.884V238h-24v-5.116c0-6.01 4.499-10.884 10.048-10.884z"/>
                    <path fill="#000" d="M113 309H133V312H113z" opacity=".1"/>
                    <path fill="#CB919B" d="M123.997 310h60.036l4.503-8.926c2.686-15.177-7.167-16.074-7.167-16.074H66.633s-9.86.89-7.167 16.074L63.97 310h60.028z"/>
                    <path fill="#7F4227" d="M123.997 310h60.036l4.503-8.926c2.686-15.177-7.167-16.074-7.167-16.074H66.633s-9.86.89-7.167 16.074L63.97 310h60.028z" opacity=".8"/>
                    <path fill="#9D5A3C" d="M123.997 313h60.036l4.503-7.5c2.686-12.746-7.167-13.5-7.167-13.5H66.633s-9.86.732-7.167 13.5l4.503 7.5h60.028z"/>
                </g>
                <g>
                    <g transform="translate(-645 -232) translate(645 232) translate(405 110)">
                        <rect width="218" height="147" fill="#474059" fill-rule="nonzero" rx="9.61"/>
                        <path fill="#FFF" fill-rule="nonzero" d="M4 17H213V137H4z"/>
                        <g transform="translate(4 17)">
                            <use fill="#FFF" fill-rule="nonzero" xlink:href="#gdekse4iac"/>
                        </g>
                        <circle cx="109" cy="11" r="2" fill="#FFF" fill-rule="nonzero"/>
                        <path fill="#474059" fill-rule="nonzero" d="M90 142H128V182H90z"/>
                        <path fill="#474059" fill-rule="nonzero" d="M86.429 179h47.142c3.55 0 6.429 2.686 6.429 6H80c0-3.314 2.878-6 6.429-6z"/>
                    </g>
                    <g fill-rule="nonzero">
                        <path fill="#2C87DB" d="M5.492 13.432c-6.576 9.41-7.3 21.62-1.883 31.715 5.418 10.095 16.088 16.416 27.714 16.416V34.727L5.493 13.432z" transform="translate(-645 -232) translate(645 232) translate(405 110) matrix(-1 0 0 1 181.329 49.46)"/>
                        <path fill="#CCC" d="M31.323 0C21.036-.006 11.408 4.997 5.593 13.372l25.73 21.327V0z" transform="translate(-645 -232) translate(645 232) translate(405 110) matrix(-1 0 0 1 181.329 49.46)"/>
                        <path fill="#3F3D56" d="M31.672 62.682h-.349V0h.35c17.724 0 32.092 14.032 32.092 31.34 0 17.31-14.368 31.342-32.093 31.342zM32.021.683V62c17.202-.187 31.047-13.858 31.047-30.658S49.223.87 32.02.683z" transform="translate(-645 -232) translate(645 232) translate(405 110) matrix(-1 0 0 1 181.329 49.46)"/>
                    </g>
                    <path fill="#2C87DB" fill-rule="nonzero" d="M41.492 43.864H19.144c-1.525-8.889-1.525-17.975 0-26.864h22.348c-2.517 8.775-2.517 18.089 0 26.864z" transform="translate(-645 -232) translate(645 232) translate(405 110) matrix(-1 0 0 1 59.492 0)"/>
                    <g fill-rule="nonzero">
                        <path fill="#3F3D56" d="M1.125 0H40.5V3.366H1.125z" transform="translate(-645 -232) translate(645 232) translate(405 110) translate(34.595 56.949)"/>
                        <path fill="#2C87DB" d="M1.125 11.22H63V14.586H1.125zM1.125 22.439H50.625V25.805H1.125z" transform="translate(-645 -232) translate(645 232) translate(405 110) translate(34.595 56.949)"/>
                        <path fill="#3F3D56" d="M0 32.537H30.375V35.903H0zM1.125 42.634H46.125V46H1.125z" transform="translate(-645 -232) translate(645 232) translate(405 110) translate(34.595 56.949)"/>
                    </g>
                    <g fill-rule="nonzero">
                        <path fill="#3F3D56" d="M0 0H6V5.595H0z" transform="translate(-645 -232) translate(645 232) translate(405 110) translate(24.595 56.949)"/>
                        <path fill="#2C87DB" d="M0 10.071H6V15.666H0zM0 21.262H6V26.857H0z" transform="translate(-645 -232) translate(645 232) translate(405 110) translate(24.595 56.949)"/>
                        <path fill="#3F3D56" d="M0 31.333H6V36.928H0zM0 41.405H6V47H0z" transform="translate(-645 -232) translate(645 232) translate(405 110) translate(24.595 56.949)"/>
                    </g>
                </g>
                <g fill-rule="nonzero" transform="translate(-645 -232) translate(645 232) translate(499 123)">
                    <path fill="#2F2E41" d="M118.033 96.095l-11.469-2.806c-8.863.011-17.262-3.974-22.878-10.855s-7.856-15.93-6.1-24.65C77.557 36.392 94.815 19.028 116.13 19c21.315-.027 38.616 17.294 38.642 38.687 6.503 22.713-13.863 44.005-36.739 38.408z" transform="matrix(-1 0 0 1 233 0)"/>
                    <circle cx="103.5" cy="71.5" r="27.5" fill="#FFCED8" transform="matrix(-1 0 0 1 207 0)"/>
                    <path fill="#FFCED8" d="M108.534 84s-8.376 29.42-13.163 31.871c-4.786 2.452 38.29 6.129 38.29 6.129s-1.196-28.194 1.197-30.645C137.251 88.903 108.534 84 108.534 84z" transform="matrix(-1 0 0 1 230 0)"/>
                    <path fill="#2F2E41" d="M75.059 266.595s55.225-4.918 62.588 13.526C145.011 298.565 132.738 408 132.738 408h-23.317v-89.761S10 289.923 10 280.086c0-9.836 65.059-13.491 65.059-13.491z" transform="matrix(-1 0 0 1 150 0)"/>
                    <path fill="#2F2E41" d="M21.311 404l12.454 4.779s14.944-1.195 8.717 9.557c-3.61 6.323-10.03 10.721-17.435 11.947 0 0-23.662 8.363-24.907 0-1.245-8.363 6.227-25.088 6.227-25.088L21.31 404z" transform="matrix(-1 0 0 1 44 0)"/>
                    <path fill="#2F2E41" d="M78.75 268.04s55.488-4.939 62.886 13.578C149.034 300.135 136.704 410 136.704 410h-23.429v-90.114s-70.91-16.443-70.91-26.319c0-4.64-4.831-28.218 3.684-33.185 9.61-5.607 32.7 7.657 32.7 7.657z" transform="matrix(-1 0 0 1 185 0)"/>
                    <path fill="#2F2E41" d="M52.311 404l12.454 4.779s14.944-1.195 8.717 9.557c-3.61 6.323-10.03 10.721-17.435 11.947 0 0-23.662 8.363-24.907 0-1.245-8.363 6.227-25.088 6.227-25.088L52.31 404z" transform="matrix(-1 0 0 1 106 0)"/>
                    <path fill="#416BB3" d="M75.341 113l36.673 4.035c11.61 1.277 21.094 9.962 23.508 21.527l14.258 68.308s4.88 67.933-4.882 71.638c-9.762 3.706-23.185-14.821-41.49-12.351-18.305 2.47-42.1 8.028-42.1 8.028s-3.78-121.596-4.272-131.542C56.052 122.761 75.341 113 75.341 113z" transform="matrix(-1 0 0 1 208 0)"/>
                    <path fill="#FFB8B8" d="M11.175 270l14.903 9.15s26.738-4 25.903 5.798c-.835 9.798-30.02 7.905-30.02 7.905L4 281.315 11.175 270z" transform="matrix(-1 0 0 1 56 0)"/>
                    <circle cx="156" cy="30" r="18" fill="#2F2E41" transform="matrix(-1 0 0 1 312 0)"/>
                    <path fill="#2F2E41" d="M157.65 19.548c-.004-5.447-2.55-10.605-6.939-14.055C146.324 2.044 140.557.668 135 1.743c6.61-3.001 14.427-2.075 20.08 2.38 5.652 4.455 8.127 11.641 6.356 18.456-1.77 6.816-7.47 12.041-14.637 13.421 6.629-3 10.857-9.411 10.851-16.452z" transform="matrix(-1 0 0 1 297 0)"/>
                    <path fill="#2F2E41" d="M91.683 31.414L115.998 27l18.7 11.554c9.387 5.8 14.49 16.459 13.066 27.29l-18.728-4.68-4.194-10.366-4.995 8.07L93.733 92l-14.662-9.205L66 62.601l25.683-31.187z" transform="matrix(-1 0 0 1 214 0)"/>
                    <path fill="#416BB3" d="M35 124.14L46.93 118s25.052 3.684 29.824 20.875C81.526 156.066 103 275.176 103 275.176L82.72 285l-28.632-72.449L35 124.14z" transform="matrix(-1 0 0 1 138 0)"/>
                    <path fill="#000" d="M58 172L70.62 219.641 93 273.147 92.224 275 65.533 220.535z" opacity=".2" transform="matrix(-1 0 0 1 151 0)"/>
                    <path fill="#7F4227" d="M9.597 236.839l12.505 50.512c3.569 14.416 14.814 25.681 29.229 29.283 34.875 8.714 71.388 8.479 106.148-.684l18.671-4.921c10.848-2.86 19.007-12.172 19.778-23.358.313-3.955-.403-7.923-2.08-11.519-.073-.155-.146-.308-.22-.46-4.962-10.189-15.17-16.785-26.502-17.128l-19.779-.637-72.031-31.895s-24.774-12.576-45.14-13.984c-13.45-.93-23.817 11.71-20.579 24.79z" transform="matrix(-1 0 0 1 205 0)"/>
                    <g transform="translate(37 320)">
                        <path fill="#7F4227" d="M71.73 103.609H84.331V118.271H71.73zM69.791 0L88.209 0 88.209 92.857 69.791 92.857z"/>
                        <path fill="#7F4227" d="M.258 117.293s-8.374-6.869 70.329-28.346h15.9s67.771 17.162 68.605 28.346H145.05s-36.825-11.184-53.566-11.184c-16.742 0-66.959 1.719-81.99 11.17l-9.236.014z"/>
                        <ellipse cx="6.301" cy="124.135" fill="#5A5773" rx="6.301" ry="5.865"/>
                        <ellipse cx="78.031" cy="124.135" fill="#5A5773" rx="6.301" ry="5.865"/>
                        <ellipse cx="151.699" cy="124.135" fill="#5A5773" rx="6.301" ry="5.865"/>
                    </g>
                </g>
                <g>
                    <path fill="#FFF" fill-rule="nonzero" d="M47.117 0.819L36.525 35.257 0.273 54.03 7.161 20.881z" transform="translate(-645 -232) translate(645 232) rotate(-149 197.687 130.423)"/>
                    <path stroke="#464A5F" stroke-linecap="round" d="M32.63 36.532l-20.155-1.44 20.156 1.44z" transform="translate(-645 -232) translate(645 232) rotate(-149 197.687 130.423) rotate(149 22.553 35.812)"/>
                    <path stroke="#464A5F" stroke-linecap="round" d="M33.116 28.858l-15-1.44 15 1.44z" transform="translate(-645 -232) translate(645 232) rotate(-149 197.687 130.423) rotate(149 25.616 28.139)"/>
                </g>
            </g>
        </g>
    </g>
</svg>
