<svg xmlns="http://www.w3.org/2000/svg" width="71" height="68" viewBox="0 0 71 68">
    <g fill="none" fill-rule="evenodd">
        <g>
            <g>
                <g transform="translate(-295 -4554) translate(0 4174) translate(296 380)">
                    <g fill="#000" fill-rule="nonzero">
                        <path d="M16.5 41c-.07 0-.14-.01-.21-.029C16.127 40.928 0 36.353 0 20.806V6.833c0-.359.214-.677.54-.801L16.215.052c.183-.07.386-.07.57 0l15.675 5.98c.325.124.54.442.54.801v13.973c0 15.549-16.127 20.122-16.29 20.167-.07.017-.14.027-.21.027zM1.65 7.43v13.376c0 13.465 12.952 17.88 14.85 18.453 1.898-.574 14.85-4.988 14.85-18.453V7.429L16.5 1.766 1.65 7.429z" transform="translate(37 27)"/>
                    </g>
                    <circle cx="12" cy="10" r="3" stroke="#000" stroke-width="2"/>
                    <circle cx="12" cy="28" r="3" stroke="#000" stroke-width="2"/>
                    <circle cx="12" cy="47" r="3" stroke="#000" stroke-width="2"/>
                    <circle cx="27" cy="10" r="3" stroke="#000" stroke-width="2"/>
                    <circle cx="27" cy="28" r="3" stroke="#000" stroke-width="2"/>
                    <circle cx="27" cy="47" r="3" stroke="#000" stroke-width="2"/>
                    <rect width="62" height="17" x="1" y="1" stroke="#000" stroke-width="2" rx="8.5"/>
                    <path stroke="#000" stroke-linecap="round" stroke-width="2" d="M6.636 19c-8.582 5.513-8.84 11.512-.774 17.999H28M6.636 37c-8.582 5.513-8.84 11.512-.774 17.999H28M46 46.246L51.145 53 64 40.421"/>
                </g>
            </g>
        </g>
    </g>
</svg>
