<svg xmlns="http://www.w3.org/2000/svg" width="17" height="16" viewBox="0 0 17 16">
    <g fill="none" fill-rule="evenodd">
        <g fill="#3F76C2" fill-rule="nonzero">
            <g>
                <g>
                    <g>
                        <path d="M16.48 9.64v6.082h-3.532v-5.675c0-1.426-.511-2.4-1.79-2.4-.976 0-1.557.657-1.812 1.291-.093.227-.117.542-.117.86v5.924H5.695s.048-9.612 0-10.608h3.533v1.503l-.023.035h.023v-.035c.47-.721 1.308-1.752 3.184-1.752 2.325 0 4.068 1.516 4.068 4.774zM2 0C.79 0 0 .792 0 1.833 0 2.85.768 3.666 1.952 3.666h.024c1.232 0 1.999-.815 1.999-1.833C3.95.792 3.208 0 1.999 0zM.21 15.722h3.532V5.114H.21v10.608z" transform="translate(-1109 -2803) translate(1035 2516) translate(74 287)"/>
                    </g>
                </g>
            </g>
        </g>
    </g>
</svg>
