<svg xmlns="http://www.w3.org/2000/svg" width="25" height="23" viewBox="0 0 25 23">
    <g fill="none" fill-rule="evenodd">
        <g fill="#000" fill-rule="nonzero">
            <g>
                <g>
                    <g>
                        <path d="M24.42 6.402l-.022-.014-2.942-1.87h.086V1.645c0-.227-.193-.41-.43-.41h-2.155c-.238 0-.43.183-.43.41v1.012L14.456.07c-.145-.092-.334-.092-.478 0L4.038 6.388c-.614.381-.787 1.165-.387 1.75s1.222.75 1.836.369l.023-.015 1.383-.879v7.994h-.861c0-.227-.193-.41-.431-.41H2.154c-.238 0-.43.183-.43.41H0v.821h1.723v4.107H0v.821h1.723c0 .227.193.411.431.411h3.447c.238 0 .43-.184.43-.41V21.2l3.217 1.273c1.754.682 3.714.703 5.483.058l6.656-2.419c.394-.143.711-.431.88-.8.174-.373.183-.798.025-1.178-.14-.34-.408-.62-.75-.784V7.613l1.383.88c.606.393 1.431.244 1.844-.333.413-.577.257-1.364-.349-1.758zM5.17 20.946H2.585v-4.928H5.17v4.928zM19.388 2.055h1.292v1.97l-1.292-.82v-1.15zm2.09 16.926c-.076.167-.22.298-.398.364l-6.656 2.418c-1.564.571-3.297.553-4.848-.05L6.032 20.31v-3.882h1.092c1.429.002 2.837.32 4.116.927.422.2.887.305 1.359.305h3.342c.357.002.645.28.643.62-.002.285-.209.532-.5.596-.057.005-.112.016-.17.016h-5.143v.822h5.17c.009 0 .017-.003.026-.003.342-.005.68-.073.994-.2l3.602-1.458c.172-.07.366-.07.538 0 .178.072.318.21.387.383.074.175.07.372-.01.545zm-5.537-2.142h-3.342c-.338 0-.671-.075-.974-.219-1.208-.573-2.523-.91-3.87-.992V7.065l6.463-4.107 6.462 4.107v10.128c-.156.013-.309.048-.453.104l-2.794 1.13c.008-.05.013-.1.016-.15 0-.794-.675-1.438-1.508-1.438zm7.94-9.008V7.83c-.15.078-.335.07-.478-.022l-8.946-5.684c-.145-.092-.334-.092-.478 0L5.032 7.809c-.214.136-.503.08-.646-.123-.05-.073-.078-.159-.078-.247 0-.148.078-.287.208-.37L14.218.906 23.92 7.07c.13.082.207.221.207.37.001.163-.094.314-.246.39z" transform="translate(-364 -3902) translate(354 3887) translate(10 15)"/>
                        <path d="M4 19H5V20H4zM14 6c-2.76.003-4.997 2.24-5 5 0 2.761 2.239 5 5 5s5-2.239 5-5-2.239-5-5-5zm0 9c-2.21 0-4-1.79-4-4s1.79-4 4-4c2.208.003 3.997 1.792 4 4 0 2.21-1.79 4-4 4z" transform="translate(-364 -3902) translate(354 3887) translate(10 15)"/>
                    </g>
                </g>
            </g>
        </g>
    </g>
</svg>
