<svg xmlns="http://www.w3.org/2000/svg" width="28" height="15" viewBox="0 0 28 15">
    <g fill="none" fill-rule="evenodd">
        <g fill="#111" fill-rule="nonzero">
            <g>
                <g>
                    <path d="M27.533 0h-7.9C17.553-.006 15.544.747 14 2.112 12.456.747 10.447-.006 8.367 0h-7.9C.209 0 0 .205 0 .457v8.224c0 .253.209.457.467.457H3.57l1.857 1.455c-.4.725-.228 1.625.412 2.16.64.535 1.574.56 2.243.062.173.596.656 1.058 1.269 1.214.613.156 1.264-.017 1.712-.455l.29-.284c.179.592.663 1.047 1.273 1.2.611.151 1.258-.023 1.704-.46l.29-.283c.179.592.662 1.047 1.273 1.2.61.151 1.258-.023 1.704-.46l.466-.456c.244-.238.412-.54.484-.869l.964-.314c.738-.24 1.344-.765 1.678-1.453l3.227-2.257h3.117c.258 0 .467-.204.467-.457V.457C28 .205 27.791 0 27.533 0zM.933.914h2.334v7.31H.933V.915zm5.464 11.1c-.333-.327-.333-.855 0-1.182L8.73 8.548c.333-.326.873-.326 1.206 0 .333.326.333.855 0 1.181l-2.333 2.285c-.333.325-.873.325-1.206 0zm4.006.914c-.333.325-.873.325-1.206 0-.333-.327-.333-.856 0-1.182l1.4-1.37.466-.458c.334-.325.874-.325 1.207 0 .333.327.333.856 0 1.182l-1.867 1.828zm3.267.456c-.215.212-.53.294-.824.217-.295-.077-.525-.302-.604-.59-.079-.29.006-.597.221-.808l1.4-1.37c.216-.212.53-.295.825-.217.294.077.524.302.603.59.08.289-.005.597-.221.808l-1.4 1.37zm3.733 0l-.466.457c-.334.326-.874.326-1.207 0-.333-.326-.333-.855 0-1.181l.467-.457c.333-.326.873-.326 1.206 0 .333.327.333.855 0 1.181zm1.813-1.403l-.728.237c-.323-.905-1.33-1.388-2.259-1.082-.103-.605-.521-1.113-1.104-1.34-.582-.225-1.242-.136-1.74.235-.134-.46-.454-.847-.886-1.07-.433-.223-.94-.262-1.403-.109-.11-.647-.58-1.179-1.217-1.38-.637-.2-1.336-.034-1.809.43L6.032 9.896 4.2 8.462V.914h4.167c1.828-.005 3.595.65 4.963 1.838L11.217 4.82c-.561.55-.632 1.416-.168 2.046.463.63 1.325.838 2.035.49l2.893-1.416h.646l3.264 2.84c.514.448.745 1.13.607 1.79-.138.66-.626 1.198-1.278 1.41zM23.8 8.446l-2.336 1.634c-.031-.76-.377-1.476-.957-1.982L17.958 5.88c1.101-.165 2.12-.671 2.905-1.445l-.66-.646c-.807.795-1.905 1.24-3.05 1.237h-1.286c-.073 0-.144.017-.21.048l-2.99 1.465c-.3.147-.665.059-.861-.207-.196-.267-.166-.633.07-.865l2.454-2.402C15.733 1.683 17.643.909 19.633.914H23.8v7.532zm3.267-.221h-2.334V.914h2.334v7.31z" transform="translate(-385 -3724) translate(377 3704) translate(8 20)"/>
                </g>
            </g>
        </g>
    </g>
</svg>
